<?xml version="1.0" encoding="UTF-8" standalone="no"?>
<svg width="386px" height="162px" viewBox="0 0 386 162" version="1.1" xmlns="http://www.w3.org/2000/svg" xmlns:xlink="http://www.w3.org/1999/xlink">
    <!-- Generator: Sketch Beta 3.6 (26304) - http://www.bohemiancoding.com/sketch -->
    <title>Group 14</title>
    <desc>Created with Sketch Beta.</desc>
    <defs></defs>
    <g id="web-site" stroke="none" stroke-width="1" fill="none" fill-rule="evenodd">
        <g id="Desktop-HD-Copy-5" transform="translate(-500.000000, -157.000000)" stroke="#1A2E40" fill="#112537">
            <g id="Group-14" transform="translate(-1.000000, 59.000000)">
                <g transform="translate(501.000000, 98.000000)">
                    <rect id="Rectangle-519" x="0" y="16" width="20" height="20" rx="2"></rect>
                    <rect id="Rectangle-519-Copy-6" x="366" y="57" width="20" height="20" rx="2"></rect>
                    <rect id="Rectangle-519-Copy-7" x="331" y="0" width="11" height="11" rx="2"></rect>
                    <rect id="Rectangle-519-Copy" opacity="0.624300373" x="10" y="6" width="20" height="20" rx="2"></rect>
                    <rect id="Rectangle-519-Copy-8" opacity="0.624300373" x="328" y="110" width="12" height="12" rx="2"></rect>
                    <rect id="Rectangle-519-Copy-9" opacity="0.486182369" x="334" y="105" width="12" height="12" rx="2"></rect>
                    <g id="Group-11" transform="translate(121.000000, 116.000000)">
                        <rect id="Rectangle-519-Copy-2" opacity="0.624300373" x="0" y="13" width="14" height="14" rx="2"></rect>
                        <rect id="Rectangle-519-Copy-3" opacity="0.624300373" x="24" y="34" width="14" height="14" rx="2"></rect>
                        <rect id="Rectangle-519-Copy-4" opacity="0.624300373" x="21" y="13" width="14" height="14" rx="2"></rect>
                        <rect id="Rectangle-519-Copy-5" opacity="0.579874067" x="28" y="0" width="20" height="20" rx="2"></rect>
                    </g>
                </g>
            </g>
        </g>
    </g>
</svg>