<?xml version="1.0" encoding="UTF-8" standalone="no"?>
<svg width="1202px" height="453px" viewBox="0 0 1202 453" version="1.1" xmlns="http://www.w3.org/2000/svg" xmlns:xlink="http://www.w3.org/1999/xlink" xmlns:sketch="http://www.bohemiancoding.com/sketch/ns">
    <!-- Generator: Sketch Beta 3.4.2 (15855) - http://www.bohemiancoding.com/sketch -->
    <title>Path 64 + Path 65 + Path 66 + Path 67 + Path 67 Copy Mask + 无限可能 + 5   1 + ＋ Copy</title>
    <desc>Created with Sketch Beta.</desc>
    <defs>
        <rect id="path-1" x="0" y="0" width="1200" height="451" rx="3"></rect>
    </defs>
    <g id="Page-1" stroke="none" stroke-width="1" fill="none" fill-rule="evenodd" sketch:type="MSPage">
        <g id="Desktop-HD-Copy" sketch:type="MSArtboardGroup" transform="translate(-83.000000, -4073.000000)">
            <g id="Path-64-+-Path-65-+-Path-66-+-Path-67-+-Path-67-Copy-Mask-+-无限可能-+-5---1-+-＋-Copy" sketch:type="MSLayerGroup" transform="translate(84.000000, 4074.000000)">
                <g id="Path-64-+-Path-65-+-Path-66-+-Path-67-+-Path-67-Copy-Mask">
                    <mask id="mask-2" sketch:name="Mask" fill="white">
                        <use xlink:href="#path-1"></use>
                    </mask>
                    <use id="Mask" stroke="#D9D9D9" fill="#FFFFFF" sketch:type="MSShapeGroup" xlink:href="#path-1"></use>
                    <path d="M-82.4729561,499.75653 C-82.4729561,499.75653 -115.22276,616.403701 -48.6647949,461.405701 C-39.9684839,441.154017 -135.51296,498.720131 -17.5141879,461.405701 C100.484584,424.09127 124.086014,305.091081 196.527044,302.044847 C269.521196,298.975353 303.337677,454.503682 406.527044,451.544847 C546.027044,447.544847 267.2493,496.044847 322.527044,496.044847 C431.605001,496.044847 300.027044,491.544847 384.527044,484.544847 C469.027044,477.544847 278.527044,675.25653 278.527044,675.25653 L-82.4729561,499.75653 Z" id="Path-67-Copy-5" opacity="0.910000026" fill="#61A5E8" sketch:type="MSShapeGroup" mask="url(#mask-2)"></path>
                    <path d="M48.5270439,499.75653 C48.5270439,499.75653 29.4690792,635.042847 96.0270439,480.044847 C104.723355,459.793163 56.0270439,504.044847 151.527044,454.544847 C247.027044,405.044847 255.086014,305.091081 327.527044,302.044847 C400.521196,298.975353 434.337677,454.503682 537.527044,451.544847 C677.027044,447.544847 398.2493,496.044847 453.527044,496.044847 C562.605001,496.044847 431.027044,491.544847 515.527044,484.544847 C600.027044,477.544847 409.527044,675.25653 409.527044,675.25653 L48.5270439,499.75653 Z" id="Path-67-Copy-4" opacity="0.910000026" fill="#7ECF51" sketch:type="MSShapeGroup" mask="url(#mask-2)"></path>
                    <path d="M179.527044,499.75653 C179.527044,499.75653 160.469079,635.042847 227.027044,480.044847 C235.723355,459.793163 187.027044,504.044847 282.527044,454.544847 C378.027044,405.044847 386.086014,305.091081 458.527044,302.044847 C531.521196,298.975353 565.337677,454.503682 668.527044,451.544847 C808.027044,447.544847 529.2493,496.044847 584.527044,496.044847 C693.605001,496.044847 562.027044,491.544847 646.527044,484.544847 C731.027044,477.544847 540.527044,675.25653 540.527044,675.25653 L179.527044,499.75653 Z" id="Path-68" opacity="0.910000026" fill="#EECB5F" sketch:type="MSShapeGroup" mask="url(#mask-2)"></path>
                    <path d="M310.527044,499.75653 C310.527044,499.75653 291.469079,635.042847 358.027044,480.044847 C366.723355,459.793163 318.027044,504.044847 413.527044,454.544847 C509.027044,405.044847 517.086014,305.091081 589.527044,302.044847 C662.521196,298.975353 696.337677,454.503682 799.527044,451.544847 C939.027044,447.544847 660.2493,496.044847 715.527044,496.044847 C824.605001,496.044847 693.027044,491.544847 777.527044,484.544847 C862.027044,477.544847 671.527044,675.25653 671.527044,675.25653 L310.527044,499.75653 Z" id="Path-69" opacity="0.910000026" fill="#9570E5" sketch:type="MSShapeGroup" mask="url(#mask-2)"></path>
                    <path d="M441.527044,499.75653 C441.527044,499.75653 422.469079,635.042847 489.027044,480.044847 C497.723355,459.793163 449.027044,504.044847 544.527044,454.544847 C640.027044,405.044847 648.086014,305.091081 720.527044,302.044847 C793.521196,298.975353 827.337677,454.503682 930.527044,451.544847 C1070.02704,447.544847 791.2493,496.044847 846.527044,496.044847 C955.605001,496.044847 824.027044,491.544847 908.527044,484.544847 C993.027044,477.544847 802.527044,675.25653 802.527044,675.25653 L441.527044,499.75653 Z" id="Path-70" opacity="0.910000026" fill="#E3935D" sketch:type="MSShapeGroup" mask="url(#mask-2)"></path>
                    <path d="M572.527044,499.75653 C572.527044,499.75653 553.469079,635.042847 620.027044,480.044847 C628.723355,459.793163 580.027044,504.044847 675.527044,454.544847 C771.027044,405.044847 779.086014,305.091081 851.527044,302.044847 C924.521196,298.975353 958.337677,454.503682 1061.52704,451.544847 C1201.02704,447.544847 922.2493,496.044847 977.527044,496.044847 C1086.605,496.044847 955.027044,491.544847 1039.52704,484.544847 C1124.02704,477.544847 933.527044,675.25653 933.527044,675.25653 L572.527044,499.75653 Z" id="Path-71" opacity="0.910000026" fill="#DD6555" sketch:type="MSShapeGroup" mask="url(#mask-2)"></path>
                    <path d="M703.527044,499.75653 C703.527044,499.75653 684.469079,635.042847 751.027044,480.044847 C759.723355,459.793163 711.027044,504.044847 806.527044,454.544847 C902.027044,405.044847 910.086014,305.091081 982.527044,302.044847 C1055.5212,298.975353 1089.33768,454.503682 1192.52704,451.544847 C1332.02704,447.544847 1053.2493,496.044847 1108.52704,496.044847 C1217.605,496.044847 1086.02704,491.544847 1170.52704,484.544847 C1255.02704,477.544847 1064.52704,675.25653 1064.52704,675.25653 L703.527044,499.75653 Z" id="Path-72" opacity="0.910000026" fill="#605FF0" sketch:type="MSShapeGroup" mask="url(#mask-2)"></path>
                </g>
                <g id="5---1-+-＋" transform="translate(27.000000, 141.000000)" font-size="64" font-family="PingFang SC" fill="#5B5B5B" sketch:type="MSTextLayer" font-weight="normal">
                    <text id="Ant-Visualization-">
                        <tspan x="0" y="68">Ant Visualization </tspan>
                    </text>
                </g>
                <path d="M29.98,230.748 L29.98,233.268 L54.748,233.268 L54.748,257.1 C54.748,258.324 54.136,258.972 52.984,258.972 C51.184,258.972 49.276,258.9 47.296,258.828 L47.872,261.348 L53.884,261.348 C56.188,261.348 57.34,260.124 57.34,257.748 L57.34,233.268 L62.092,233.268 L62.092,230.748 L29.98,230.748 Z M48.16,238.776 L34.156,238.776 L34.156,255.156 L36.676,255.156 L36.676,251.988 L48.16,251.988 L48.16,238.776 Z M36.676,249.612 L36.676,241.116 L45.676,241.116 L45.676,249.612 L36.676,249.612 Z M70.876,246.66 L70.876,261.6 L73.432,261.6 L73.432,246.372 C74.728,247.38 76.06,248.604 77.356,250.044 L78.832,247.812 C77.248,246.264 75.448,244.86 73.468,243.636 C75.412,241.08 76.852,238.488 77.788,235.86 L77.788,233.664 L73.288,233.664 L74.332,233.268 C73.828,231.756 73.144,230.064 72.28,228.264 L69.796,228.984 C70.624,230.496 71.344,232.044 71.956,233.664 L66.34,233.664 L66.34,236.148 L75.196,236.148 C73.576,240.108 70.336,244.14 65.512,248.28 L66.304,250.98 C67.96,249.54 69.508,248.1 70.876,246.66 L70.876,246.66 Z M95.752,230.028 L80.452,230.028 L80.452,249.936 L83.008,249.936 L83.008,232.512 L93.124,232.512 L93.124,249.936 L95.752,249.936 L95.752,230.028 Z M94.996,261.024 C96.112,261.024 96.94,260.736 97.48,260.196 C98.056,259.548 98.452,257.712 98.668,254.76 L96.256,254.004 C96.148,256.236 95.932,257.604 95.644,258.072 C95.428,258.432 95.068,258.648 94.528,258.648 L92.296,258.648 C91.504,258.648 91.108,258.216 91.108,257.352 L91.108,249.864 L88.588,249.864 L88.588,257.892 C88.588,259.98 89.56,261.024 91.54,261.024 L94.996,261.024 Z M86.752,235.068 L86.752,241.944 C86.68,246.48 85.924,250.188 84.556,252.996 C83.08,255.732 80.452,257.892 76.672,259.548 L78.076,261.816 C81.964,260.16 84.736,257.82 86.464,254.832 C88.192,251.628 89.128,247.344 89.272,241.944 L89.272,235.068 L86.752,235.068 Z M112.492,228.336 C110.188,234.024 106.48,239.064 101.368,243.456 L102.196,246.156 C104.104,244.572 105.868,242.88 107.488,241.116 L107.488,261.672 L110.08,261.672 L110.08,237.948 C112.024,235.284 113.644,232.476 114.904,229.452 L112.492,228.336 Z M129.088,261.024 C130.816,261.024 132.004,260.592 132.652,259.728 C133.264,258.864 133.696,256.344 133.948,252.204 L131.536,251.412 C131.392,254.976 131.14,257.064 130.744,257.64 C130.312,258.216 129.592,258.54 128.656,258.54 L122.824,258.54 C121.6,258.54 121.024,257.964 121.024,256.848 L121.024,244.68 C125.488,241.872 129.412,238.668 132.76,235.068 L130.96,233.016 C128.116,236.22 124.804,239.1 121.024,241.62 L121.024,228.768 L118.432,228.768 L118.432,243.204 C116.596,244.284 114.652,245.256 112.636,246.192 L113.788,248.64 C115.372,247.884 116.92,247.092 118.432,246.228 L118.432,257.208 C118.432,259.728 119.692,261.024 122.212,261.024 L129.088,261.024 Z M149.788,230.064 L149.788,232.44 L156.844,232.44 L155.98,236.436 L150.652,236.436 L150.652,238.776 L155.476,238.776 L154.468,243.528 L148.852,243.528 L148.852,245.94 L170.596,245.94 L170.596,243.528 L167.212,243.528 L167.212,236.436 L158.572,236.436 L159.436,232.44 L169.48,232.44 L169.48,230.064 L149.788,230.064 Z M157.06,243.528 L158.068,238.776 L164.62,238.776 L164.62,243.528 L157.06,243.528 Z M168.22,249.216 L151.588,249.216 L151.588,261.672 L154.144,261.672 L154.144,259.944 L165.664,259.944 L165.664,261.672 L168.22,261.672 L168.22,249.216 Z M154.144,257.496 L154.144,251.592 L165.664,251.592 L165.664,257.496 L154.144,257.496 Z M141.976,229.092 L140.176,230.856 C142.66,232.728 144.604,234.456 146.044,236.112 L147.844,234.348 C146.26,232.584 144.28,230.82 141.976,229.092 L141.976,229.092 Z M137.512,239.604 L137.512,242.088 L142.804,242.088 L142.804,256.452 C142.804,257.028 142.516,257.532 142.012,258 L143.02,260.304 C145.396,258.684 147.592,256.848 149.68,254.76 L148.996,252.024 C147.664,253.356 146.44,254.544 145.288,255.552 L145.288,239.604 L137.512,239.604 Z M173.872,233.16 L173.872,235.608 L206.164,235.608 L206.164,233.16 L190.432,233.16 L191.872,232.62 C191.44,231.324 190.828,229.884 190.036,228.3 L187.336,229.056 C188.092,230.352 188.74,231.72 189.316,233.16 L173.872,233.16 Z M178.516,238.74 L178.516,241.08 L201.52,241.08 L201.52,238.74 L178.516,238.74 Z M178.516,244.248 L178.516,246.588 L201.52,246.588 L201.52,244.248 L178.516,244.248 Z M202.096,250.044 L177.904,250.044 L177.904,261.672 L180.424,261.672 L180.424,259.944 L199.576,259.944 L199.576,261.672 L202.096,261.672 L202.096,250.044 Z M180.424,257.496 L180.424,252.492 L199.576,252.492 L199.576,257.496 L180.424,257.496 Z" id="可视化语言" fill="#929292" sketch:type="MSShapeGroup"></path>
            </g>
        </g>
    </g>
</svg>