<?xml version="1.0" encoding="UTF-8" standalone="no"?>
<svg width="133px" height="47px" viewBox="0 0 133 47" version="1.1" xmlns="http://www.w3.org/2000/svg" xmlns:xlink="http://www.w3.org/1999/xlink">
    <!-- Generator: Sketch Beta 3.6 (26304) - http://www.bohemiancoding.com/sketch -->
    <title>iconfont-zhifubao</title>
    <desc>Created with Sketch Beta.</desc>
    <defs></defs>
    <g id="web-site" stroke="none" stroke-width="1" fill="none" fill-rule="evenodd">
        <g id="Desktop-HD-Copy-7" transform="translate(-290.000000, -4301.000000)" fill="#B9C1C9">
            <g id="Group-6-Copy" transform="translate(0.000000, 4239.000000)">
                <g id="Group-30">
                    <g id="Group-18" transform="translate(290.000000, 58.000000)">
                        <g id="iconfont-zhifubao" transform="translate(0.000000, 4.000000)">
                            <g id="图形">
                                <path d="M11.3126938,25.067748 C10.1358012,25.1842363 7.92686423,25.7045506 6.71893264,26.7702026 C3.09772449,29.9197005 5.26441405,35.6802615 12.5913252,35.6802615 C16.8496935,35.6802615 21.1063374,32.9622017 24.4490574,28.6124431 C19.6949285,26.2964836 15.6650412,24.6388986 11.3126938,25.067748" id="Shape"></path>
                                <path d="M38.7762416,29.5112266 C45.5582472,31.7780021 47.0963984,31.8996677 47.0963984,31.8996677 L47.0963984,7.52945714 C47.0963984,3.37039419 43.7226395,0 39.5548014,0 L7.54418363,0 C3.37548331,0 0,3.37039419 0,7.52945714 L0,39.4714058 C0,43.628743 3.37548331,47 7.54418363,47 L39.5548014,47 C43.7226395,47 47.0963984,43.6296059 47.0963984,39.4714058 L47.0963984,39.163359 C47.0963984,39.163359 34.8463686,34.0672126 28.660138,31.0989187 C24.5121303,36.1916136 19.1596398,39.2841617 13.6036719,39.2841617 C4.20663677,39.2841617 1.01566262,31.0782097 5.46457549,25.6757422 C6.43540413,24.499642 8.08564043,23.3744516 10.6472141,22.7436891 C14.6529601,21.7617361 21.0305973,23.357194 27.006453,25.3254145 C28.0807447,23.3485653 28.9851845,21.1732546 29.659419,18.8555693 L11.2412647,18.8555692 L11.2412647,16.9934825 L20.737452,16.9934825 L20.737452,13.6567405 L9.23580512,13.6567405 L9.23580512,11.793791 L20.737452,11.793791 L20.737452,7.03330334 C20.737452,7.03330334 20.737452,6.23082855 21.5522238,6.23082855 L26.1934056,6.23082855 L26.1934056,11.793791 L37.5657235,11.793791 L37.5657235,13.6567405 L26.1934056,13.6567405 L26.1934056,16.9934825 L35.4766313,16.9934825 C34.5885731,20.6244653 33.2383798,23.9672474 31.5458961,26.9018891 C34.3626787,27.9183572 36.8923512,28.8821899 38.7762416,29.5112266" id="Shape"></path>
                                <path d="M113.814482,7.30143752 L127.296585,7.30143752 L127.296585,9.97203916 L132.111068,9.97203916 L132.111068,7.30143752 L132.111068,6.80787235 C132.109343,6.80010647 132.109343,6.79751784 132.109343,6.78888907 C132.109343,6.07787913 131.552367,5.50234077 130.862613,5.49026048 L123.070118,5.49026048 L123.070118,3 L118.031466,3 L118.031466,5.49026048 L109,5.49026048 L109,6.3962804 L109,7.30143748 L109,9.97203912 L113.814482,9.97203912 L113.814482,7.30143752 L113.814482,7.30143752 Z" id="Shape"></path>
                                <path d="M84.9369138,3 L80,14.6842057 L83.7867491,14.6842057 L83.7867491,28.5885917 L87.9278593,28.5885917 L87.9278593,10.1454772 L86.4285067,10.1454772 L89.5479188,3 L84.9369138,3 Z" id="Shape"></path>
                                <path d="M132.663733,28.5594558 L131.150585,23.4460519 C131.051433,23.1198847 130.754839,22.8834566 130.404789,22.8825937 L126.396456,22.8825937 L127.55783,26.8104059 L122.845086,26.8104059 L122.845086,19.2032899 L132.100721,19.2032899 L132.100721,17.3912501 L122.845086,17.3912501 L122.845086,13.811177 L132.100721,13.811177 L132.100721,12 L122.845086,12 L118.255636,12 L109,12 L109,13.811177 L118.254773,13.811177 L118.254773,17.3912501 L109,17.3912501 L109,19.2032899 L118.254773,19.2032899 L118.254773,26.8104059 L109,26.8104059 L109,28.6224458 L132.663733,28.6224458 L132.644765,28.5603187 L132.663733,28.5603187 L132.663733,28.5594558 Z" id="Shape"></path>
                                <path d="M95.4368422,12.5453377 C95.279061,12.2243478 94.9574632,12.0025886 94.5849961,12 L91,12 L93.7917791,20.8013365 L98.0337657,20.8013365 L95.4368422,12.5453377 L95.4368422,12.5453377 Z" id="Shape"></path>
                                <path d="M104.911618,3 L100.607553,3 L100.607553,7.50076191 L90,7.50076191 L90,9.3119389 L100.607553,9.3119389 L100.607553,25.4917292 C100.570479,25.8610402 100.279058,26.1509666 99.9126262,26.1699499 L97.7261063,26.1699499 L97.7261063,28.0449797 L103.303629,28.0449797 C104.185652,28.0078761 104.89265,27.2744313 104.911618,26.3666856 L104.911618,26.1699499 L104.911618,9.3119389 L106.659282,9.3119389 L106.659282,7.50076191 L104.911618,7.50076191 L104.911618,3 L104.911618,3 Z" id="Shape"></path>
                                <path d="M78.0739934,11.56836 L69.8064303,11.56836 L69.8064303,8.60351758 L79.3922856,8.60351758 L79.3922856,6.75696267 L69.8064303,6.75696267 L69.8064303,3 L65.5334047,3 L65.5325425,3.00086289 C65.064372,3.00086289 64.6858696,3.39260867 64.6858696,3.87754503 L64.6858696,3.87840792 L64.6858696,6.75696272 L55.1672653,6.75696272 L55.1672653,8.60351763 L64.6858696,8.60351763 L64.6858696,11.56836 L56.6519607,11.56836 L56.6519607,13.414052 L72.6542519,13.414052 C72.6542519,13.414052 71.7679181,16.8784997 67.3784965,20.6026731 C63.4460369,17.6231618 62.1311934,15.2502524 62.1311934,15.2502524 L57.8383374,15.2502524 C59.5747929,18.262553 62.0432498,20.6751547 64.7005268,22.5890139 C62.2596601,24.176706 59.0936896,25.7074483 55,26.9310066 L55,29.1425582 C55,29.1425582 61.3155594,27.9500633 67.4190196,24.351007 C73.5319638,27.9215884 79.671636,29.1425582 79.671636,29.1425582 L79.671636,27.0492207 C75.7426251,25.6177092 72.6292483,24.0438231 70.1840707,22.5242982 C73.7268192,19.9002919 76.8298497,16.3357506 78.0739934,11.56836" id="Shape"></path>
                                <path d="M63.6914754,41.5640456 L64.4062329,43.7238246 L66.409968,43.7238246 L62.4637133,33 L60.9315974,33 L57,43.7238246 L59.0045974,43.7238246 L59.7503938,41.5640456 L63.6914754,41.5640456 L63.6914754,41.5640456 Z M61.7532668,35.7637922 L63.2353756,40.2110558 L60.2177021,40.2110558 L61.7532668,35.7637922 L61.7532668,35.7637922 Z" id="Shape"></path>
                                <path d="M73,33 L73,43.7238245 L79.4871357,43.7238245 L79.4871357,42.2638382 L74.927,42.2638382 L74.927,33 L73,33 Z" id="Shape"></path>
                                <path d="M87,33 L88.9287244,33 L88.9287244,43.7229617 L87,43.7229617 L87,33 L87,33 Z" id="Shape"></path>
                                <path d="M100.164389,33 L96,33 L96,43.7238246 L97.927,43.7238246 L97.927,39.6018653 L100.164389,39.6018653 C102.242273,39.6018653 103.694205,38.2445611 103.694205,36.3013641 C103.694205,34.358167 102.242273,33 100.164389,33 M100.056615,38.1280728 L97.927,38.1280728 L97.927,34.4591235 L100.056615,34.4591235 C101.125734,34.4591235 101.764618,35.3953441 101.764618,36.3013641 C101.764618,37.186675 101.166257,38.1280728 100.056615,38.1280728" id="Shape"></path>
                                <path d="M115.691475,41.5640456 L116.406233,43.7238246 L118.409968,43.7238246 L114.462851,33 L112.931597,33 L109,43.7238246 L111.00546,43.7238246 L111.749532,41.5640456 L115.691475,41.5640456 L115.691475,41.5640456 Z M113.753267,35.7637922 L115.235376,40.2110558 L112.217702,40.2110558 L113.753267,35.7637922 L113.753267,35.7637922 Z" id="Shape"></path>
                                <path d="M129.31987,33 L127.216983,37.5689291 L125.083057,33 L123,33 L126.24443,39.3188419 L126.24443,43.7238245 L128.157635,43.7238245 L128.157635,39.3188419 L128.169706,39.2946814 L131.402927,33 L129.31987,33 Z" id="Shape"></path>
                            </g>
                        </g>
                    </g>
                </g>
            </g>
        </g>
    </g>
</svg>