<?xml version="1.0" encoding="UTF-8" standalone="no"?>
<svg width="154px" height="19px" viewBox="0 0 154 19" version="1.1" xmlns="http://www.w3.org/2000/svg" xmlns:xlink="http://www.w3.org/1999/xlink">
    <!-- Generator: Sketch Beta 3.8 (29658) - http://www.bohemiancoding.com/sketch -->
    <title>antuedlogo</title>
    <desc>Created with Sketch Beta.</desc>
    <defs></defs>
    <g id="web-site" stroke="none" stroke-width="1" fill="none" fill-rule="evenodd">
        <g id="Desktop-HD-Copy-7" transform="translate(-996.000000, -4438.000000)">
            <g id="footer" transform="translate(0.000000, 4411.000000)">
                <g id="antuedlogo" transform="translate(996.000000, 27.000000)">
                    <g id="Group" transform="translate(116.000000, 0.000000)" fill="#7D8893">
                        <path d="M2.03793911,6.35163189 L2.03793911,6.35163189 C2.7765808,6.40530765 3.35503513,7.02257892 3.35503513,7.77403959 C3.35503513,8.04241841 3.27494145,8.2929053 3.15035129,8.50760835 C2.73208431,9.41115035 2.50070258,10.4220439 2.50070258,11.4866132 C2.50070258,15.4317817 5.68665105,18.6344355 9.61124122,18.6344355 C10.3943794,18.6344355 11.0351288,17.9903264 11.0351288,17.2030819 C11.0351288,16.4158373 10.3943794,15.7717282 9.61124122,15.7717282 C7.2529274,15.7717282 5.34847775,13.8483467 5.34847775,11.4866132 C5.34847775,9.12487961 7.2618267,7.20149813 9.61124122,7.20149813 C11.9606557,7.20149813 13.8740047,9.12487961 13.8740047,11.4866132 L13.8740047,17.2030819 C13.8740047,17.9903264 14.5147541,18.6344355 15.2978923,18.6344355 C16.0810304,18.6344355 16.7217799,17.9903264 16.7217799,17.2030819 L16.7217799,11.3613697 L16.7217799,11.3613697 C16.6594848,7.46987694 13.5002342,4.3387908 9.61124122,4.3387908 C7.9470726,4.3387908 6.41639344,4.92027822 5.20608899,5.88644195 C5.12599532,5.96695559 5.04590164,6.03852327 4.94800937,6.101145 C4.93911007,6.11009096 4.93911007,6.11009096 4.93021077,6.11903692 L4.93021077,6.11903692 C4.71662763,6.25322632 4.46744731,6.32479401 4.20936768,6.32479401 C3.55971897,6.32479401 3.01686183,5.87749599 2.86557377,5.26917068 C2.87447307,5.197603 2.88337237,5.12603531 2.88337237,5.05446763 C2.88337237,4.26722311 2.24262295,3.62311396 1.45948478,3.62311396 C0.676346604,3.62311396 0.0355971897,4.26722311 0.0355971897,5.05446763 C0.0355971897,5.84171215 0.676346604,6.48582129 1.45948478,6.48582129 C1.66416862,6.48582129 1.85995316,6.43214553 2.03793911,6.35163189 L2.03793911,6.35163189 Z" id="Shape"></path>
                        <ellipse id="Oval" cx="9.46885246" cy="11.4955591" rx="1.42388759" ry="1.43135367"></ellipse>
                        <path d="M36.5494145,18.6433815 L36.6206089,18.6433815 L36.6206089,18.6165436 C37.3770492,18.5897057 37.9822014,17.9545425 37.9822014,17.176244 C37.9822014,16.3979454 37.3770492,15.7627822 36.6206089,15.7359444 L36.6206089,15.7269984 C35.4370023,15.6912146 34.4758782,14.7876726 34.3601874,13.6336437 L34.3512881,13.6336437 L34.3512881,7.18360621 L36.6295082,7.18360621 L36.6295082,7.18360621 C37.3859485,7.15676833 37.9911007,6.52160514 37.9911007,5.74330658 C37.9911007,4.96500803 37.3859485,4.32984484 36.6295082,4.30300696 L36.6295082,4.30300696 L34.3512881,4.30300696 L34.3512881,1.49397539 L34.3423888,1.49397539 L34.3423888,1.45819155 C34.3423888,0.66200107 33.7105386,0.0178919208 32.9274005,0.0178919208 C32.1442623,0.0178919208 31.5124122,0.66200107 31.5124122,1.45819155 L31.5124122,1.49397539 L31.5035129,1.49397539 L31.5035129,13.6425896 L31.5035129,13.6425896 C31.5836066,16.4158373 33.8084309,18.6433815 36.5494145,18.6433815 L36.5494145,18.6433815 Z" id="Shape"></path>
                        <path d="M19.8454333,18.6433815 C20.6285714,18.6433815 21.2693208,17.9992723 21.2693208,17.2120278 L21.2693208,10.0642055 L21.2782201,10.0642055 C21.3494145,8.55233815 22.5953162,7.34463349 24.117096,7.34463349 C25.6388759,7.34463349 26.8758782,8.55233815 26.9559719,10.0642055 L26.9648712,10.0642055 L26.9648712,17.2120278 C26.9648712,17.9992723 27.6056206,18.6433815 28.3887588,18.6433815 C29.171897,18.6433815 29.8126464,17.9992723 29.8126464,17.2120278 L29.8126464,10.0642055 L29.8126464,10.0642055 C29.7325527,6.96890316 27.2229508,4.49087212 24.1259953,4.49087212 C21.0290398,4.49087212 18.5194379,6.97784912 18.4393443,10.0642055 L18.4393443,10.0642055 L18.4393443,17.2120278 C18.4215457,17.9992723 19.0622951,18.6433815 19.8454333,18.6433815 L19.8454333,18.6433815 Z" id="Shape"></path>
                    </g>
                    <path d="M6.6,8.116 L5.916,12.268 L10.344,12.268 C10.344,14.152 10.236,15.292 10.044,15.688 C9.876,16.072 9.324,16.264 8.388,16.264 C8.208,16.264 7.884,16.228 7.416,16.168 L7.668,17.044 C8.004,17.068 8.316,17.092 8.604,17.092 C9.66,17.092 10.344,16.864 10.68,16.432 C10.992,15.988 11.16,14.332 11.16,11.464 L9.9,11.464 L10.56,6.724 L5.676,6.724 L5.676,7.54 L9.612,7.54 L9.036,11.464 L6.828,11.464 L7.428,8.164 L6.6,8.116 Z M5.544,13.756 L5.544,14.548 L9.504,14.548 L9.504,13.756 L5.544,13.756 Z M2.532,6.148 L2.532,8.272 L0.912,8.272 L0.912,13.144 L2.52,13.144 L2.52,15.688 C1.848,15.844 1.176,15.976 0.48,16.096 L0.696,16.924 C2.124,16.636 3.48,16.288 4.752,15.868 C4.86,16.276 4.956,16.684 5.052,17.116 L5.82,16.912 C5.544,15.76 5.232,14.728 4.872,13.828 L4.176,14.044 C4.296,14.392 4.416,14.752 4.536,15.136 C4.152,15.256 3.756,15.364 3.36,15.472 L3.36,13.144 L5.016,13.144 L5.016,8.272 L3.408,8.272 L3.408,6.148 L2.532,6.148 Z M2.556,9.04 L2.556,12.376 L1.668,12.376 L1.668,9.04 L2.556,9.04 Z M3.324,12.376 L3.324,9.04 L4.26,9.04 L4.26,12.376 L3.324,12.376 Z M12.948,8.116 L12.948,12.976 L14.52,12.976 L14.52,15.568 C13.944,15.688 13.368,15.784 12.768,15.88 L12.972,16.708 C14.232,16.468 15.42,16.18 16.524,15.832 C16.596,16.144 16.68,16.48 16.752,16.816 L17.172,16.708 L17.496,17.224 C18.612,16.624 19.572,15.76 20.388,14.644 C21.156,15.7 22.044,16.552 23.064,17.2 L23.568,16.456 C22.548,15.832 21.648,14.98 20.868,13.9 C21.912,12.136 22.608,9.82 22.944,6.94 L22.128,6.772 C21.84,9.316 21.24,11.428 20.328,13.084 C19.416,11.584 18.708,9.712 18.204,7.468 L17.472,7.876 C18.048,10.24 18.84,12.232 19.86,13.852 C19.188,14.836 18.384,15.64 17.424,16.24 C17.196,15.328 16.944,14.512 16.668,13.792 L15.996,13.996 C16.116,14.356 16.224,14.716 16.332,15.1 C16.02,15.196 15.696,15.28 15.36,15.364 L15.36,12.976 L16.932,12.976 L16.932,8.116 L15.36,8.116 L15.36,6.28 L14.52,6.28 L14.52,8.116 L12.948,8.116 Z M16.188,12.208 L15.324,12.208 L15.324,8.884 L16.188,8.884 L16.188,12.208 Z M14.568,12.208 L13.704,12.208 L13.704,8.884 L14.568,8.884 L14.568,12.208 Z M19.452,6.532 L18.84,6.976 C19.476,7.744 20.004,8.464 20.412,9.136 L21.06,8.692 C20.688,8.068 20.148,7.348 19.452,6.532 L19.452,6.532 Z M26.856,9.628 L26.856,10.324 L29.58,10.324 L29.58,12.052 L25.296,12.052 L25.296,12.856 L29.58,12.856 L29.58,16.06 L28.2,16.06 C27.888,15.112 27.552,14.296 27.18,13.624 L26.4,13.912 C26.784,14.584 27.108,15.292 27.36,16.06 L24.876,16.06 L24.876,16.888 L35.136,16.888 L35.136,16.06 L32.652,16.06 C33.012,15.412 33.348,14.656 33.648,13.816 L32.856,13.54 C32.544,14.44 32.184,15.28 31.776,16.06 L30.444,16.06 L30.444,12.856 L34.716,12.856 L34.716,12.052 L30.444,12.052 L30.444,10.324 L33.168,10.324 L33.168,9.664 C33.72,9.988 34.308,10.288 34.944,10.552 L35.436,9.832 C33.204,8.896 31.512,7.72 30.36,6.292 L29.664,6.292 C28.344,7.744 26.64,8.932 24.552,9.868 L25.056,10.588 C25.68,10.3 26.28,9.976 26.856,9.628 L26.856,9.628 Z M32.964,9.544 L26.988,9.544 C28.104,8.86 29.112,8.044 30.012,7.108 C30.804,8.032 31.788,8.848 32.964,9.544 L32.964,9.544 Z M38.184,10.3 L40.116,10.3 L40.116,12.304 L38.184,12.304 L38.184,10.3 Z M40.116,9.52 L38.184,9.52 L38.184,7.492 L40.116,7.492 L40.116,9.52 Z M38.172,13.084 L40.116,13.084 L40.116,15.796 C40.116,16.228 39.96,16.444 39.66,16.444 C39.372,16.444 39.072,16.42 38.736,16.396 L38.94,17.164 L39.9,17.164 C40.572,17.164 40.908,16.792 40.908,16.072 L40.908,6.712 L37.404,6.712 L37.404,12.472 C37.392,14.152 37.152,15.544 36.672,16.624 L37.32,17.224 C37.812,16.144 38.1,14.764 38.172,13.084 L38.172,13.084 Z M42.732,11.896 L43.02,11.896 C43.284,13.072 43.8,14.128 44.568,15.064 C44.088,15.64 43.512,16.108 42.828,16.48 L43.284,17.176 C44.004,16.792 44.616,16.3 45.144,15.688 C45.696,16.228 46.344,16.72 47.112,17.164 L47.544,16.432 C46.812,16.012 46.176,15.544 45.636,15.016 C46.188,14.152 46.584,13.096 46.812,11.86 L46.812,11.128 L42.732,11.128 L42.732,7.492 L45.936,7.492 C45.912,8.404 45.864,8.992 45.78,9.256 C45.708,9.436 45.6,9.556 45.456,9.604 C45.312,9.64 45.108,9.664 44.82,9.664 C44.484,9.664 44.22,9.652 44.016,9.652 L44.244,10.396 L45.216,10.396 C45.972,10.396 46.416,10.144 46.56,9.652 C46.704,9.172 46.776,8.188 46.776,6.7 L41.916,6.7 L41.916,17.212 L42.732,17.212 L42.732,11.896 Z M43.764,11.896 L46.044,11.896 C45.828,12.844 45.504,13.672 45.06,14.392 C44.448,13.648 44.016,12.82 43.764,11.896 L43.764,11.896 Z M53.928,10.732 L53.928,17.212 L54.78,17.212 L54.78,9.34 C55.248,8.452 55.632,7.504 55.944,6.508 L55.164,6.148 C54.612,8.128 53.712,9.88 52.464,11.416 L52.716,12.28 C53.148,11.788 53.556,11.272 53.928,10.732 L53.928,10.732 Z M55.74,8.248 L55.74,9.088 L58.08,9.088 C57.504,11.296 56.556,13.096 55.212,14.488 L55.656,15.232 C57.132,13.636 58.176,11.584 58.776,9.088 L58.92,9.088 L58.92,13.9 L57.084,13.9 L57.084,14.728 L58.92,14.728 L58.92,17.2 L59.772,17.2 L59.772,14.728 L61.632,14.728 L61.632,13.9 L59.772,13.9 L59.772,9.088 L59.916,9.088 C60.468,11.308 61.488,13.312 62.952,15.088 L63.516,14.38 C62.124,12.832 61.152,11.068 60.6,9.088 L63.048,9.088 L63.048,8.248 L59.772,8.248 L59.772,6.184 L58.92,6.184 L58.92,8.248 L55.74,8.248 Z M70.392,9.724 L70.392,10.468 L73.764,10.468 L73.764,9.724 C74.172,10.168 74.628,10.588 75.144,10.984 L75.612,10.264 C74.124,9.112 73.068,7.78 72.468,6.244 L71.676,6.244 C70.956,7.912 69.912,9.268 68.568,10.312 L69.024,11.008 C69.504,10.636 69.96,10.204 70.392,9.724 L70.392,9.724 Z M73.728,9.676 L70.428,9.676 C71.052,8.956 71.592,8.092 72.072,7.084 C72.48,8.02 73.032,8.884 73.728,9.676 L73.728,9.676 Z M68.916,15.952 L68.916,16.78 L75.468,16.78 L75.468,15.952 L73.656,15.952 C74.136,14.632 74.532,13.12 74.868,11.416 L74.04,11.212 C73.68,13.096 73.272,14.68 72.816,15.952 L68.916,15.952 Z M70.02,11.56 L69.276,11.812 C69.696,12.892 70.044,14.008 70.308,15.184 L71.052,15.004 C70.74,13.708 70.404,12.556 70.02,11.56 L70.02,11.56 Z M71.868,11.212 L71.124,11.44 C71.484,12.472 71.772,13.552 71.988,14.668 L72.744,14.488 C72.48,13.252 72.192,12.16 71.868,11.212 L71.868,11.212 Z M67.572,7.54 L67.044,11.692 L65.628,11.692 L66.108,8.392 L65.316,8.344 L64.752,12.46 L67.812,12.46 C67.812,14.284 67.74,15.376 67.62,15.76 C67.5,16.12 67.152,16.312 66.576,16.312 C66.408,16.312 66.108,16.288 65.688,16.24 L65.916,17.008 C66.204,17.032 66.492,17.044 66.768,17.044 C67.524,17.044 68.016,16.828 68.256,16.42 C68.484,16 68.604,14.428 68.604,11.692 L67.86,11.692 L68.436,6.748 L64.668,6.748 L64.668,7.54 L67.572,7.54 Z M67.128,13.528 C66.336,13.816 65.4,14.044 64.344,14.224 L64.452,15.04 C65.448,14.848 66.336,14.608 67.128,14.308 L67.128,13.528 Z M77.892,17.068 C78.588,17.068 78.936,16.708 78.936,15.988 L78.936,12.544 C79.368,12.34 79.8,12.124 80.232,11.884 L80.232,11.044 C79.812,11.284 79.38,11.5 78.936,11.716 L78.936,9.232 L80.208,9.232 L80.208,8.404 L78.936,8.404 L78.936,6.208 L78.096,6.208 L78.096,8.404 L76.644,8.404 L76.644,9.232 L78.096,9.232 L78.096,12.064 C77.544,12.268 76.992,12.448 76.416,12.592 L76.632,13.444 C77.136,13.276 77.616,13.096 78.096,12.904 L78.096,15.772 C78.096,16.132 77.928,16.312 77.604,16.312 C77.316,16.312 77.016,16.288 76.704,16.252 L76.884,17.068 L77.892,17.068 Z M80.64,7.936 L80.64,8.764 L83.52,8.764 L83.52,10.72 L80.868,10.72 L80.868,11.536 L81.504,11.536 C81.84,12.772 82.5,13.876 83.508,14.86 C82.632,15.544 81.552,16.096 80.28,16.516 L80.688,17.236 C82.032,16.756 83.172,16.144 84.108,15.4 C84.924,16.072 85.944,16.684 87.144,17.212 L87.6,16.492 C86.46,16.024 85.488,15.484 84.696,14.872 C85.668,13.936 86.364,12.808 86.784,11.488 L86.784,10.72 L84.36,10.72 L84.36,8.764 L87.252,8.764 L87.252,7.936 L84.36,7.936 L84.36,6.232 L83.52,6.232 L83.52,7.936 L80.64,7.936 Z M82.308,11.536 L85.92,11.536 C85.524,12.616 84.912,13.552 84.084,14.356 C83.22,13.528 82.62,12.592 82.308,11.536 L82.308,11.536 Z M88.908,9.04 L88.908,9.868 L92.7,9.868 C91.848,12.052 90.444,13.84 88.5,15.232 L88.968,16 C91.104,14.416 92.628,12.364 93.516,9.868 L93.564,9.868 L93.564,17.176 L94.428,17.176 L94.428,9.868 L94.476,9.868 C95.292,12.1 96.756,14.128 98.868,15.928 L99.444,15.196 C97.464,13.636 96.084,11.86 95.292,9.868 L99.096,9.868 L99.096,9.04 L94.428,9.04 L94.428,6.172 L93.564,6.172 L93.564,9.04 L88.908,9.04 Z M96.36,6.196 L95.688,6.616 C96.384,7.348 96.924,8.02 97.332,8.632 L98.016,8.14 C97.632,7.588 97.08,6.94 96.36,6.196 L96.36,6.196 Z M102.252,8.644 L101.46,8.932 C101.76,9.46 102.012,10.036 102.228,10.66 L100.608,10.66 L100.608,11.5 L106.62,11.5 L106.62,10.66 L105.168,10.66 C105.48,10.12 105.756,9.508 106.008,8.824 L105.204,8.548 C104.964,9.292 104.664,10 104.316,10.66 L103.056,10.66 C102.816,9.868 102.54,9.196 102.252,8.644 L102.252,8.644 Z M107.172,6.7 L107.172,17.176 L108.012,17.176 L108.012,7.492 L110.16,7.492 C109.776,8.788 109.38,9.916 108.984,10.864 C109.92,12.016 110.4,12.94 110.412,13.648 C110.4,14.08 110.34,14.368 110.22,14.524 C110.1,14.668 109.824,14.752 109.392,14.776 C109.164,14.776 108.888,14.752 108.552,14.728 L108.828,15.64 C109.812,15.64 110.472,15.484 110.808,15.196 C111.12,14.908 111.276,14.392 111.276,13.648 C111.264,12.928 110.808,11.992 109.908,10.864 C110.34,9.784 110.736,8.608 111.108,7.348 L111.108,6.7 L107.172,6.7 Z M100.836,7.36 L100.836,8.2 L106.536,8.2 L106.536,7.36 L104.088,7.36 C103.956,6.904 103.824,6.484 103.692,6.124 L102.804,6.28 C102.96,6.604 103.104,6.964 103.248,7.36 L100.836,7.36 Z M106.068,12.592 L101.292,12.592 L101.292,17.116 L102.144,17.116 L102.144,16.444 L105.216,16.444 L105.216,17.116 L106.068,17.116 L106.068,12.592 Z M102.144,15.628 L102.144,13.408 L105.216,13.408 L105.216,15.628 L102.144,15.628 Z" id="蚂蚁金服-体验技术部" fill="#818B96"></path>
                </g>
            </g>
        </g>
    </g>
</svg>