<?xml version="1.0" encoding="UTF-8" standalone="no"?>
<svg width="585px" height="160px" viewBox="0 0 585 160" version="1.1" xmlns="http://www.w3.org/2000/svg" xmlns:xlink="http://www.w3.org/1999/xlink">
    <!-- Generator: Sketch Beta 3.6 (26304) - http://www.bohemiancoding.com/sketch -->
    <title>Group 44</title>
    <desc>Created with Sketch Beta.</desc>
    <defs></defs>
    <g id="web-site" stroke="none" stroke-width="1" fill="none" fill-rule="evenodd">
        <g id="Desktop-HD-Copy-7" transform="translate(0.000000, -3649.000000)" stroke="#162F45" fill="#152A3D">
            <g id="Group-35" transform="translate(0.000000, 2951.000000)">
                <g id="Path-138-Copy-+-Path-138-Mask">
                    <g id="Group-25" transform="translate(-1.000000, -15.000000)">
                        <g id="Group-44" transform="translate(0.000000, 710.000000)">
                            <polygon id="Polygon-25" fill-opacity="0.29517663" transform="translate(81.500000, 172.500000) rotate(-270.000000) translate(-81.500000, -172.500000) " points="81.5 140 109.645826 156.25 109.645826 188.75 81.5 205 53.3541744 188.75 53.3541744 156.25 "></polygon>
                            <polygon id="Polygon-25-Copy" fill-opacity="0.29517663" transform="translate(130.500000, 144.500000) rotate(-270.000000) translate(-130.500000, -144.500000) " points="130.5 112 158.645826 128.25 158.645826 160.75 130.5 177 102.354174 160.75 102.354174 128.25 "></polygon>
                            <polygon id="Polygon-25-Copy-2" fill-opacity="0.29517663" transform="translate(130.500000, 88.500000) rotate(-270.000000) translate(-130.500000, -88.500000) " points="130.5 56 158.645826 72.25 158.645826 104.75 130.5 121 102.354174 104.75 102.354174 72.25 "></polygon>
                            <polygon id="Polygon-25-Copy-19" fill-opacity="0.29517663" transform="translate(81.500000, 60.500000) rotate(-270.000000) translate(-81.500000, -60.500000) " points="81.5 28 109.645826 44.25 109.645826 76.75 81.5 93 53.3541744 76.75 53.3541744 44.25 "></polygon>
                            <polygon id="Polygon-25-Copy-20" fill-opacity="0.29517663" transform="translate(130.500000, 32.500000) rotate(-270.000000) translate(-130.500000, -32.500000) " points="130.5 0 158.645826 16.25 158.645826 48.75 130.5 65 102.354174 48.75 102.354174 16.25 "></polygon>
                            <polygon id="Polygon-25-Copy-3" fill-opacity="0.577587183" transform="translate(179.500000, 116.500000) rotate(-270.000000) translate(-179.500000, -116.500000) " points="179.5 84 207.645826 100.25 207.645826 132.75 179.5 149 151.354174 132.75 151.354174 100.25 "></polygon>
                            <polygon id="Polygon-25-Copy-4" fill-opacity="0.29517663" transform="translate(179.500000, 172.500000) rotate(-270.000000) translate(-179.500000, -172.500000) " points="179.5 140 207.645826 156.25 207.645826 188.75 179.5 205 151.354174 188.75 151.354174 156.25 "></polygon>
                            <polygon id="Polygon-25-Copy-5" fill-opacity="0.29517663" transform="translate(228.500000, 144.500000) rotate(-270.000000) translate(-228.500000, -144.500000) " points="228.5 112 256.645826 128.25 256.645826 160.75 228.5 177 200.354174 160.75 200.354174 128.25 "></polygon>
                            <polygon id="Polygon-25-Copy-6" fill-opacity="0.29517663" transform="translate(277.500000, 116.500000) rotate(-270.000000) translate(-277.500000, -116.500000) " points="277.5 84 305.645826 100.25 305.645826 132.75 277.5 149 249.354174 132.75 249.354174 100.25 "></polygon>
                            <polygon id="Polygon-25-Copy-7" fill-opacity="0.29517663" transform="translate(277.500000, 172.500000) rotate(-270.000000) translate(-277.500000, -172.500000) " points="277.5 140 305.645826 156.25 305.645826 188.75 277.5 205 249.354174 188.75 249.354174 156.25 "></polygon>
                            <polygon id="Polygon-25-Copy-8" fill-opacity="0.29517663" transform="translate(326.500000, 144.500000) rotate(-270.000000) translate(-326.500000, -144.500000) " points="326.5 112 354.645826 128.25 354.645826 160.75 326.5 177 298.354174 160.75 298.354174 128.25 "></polygon>
                            <polygon id="Polygon-25-Copy-18" fill-opacity="0.29517663" transform="translate(32.500000, 144.500000) rotate(-270.000000) translate(-32.500000, -144.500000) " points="32.5 112 60.6458256 128.25 60.6458256 160.75 32.5 177 4.35417438 160.75 4.35417438 128.25 "></polygon>
                            <polygon id="Polygon-25-Copy-9" fill-opacity="0.577587183" transform="translate(458.500000, 170.500000) rotate(-270.000000) translate(-458.500000, -170.500000) " points="458.5 138 486.645826 154.25 486.645826 186.75 458.5 203 430.354174 186.75 430.354174 154.25 "></polygon>
                            <polygon id="Polygon-25-Copy-10" fill-opacity="0.29517663" transform="translate(507.500000, 142.500000) rotate(-270.000000) translate(-507.500000, -142.500000) " points="507.5 110 535.645826 126.25 535.645826 158.75 507.5 175 479.354174 158.75 479.354174 126.25 "></polygon>
                            <polygon id="Polygon-25-Copy-12" fill-opacity="0.577587183" transform="translate(375.500000, 116.500000) rotate(-270.000000) translate(-375.500000, -116.500000) " points="375.5 84 403.645826 100.25 403.645826 132.75 375.5 149 347.354174 132.75 347.354174 100.25 "></polygon>
                            <polygon id="Polygon-25-Copy-13" fill-opacity="0.29517663" transform="translate(556.500000, 170.500000) rotate(-270.000000) translate(-556.500000, -170.500000) " points="556.5 138 584.645826 154.25 584.645826 186.75 556.5 203 528.354174 186.75 528.354174 154.25 "></polygon>
                        </g>
                    </g>
                </g>
            </g>
        </g>
    </g>
</svg>