<?xml version="1.0" encoding="UTF-8" standalone="no"?>
<svg width="170px" height="185px" viewBox="0 0 170 185" version="1.1" xmlns="http://www.w3.org/2000/svg" xmlns:xlink="http://www.w3.org/1999/xlink">
    <!-- Generator: Sketch Beta 3.7.2 (28276) - http://www.bohemiancoding.com/sketch -->
    <title>Group 23</title>
    <desc>Created with Sketch Beta.</desc>
    <defs>
        <path d="M10,40 L10,10 L40,10 C40,4.4771525 44.4771525,0 50,0 C55.5228475,0 60,4.4771525 60,10 L90,10 L90,40 C84.4771525,40 80,44.4771525 80,50 C80,55.5228475 84.4771525,60 90,60 L90,90 L60,90 C60,84.4771525 55.5228475,80 50,80 C44.4771525,80 40,84.4771525 40,90 L30.0067744,90 C18.957338,90 10,81.0365343 10,69.9932256 L10,60 C4.4771525,60 0,55.5228475 0,50 C0,44.4771525 4.4771525,40 10,40 Z" id="path-1"></path>
        <rect id="path-3" x="32" y="35" width="9" height="9" rx="100"></rect>
        <mask id="mask-4" maskContentUnits="userSpaceOnUse" maskUnits="objectBoundingBox" x="0" y="0" width="9" height="9" fill="white">
            <use xlink:href="#path-3"></use>
        </mask>
        <rect id="path-5" x="80" y="68" width="11" height="5" rx="100"></rect>
        <mask id="mask-6" maskContentUnits="userSpaceOnUse" maskUnits="objectBoundingBox" x="0" y="0" width="11" height="5" fill="white">
            <use xlink:href="#path-5"></use>
        </mask>
        <rect id="path-7" x="80" y="74" width="11" height="5" rx="100"></rect>
        <mask id="mask-8" maskContentUnits="userSpaceOnUse" maskUnits="objectBoundingBox" x="0" y="0" width="11" height="5" fill="white">
            <use xlink:href="#path-7"></use>
        </mask>
        <rect id="path-9" x="80" y="80" width="11" height="5" rx="100"></rect>
        <mask id="mask-10" maskContentUnits="userSpaceOnUse" maskUnits="objectBoundingBox" x="0" y="0" width="11" height="5" fill="white">
            <use xlink:href="#path-9"></use>
        </mask>
        <rect id="path-11" x="80" y="86" width="11" height="5" rx="100"></rect>
        <mask id="mask-12" maskContentUnits="userSpaceOnUse" maskUnits="objectBoundingBox" x="0" y="0" width="11" height="5" fill="white">
            <use xlink:href="#path-11"></use>
        </mask>
        <path d="M90,135 L90,105 L120,105 C120,99.4771525 124.477153,95 130,95 C135.522847,95 140,99.4771525 140,105 L170,105 L170,135 C164.477153,135 160,139.477153 160,145 C160,150.522847 164.477153,155 170,155 L170,164.993226 C170,176.042662 161.036534,185 149.993226,185 L140,185 C140,179.477153 135.522847,175 130,175 C124.477153,175 120,179.477153 120,185 L90,185 L90,155 C84.4771525,155 80,150.522847 80,145 C80,139.477153 84.4771525,135 90,135 Z" id="path-13"></path>
        <mask id="mask-14" maskContentUnits="userSpaceOnUse" maskUnits="objectBoundingBox" x="0" y="0" width="90" height="90" fill="white">
            <use xlink:href="#path-13"></use>
        </mask>
        <path d="M90,40 L90,10 L120,10 C120,4.4771525 124.477153,0 130,0 C135.522847,0 140,4.4771525 140,10 L149.993226,10 C161.042662,10 170,18.9634657 170,30.0067744 L170,40 C164.477153,40 160,44.4771525 160,50 C160,55.5228475 164.477153,60 170,60 L170,90 L140,90 C140,84.4771525 135.522847,80 130,80 C124.477153,80 120,84.4771525 120,90 L90,90 L90,60 C84.4771525,60 80,55.5228475 80,50 C80,44.4771525 84.4771525,40 90,40 Z" id="path-15"></path>
        <mask id="mask-16" maskContentUnits="userSpaceOnUse" maskUnits="objectBoundingBox" x="0" y="0" width="90" height="90" fill="white">
            <use xlink:href="#path-15"></use>
        </mask>
    </defs>
    <g id="web-site" stroke="none" stroke-width="1" fill="none" fill-rule="evenodd">
        <g id="Desktop-HD-Copy-7" transform="translate(-299.000000, -1810.000000)">
            <g id="part2-copy" transform="translate(0.000000, 1550.000000)">
                <g id="Group-23" transform="translate(299.000000, 260.000000)">
                    <g id="Group-22" transform="translate(0.000000, 95.000000)">
                        <mask id="mask-2" fill="white">
                            <use xlink:href="#path-1"></use>
                        </mask>
                        <use id="Mask" fill="#43CBC6" xlink:href="#path-1"></use>
                        <g mask="url(#mask-2)">
                            <g transform="translate(4.000000, -4.000000)">
                                <g id="Group-21" stroke="none" stroke-width="1" fill="none" fill-rule="evenodd" transform="translate(3.000000, 13.000000)">
                                    <polyline id="Path-132" stroke="#82F6F1" points="22.6206353 0 22.4104769 13.691046 70.8445666 13.6200922"></polyline>
                                    <polyline id="Path-133" stroke="#82F6F1" points="18.4650715 35.5939849 18.4104765 52.4683937 0.367794137 52.4683937"></polyline>
                                    <circle id="Oval-322" stroke="#82F5F1" fill="#52D1CD" cx="70.5" cy="13.5" r="2.5"></circle>
                                    <circle id="Oval-322-Copy" stroke="#82F5F1" fill="#52D1CD" cx="18.5" cy="35.5" r="2.5"></circle>
                                    <polyline id="Path-134" stroke="#82F6F1" points="46.9630736 13.9082815 46.9630736 18.9238744 33.4443744 18.9238744 33.4443744 26.053437"></polyline>
                                </g>
                                <polyline id="Path-123" stroke="#25A6A1" stroke-width="3" fill="none" points="20.8525497 7.41157136 20.8525497 39.9450522 89.4520143 39.9450522"></polyline>
                                <use id="Rectangle-165" stroke="#82F5F1" mask="url(#mask-4)" stroke-width="2" fill="#52D1CD" fill-rule="evenodd" xlink:href="#path-3"></use>
                                <polyline id="Path-124" stroke="#25A6A1" stroke-width="3" fill="none" points="61.7554309 0.986438024 61.7554309 72.5178189 21.2469807 72.5178189 21.2469807 106.490495"></polyline>
                                <polyline id="Path-125" stroke="#25A6A1" stroke-width="3" fill="none" points="0 30 12.9282483 30 12.9282483 55.5296576 71.4193049 55.5296576 71.4193049 106.830601"></polyline>
                                <path d="M31.5,55.5 L31.5,60.5" id="Line" stroke="#26A6A1" stroke-width="1" stroke-linecap="square" fill="none"></path>
                                <path d="M38.5,55.5 L38.5,60.5" id="Line-Copy" stroke="#26A6A1" stroke-width="1" stroke-linecap="square" fill="none"></path>
                                <path d="M45.5,55.5 L45.5,60.5" id="Line-Copy-2" stroke="#26A6A1" stroke-width="1" stroke-linecap="square" fill="none"></path>
                                <path d="M31.5,67.5 L31.5,72.5" id="Line-Copy-3" stroke="#26A6A1" stroke-width="1" stroke-linecap="square" fill="none"></path>
                                <path d="M38.5,67.5 L38.5,72.5" id="Line-Copy-4" stroke="#26A6A1" stroke-width="1" stroke-linecap="square" fill="none"></path>
                                <path d="M45.5,67.5 L45.5,72.5" id="Line-Copy-5" stroke="#26A6A1" stroke-width="1" stroke-linecap="square" fill="none"></path>
                                <rect id="Rectangle-167" stroke="none" fill="#BDF4E1" fill-rule="evenodd" x="30" y="59" width="3" height="1"></rect>
                                <rect id="Rectangle-167-Copy" stroke="none" fill="#BDF4E1" fill-rule="evenodd" x="37" y="59" width="3" height="1"></rect>
                                <rect id="Rectangle-167-Copy-2" stroke="none" fill="#BDF4E1" fill-rule="evenodd" x="44" y="59" width="3" height="1"></rect>
                                <rect id="Rectangle-167-Copy-3" stroke="none" fill="#BDF4E1" fill-rule="evenodd" x="30" y="68" width="3" height="1"></rect>
                                <rect id="Rectangle-167-Copy-4" stroke="none" fill="#BDF4E1" fill-rule="evenodd" x="37" y="68" width="3" height="1"></rect>
                                <rect id="Rectangle-167-Copy-5" stroke="none" fill="#BDF4E1" fill-rule="evenodd" x="44" y="68" width="3" height="1"></rect>
                                <rect id="Rectangle-166" stroke="none" fill="#176461" fill-rule="evenodd" x="27" y="60" width="23" height="8" rx="1"></rect>
                                <use id="Rectangle-216" stroke="#82F5F1" mask="url(#mask-6)" stroke-width="2" fill="#43CBC6" fill-rule="evenodd" xlink:href="#path-5"></use>
                                <use id="Rectangle-216-Copy" stroke="#82F5F1" mask="url(#mask-8)" stroke-width="2" fill="#43CBC6" fill-rule="evenodd" xlink:href="#path-7"></use>
                                <use id="Rectangle-216-Copy-2" stroke="#82F5F1" mask="url(#mask-10)" stroke-width="2" fill="#43CBC6" fill-rule="evenodd" xlink:href="#path-9"></use>
                                <use id="Rectangle-216-Copy-3" stroke="#82F5F1" mask="url(#mask-12)" stroke-width="2" fill="#43CBC6" fill-rule="evenodd" xlink:href="#path-11"></use>
                            </g>
                        </g>
                    </g>
                    <use id="Rectangle-164-Copy" stroke="#2F3F50" mask="url(#mask-14)" stroke-width="2" fill="#162536" opacity="0.533232276" xlink:href="#path-13"></use>
                    <use id="Rectangle-164-Copy-2" stroke="#2C3F53" mask="url(#mask-16)" stroke-width="2" fill="#15283A" xlink:href="#path-15"></use>
                </g>
            </g>
        </g>
    </g>
</svg>