<?xml version="1.0" encoding="UTF-8" standalone="no"?>
<svg width="185px" height="159px" viewBox="0 0 185 159" version="1.1" xmlns="http://www.w3.org/2000/svg" xmlns:xlink="http://www.w3.org/1999/xlink">
    <!-- Generator: Sketch 3.7.2 (28276) - http://www.bohemiancoding.com/sketch -->
    <title>2</title>
    <desc>Created with Sketch.</desc>
    <defs></defs>
    <g id="web-site" stroke="none" stroke-width="1" fill="none" fill-rule="evenodd">
        <g id="Desktop-HD-Copy-7" transform="translate(0.000000, -4070.000000)">
            <g id="Group-31" transform="translate(-26.000000, 3819.000000)">
                <g id="合成-1_00000">
                    <g id="2" transform="translate(0.000000, 251.000000)">
                        <circle id="Oval-358-Copy-746" fill="#405669" cx="27.5" cy="157.5" r="1.5"></circle>
                        <circle id="Oval-358-Copy-747" fill="#405669" cx="209.5" cy="157.5" r="1.5"></circle>
                        <circle id="Oval-358-Copy-748" fill="#405669" cx="196.5" cy="157.5" r="1.5"></circle>
                        <circle id="Oval-358-Copy-930" fill="#405669" cx="183.5" cy="157.5" r="1.5"></circle>
                        <circle id="Oval-358-Copy-931" fill="#405669" cx="170.5" cy="157.5" r="1.5"></circle>
                        <circle id="Oval-358-Copy-932" fill="#405669" cx="157.5" cy="157.5" r="1.5"></circle>
                        <circle id="Oval-358-Copy-955" fill="#405669" cx="144.5" cy="157.5" r="1.5"></circle>
                        <circle id="Oval-358-Copy-956" fill="#405669" cx="131.5" cy="157.5" r="1.5"></circle>
                        <circle id="Oval-358-Copy-957" fill="#405669" cx="118.5" cy="157.5" r="1.5"></circle>
                        <circle id="Oval-358-Copy-958" fill="#405669" cx="105.5" cy="157.5" r="1.5"></circle>
                        <circle id="Oval-358-Copy-959" fill="#405669" cx="92.5" cy="157.5" r="1.5"></circle>
                        <circle id="Oval-358-Copy-960" fill="#405669" cx="79.5" cy="157.5" r="1.5"></circle>
                        <circle id="Oval-358-Copy-961" fill="#405669" cx="66.5" cy="157.5" r="1.5"></circle>
                        <circle id="Oval-358-Copy-962" fill="#405669" cx="53.5" cy="157.5" r="1.5"></circle>
                        <circle id="Oval-358-Copy-987" fill="#405669" cx="40.5" cy="157.5" r="1.5"></circle>
                        <circle id="Oval-358-Copy-716" fill="#405669" cx="27.5" cy="144.5" r="1.5"></circle>
                        <circle id="Oval-358-Copy-717" fill="#405669" cx="209.5" cy="144.5" r="1.5"></circle>
                        <circle id="Oval-358-Copy-718" fill="#405669" cx="196.5" cy="144.5" r="1.5"></circle>
                        <circle id="Oval-358-Copy-988" fill="#405669" cx="183.5" cy="144.5" r="1.5"></circle>
                        <circle id="Oval-358-Copy-989" fill="#405669" cx="170.5" cy="144.5" r="1.5"></circle>
                        <circle id="Oval-358-Copy-990" fill="#405669" cx="157.5" cy="144.5" r="1.5"></circle>
                        <circle id="Oval-358-Copy-991" fill="#405669" cx="144.5" cy="144.5" r="1.5"></circle>
                        <circle id="Oval-358-Copy-992" fill="#405669" cx="131.5" cy="144.5" r="1.5"></circle>
                        <circle id="Oval-358-Copy-993" fill="#405669" cx="118.5" cy="144.5" r="1.5"></circle>
                        <circle id="Oval-358-Copy-994" fill="#405669" cx="105.5" cy="144.5" r="1.5"></circle>
                        <circle id="Oval-358-Copy-995" fill="#405669" cx="92.5" cy="144.5" r="1.5"></circle>
                        <circle id="Oval-358-Copy-996" fill="#405669" cx="79.5" cy="144.5" r="1.5"></circle>
                        <circle id="Oval-358-Copy-1012" fill="#405669" cx="66.5" cy="144.5" r="1.5"></circle>
                        <circle id="Oval-358-Copy-1013" fill="#405669" cx="53.5" cy="144.5" r="1.5"></circle>
                        <circle id="Oval-358-Copy-1014" fill="#405669" cx="40.5" cy="144.5" r="1.5"></circle>
                        <circle id="Oval-358-Copy-682" fill="#405669" cx="144.5" cy="131.5" r="1.5"></circle>
                        <circle id="Oval-358-Copy-683" fill="#405669" cx="131.5" cy="131.5" r="1.5"></circle>
                        <circle id="Oval-358-Copy-684" fill="#405669" cx="118.5" cy="131.5" r="1.5"></circle>
                        <circle id="Oval-358-Copy-685" fill="#405669" cx="105.5" cy="131.5" r="1.5"></circle>
                        <circle id="Oval-358-Copy-686" fill="#405669" cx="92.5" cy="131.5" r="1.5"></circle>
                        <circle id="Oval-358-Copy-688" fill="#405669" cx="79.5" cy="131.5" r="1.5"></circle>
                        <circle id="Oval-358-Copy-1015" fill="#405669" cx="66.5" cy="131.5" r="1.5"></circle>
                        <circle id="Oval-358-Copy-1016" fill="#405669" cx="53.5" cy="131.5" r="1.5"></circle>
                        <circle id="Oval-358-Copy-1017" fill="#405669" cx="40.5" cy="131.5" r="1.5"></circle>
                        <circle id="Oval-358-Copy-656" fill="#405669" cx="27.5" cy="118.5" r="1.5"></circle>
                        <circle id="Oval-358-Copy-658" fill="#405669" cx="209.5" cy="118.5" r="1.5"></circle>
                        <circle id="Oval-358-Copy-1018" fill="#405669" cx="196.5" cy="118.5" r="1.5"></circle>
                        <circle id="Oval-358-Copy-1019" fill="#405669" cx="183.5" cy="118.5" r="1.5"></circle>
                        <circle id="Oval-358-Copy-1020" fill="#405669" cx="170.5" cy="118.5" r="1.5"></circle>
                        <circle id="Oval-358-Copy-1021" fill="#405669" cx="157.5" cy="118.5" r="1.5"></circle>
                        <circle id="Oval-358-Copy-1022" fill="#405669" cx="144.5" cy="118.5" r="1.5"></circle>
                        <circle id="Oval-358-Copy-1023" fill="#405669" cx="131.5" cy="118.5" r="1.5"></circle>
                        <circle id="Oval-358-Copy-1024" fill="#405669" cx="118.5" cy="118.5" r="1.5"></circle>
                        <circle id="Oval-358-Copy-1025" fill="#405669" cx="105.5" cy="118.5" r="1.5"></circle>
                        <circle id="Oval-358-Copy-1026" fill="#405669" cx="92.5" cy="118.5" r="1.5"></circle>
                        <circle id="Oval-358-Copy-1042" fill="#405669" cx="79.5" cy="118.5" r="1.5"></circle>
                        <circle id="Oval-358-Copy-1043" fill="#405669" cx="66.5" cy="118.5" r="1.5"></circle>
                        <circle id="Oval-358-Copy-1044" fill="#405669" cx="53.5" cy="118.5" r="1.5"></circle>
                        <circle id="Oval-358-Copy-1045" fill="#405669" cx="40.5" cy="118.5" r="1.5"></circle>
                        <circle id="Oval-358-Copy-626" fill="#405669" cx="27.5" cy="105.5" r="1.5"></circle>
                        <circle id="Oval-358-Copy-628" fill="#405669" cx="209.5" cy="105.5" r="1.5"></circle>
                        <circle id="Oval-358-Copy-1046" fill="#405669" cx="196.5" cy="105.5" r="1.5"></circle>
                        <circle id="Oval-358-Copy-1047" fill="#405669" cx="183.5" cy="105.5" r="1.5"></circle>
                        <circle id="Oval-358-Copy-1048" fill="#405669" cx="170.5" cy="105.5" r="1.5"></circle>
                        <circle id="Oval-358-Copy-1049" fill="#405669" cx="157.5" cy="105.5" r="1.5"></circle>
                        <circle id="Oval-358-Copy-1050" fill="#405669" cx="144.5" cy="105.5" r="1.5"></circle>
                        <circle id="Oval-358-Copy-1051" fill="#405669" cx="131.5" cy="105.5" r="1.5"></circle>
                        <circle id="Oval-358-Copy-1052" fill="#405669" cx="118.5" cy="105.5" r="1.5"></circle>
                        <circle id="Oval-358-Copy-1055" fill="#405669" cx="105.5" cy="105.5" r="1.5"></circle>
                        <circle id="Oval-358-Copy-1072" fill="#405669" cx="92.5" cy="105.5" r="1.5"></circle>
                        <circle id="Oval-358-Copy-1073" fill="#405669" cx="79.5" cy="105.5" r="1.5"></circle>
                        <circle id="Oval-358-Copy-1074" fill="#405669" cx="66.5" cy="105.5" r="1.5"></circle>
                        <circle id="Oval-358-Copy-1075" fill="#405669" cx="53.5" cy="105.5" r="1.5"></circle>
                        <circle id="Oval-358-Copy-1076" fill="#405669" cx="40.5" cy="105.5" r="1.5"></circle>
                        <circle id="Oval-358-Copy-596" fill="#405669" cx="27.5" cy="92.5" r="1.5"></circle>
                        <circle id="Oval-358-Copy-599" fill="#405669" cx="209.5" cy="92.5" r="1.5"></circle>
                        <circle id="Oval-358-Copy-1077" fill="#405669" cx="196.5" cy="92.5" r="1.5"></circle>
                        <circle id="Oval-358-Copy-1078" fill="#405669" cx="183.5" cy="92.5" r="1.5"></circle>
                        <circle id="Oval-358-Copy-1079" fill="#405669" cx="170.5" cy="92.5" r="1.5"></circle>
                        <circle id="Oval-358-Copy-1080" fill="#405669" cx="157.5" cy="92.5" r="1.5"></circle>
                        <circle id="Oval-358-Copy-1081" fill="#405669" cx="144.5" cy="92.5" r="1.5"></circle>
                        <circle id="Oval-358-Copy-1082" fill="#405669" cx="131.5" cy="92.5" r="1.5"></circle>
                        <circle id="Oval-358-Copy-1085" fill="#405669" cx="118.5" cy="92.5" r="1.5"></circle>
                        <circle id="Oval-358-Copy-1107" fill="#405669" cx="105.5" cy="92.5" r="1.5"></circle>
                        <circle id="Oval-358-Copy-1108" fill="#405669" cx="92.5" cy="92.5" r="1.5"></circle>
                        <circle id="Oval-358-Copy-1109" fill="#405669" cx="79.5" cy="92.5" r="1.5"></circle>
                        <circle id="Oval-358-Copy-1110" fill="#405669" cx="66.5" cy="92.5" r="1.5"></circle>
                        <circle id="Oval-358-Copy-1111" fill="#405669" cx="53.5" cy="92.5" r="1.5"></circle>
                        <circle id="Oval-358-Copy-1112" fill="#405669" cx="40.5" cy="92.5" r="1.5"></circle>
                        <circle id="Oval-358-Copy-566" fill="#405669" cx="27.5" cy="79.5" r="1.5"></circle>
                        <circle id="Oval-358-Copy-567" fill="#405669" cx="209.5" cy="79.5" r="1.5"></circle>
                        <circle id="Oval-358-Copy-568" fill="#405669" cx="196.5" cy="79.5" r="1.5"></circle>
                        <circle id="Oval-358-Copy-569" fill="#405669" cx="183.5" cy="79.5" r="1.5"></circle>
                        <circle id="Oval-358-Copy-570" fill="#405669" cx="170.5" cy="79.5" r="1.5"></circle>
                        <circle id="Oval-358-Copy-571" fill="#405669" cx="157.5" cy="79.5" r="1.5"></circle>
                        <circle id="Oval-358-Copy-1113" fill="#405669" cx="144.5" cy="79.5" r="1.5"></circle>
                        <circle id="Oval-358-Copy-1115" fill="#405669" cx="131.5" cy="79.5" r="1.5"></circle>
                        <circle id="Oval-358-Copy-1123" fill="#405669" cx="118.5" cy="79.5" r="1.5"></circle>
                        <circle id="Oval-358-Copy-1124" fill="#405669" cx="105.5" cy="79.5" r="1.5"></circle>
                        <circle id="Oval-358-Copy-1125" fill="#405669" cx="92.5" cy="79.5" r="1.5"></circle>
                        <circle id="Oval-358-Copy-1136" fill="#405669" cx="79.5" cy="79.5" r="1.5"></circle>
                        <circle id="Oval-358-Copy-1137" fill="#405669" cx="66.5" cy="79.5" r="1.5"></circle>
                        <circle id="Oval-358-Copy-1138" fill="#405669" cx="53.5" cy="79.5" r="1.5"></circle>
                        <circle id="Oval-358-Copy-1139" fill="#405669" cx="40.5" cy="79.5" r="1.5"></circle>
                        <circle id="Oval-358-Copy-531" fill="#405669" cx="131.5" cy="66.5" r="1.5"></circle>
                        <circle id="Oval-358-Copy-532" fill="#405669" cx="118.5" cy="66.5" r="1.5"></circle>
                        <circle id="Oval-358-Copy-533" fill="#405669" cx="105.5" cy="66.5" r="1.5"></circle>
                        <circle id="Oval-358-Copy-534" fill="#405669" cx="92.5" cy="66.5" r="1.5"></circle>
                        <circle id="Oval-358-Copy-535" fill="#405669" cx="79.5" cy="66.5" r="1.5"></circle>
                        <circle id="Oval-358-Copy-536" fill="#405669" cx="66.5" cy="66.5" r="1.5"></circle>
                        <circle id="Oval-358-Copy-537" fill="#405669" cx="53.5" cy="66.5" r="1.5"></circle>
                        <circle id="Oval-358-Copy-538" fill="#405669" cx="40.5" cy="66.5" r="1.5"></circle>
                        <circle id="Oval-358-Copy-504" fill="#405669" cx="170.5" cy="53.5" r="1.5"></circle>
                        <circle id="Oval-358-Copy-505" fill="#405669" cx="157.5" cy="53.5" r="1.5"></circle>
                        <circle id="Oval-358-Copy-506" fill="#405669" cx="144.5" cy="53.5" r="1.5"></circle>
                        <circle id="Oval-358-Copy-539" fill="#405669" cx="131.5" cy="53.5" r="1.5"></circle>
                        <circle id="Oval-358-Copy-540" fill="#405669" cx="118.5" cy="53.5" r="1.5"></circle>
                        <circle id="Oval-358-Copy-541" fill="#405669" cx="105.5" cy="53.5" r="1.5"></circle>
                        <circle id="Oval-358-Copy-1140" fill="#405669" cx="92.5" cy="53.5" r="1.5"></circle>
                        <circle id="Oval-358-Copy-1141" fill="#405669" cx="79.5" cy="53.5" r="1.5"></circle>
                        <circle id="Oval-358-Copy-1142" fill="#405669" cx="66.5" cy="53.5" r="1.5"></circle>
                        <circle id="Oval-358-Copy-1143" fill="#405669" cx="53.5" cy="53.5" r="1.5"></circle>
                        <circle id="Oval-358-Copy-1144" fill="#405669" cx="40.5" cy="53.5" r="1.5"></circle>
                        <circle id="Oval-358-Copy-470" fill="#405669" cx="118.5" cy="40.5" r="1.5"></circle>
                        <circle id="Oval-358-Copy-471" fill="#405669" cx="105.5" cy="40.5" r="1.5"></circle>
                        <circle id="Oval-358-Copy-472" fill="#405669" cx="92.5" cy="40.5" r="1.5"></circle>
                        <circle id="Oval-358-Copy-473" fill="#405669" cx="79.5" cy="40.5" r="1.5"></circle>
                        <circle id="Oval-358-Copy-474" fill="#405669" cx="66.5" cy="40.5" r="1.5"></circle>
                        <circle id="Oval-358-Copy-475" fill="#405669" cx="53.5" cy="40.5" r="1.5"></circle>
                        <circle id="Oval-358-Copy-476" fill="#405669" cx="40.5" cy="40.5" r="1.5"></circle>
                        <circle id="Oval-358-Copy-440" fill="#405669" cx="118.5" cy="27.5" r="1.5"></circle>
                        <circle id="Oval-358-Copy-441" fill="#405669" cx="105.5" cy="27.5" r="1.5"></circle>
                        <circle id="Oval-358-Copy-442" fill="#405669" cx="92.5" cy="27.5" r="1.5"></circle>
                        <circle id="Oval-358-Copy-443" fill="#405669" cx="79.5" cy="27.5" r="1.5"></circle>
                        <circle id="Oval-358-Copy-444" fill="#405669" cx="66.5" cy="27.5" r="1.5"></circle>
                        <circle id="Oval-358-Copy-445" fill="#405669" cx="53.5" cy="27.5" r="1.5"></circle>
                        <circle id="Oval-358-Copy-446" fill="#405669" cx="40.5" cy="27.5" r="1.5"></circle>
                        <circle id="Oval-358-Copy-405" fill="#405669" cx="53.5" cy="14.5" r="1.5"></circle>
                        <circle id="Oval-358-Copy-406" fill="#405669" cx="40.5" cy="14.5" r="1.5"></circle>
                        <circle id="Oval-358-Copy-374" fill="#405669" cx="40.5" cy="1.5" r="1.5"></circle>
                        <path d="M91.8716175,85.8693823 C92.4711835,84.9367241 93.4411069,84.933356 94.0428381,85.8693823 L100.871617,96.4919281 C101.471183,97.4245863 101.064605,98.1806552 99.9621385,98.1806552 L85.9523171,98.1806552 C84.8504597,98.1806552 84.4411069,97.4279544 85.0428381,96.4919281 L91.8716175,85.8693823 Z" id="Triangle-1" stroke="#C52C2D" transform="translate(92.955090, 91.917387) rotate(44.000000) translate(-92.955090, -91.917387) "></path>
                        <path d="M77.6652381,113.72716 C78.2625707,112.797976 79.2320359,112.799528 79.8283708,113.72716 L84.8896427,121.600249 C85.4869753,122.529433 85.0673713,123.282686 83.962164,123.282686 L73.5314449,123.282686 C72.42188,123.282686 72.0076313,122.527881 72.6039662,121.600249 L77.6652381,113.72716 Z" id="Triangle-1-Copy" stroke="#C52C2D" transform="translate(78.746593, 118.156770) rotate(302.000000) translate(-78.746593, -118.156770) "></path>
                    </g>
                </g>
            </g>
        </g>
    </g>
</svg>