<?xml version="1.0" encoding="UTF-8" standalone="no"?>
<svg width="388px" height="166px" viewBox="0 0 388 166" version="1.1" xmlns="http://www.w3.org/2000/svg" xmlns:xlink="http://www.w3.org/1999/xlink">
    <!-- Generator: Sketch Beta 3.8 (29658) - http://www.bohemiancoding.com/sketch -->
    <title>Group 6</title>
    <desc>Created with Sketch Beta.</desc>
    <defs></defs>
    <g id="web-site" stroke="none" stroke-width="1" fill="none" fill-rule="evenodd">
        <g id="Desktop-HD-Copy-16" transform="translate(-555.000000, -141.000000)" stroke="#1B2E40" fill="#112537">
            <g id="Group-14" transform="translate(-1.000000, 59.000000)">
                <g id="Group-14-Copy" transform="translate(553.000000, 77.000000)">
                    <g id="Group-6">
                        <path d="M301.342812,6.40763618 C302.49264,4.5260994 304.362613,4.53548235 305.506707,6.40763618 L312.342812,17.5939888 C313.49264,19.4755255 312.624407,21.0008125 310.415202,21.0008125 L296.434317,21.0008125 C294.2199,21.0008125 293.362613,19.4661426 294.506707,17.5939888 L301.342812,6.40763618 Z" id="Triangle-10" transform="translate(303.425531, 13.000406) rotate(-38.000000) translate(-303.425531, -13.000406) "></path>
                        <path d="M382.935301,125.169199 C384.08791,123.283112 385.958633,123.286345 387.109267,125.169199 L389.986536,129.877458 C391.139144,131.763545 390.287431,133.29252 388.070039,133.29252 L381.974529,133.29252 C379.763468,133.29252 378.907399,131.760312 380.058032,129.877458 L382.935301,125.169199 Z" id="Triangle-10-Copy-2" transform="translate(385.023324, 128.524183) rotate(-285.000000) translate(-385.023324, -128.524183) "></path>
                        <path d="M179.108569,156.59604 C180.259511,154.712681 182.125302,154.712263 183.276499,156.59604 L187.672265,163.789111 C188.823207,165.672471 187.95567,167.199236 185.762233,167.199236 L176.622835,167.199236 C174.417011,167.199236 173.561606,165.672889 174.712803,163.789111 L179.108569,156.59604 Z" id="Triangle-10-Copy" transform="translate(181.191300, 161.191300) rotate(-45.000000) translate(-181.191300, -161.191300) "></path>
                        <path d="M20.3428116,85.4076362 C21.4926397,83.5260994 23.3626133,83.5354823 24.5067073,85.4076362 L31.3428116,96.5939888 C32.4926397,98.4755255 31.6244071,100.000812 29.4152015,100.000812 L15.4343174,100.000812 C13.2198997,100.000812 12.3626133,98.4661426 13.5067073,96.5939888 L20.3428116,85.4076362 Z" id="Triangle-10"></path>
                        <path d="M7.10856892,106.59604 C8.259511,104.712681 10.1253015,104.712263 11.2764989,106.59604 L15.6722646,113.789111 C16.8232066,115.672471 15.9556703,117.199236 13.762233,117.199236 L4.62283483,117.199236 C2.41701142,117.199236 1.56160587,115.672889 2.71280322,113.789111 L7.10856892,106.59604 Z" id="Triangle-10-Copy" transform="translate(9.191300, 111.191300) rotate(-45.000000) translate(-9.191300, -111.191300) "></path>
                    </g>
                </g>
            </g>
        </g>
    </g>
</svg>