<?xml version="1.0" encoding="UTF-8" standalone="no"?>
<svg width="200px" height="145px" viewBox="0 0 200 145" version="1.1" xmlns="http://www.w3.org/2000/svg" xmlns:xlink="http://www.w3.org/1999/xlink">
    <!-- Generator: Sketch Beta 3.7.2 (28276) - http://www.bohemiancoding.com/sketch -->
    <title>Group 25</title>
    <desc>Created with Sketch Beta.</desc>
    <defs>
        <rect id="path-1" x="20" y="0" width="160" height="104" rx="6"></rect>
        <mask id="mask-2" maskContentUnits="userSpaceOnUse" maskUnits="objectBoundingBox" x="0" y="0" width="160" height="104" fill="white">
            <use xlink:href="#path-1"></use>
        </mask>
        <rect id="path-3" x="0" y="0" width="200" height="134" rx="6"></rect>
        <mask id="mask-4" maskContentUnits="userSpaceOnUse" maskUnits="objectBoundingBox" x="0" y="0" width="200" height="134" fill="white">
            <use xlink:href="#path-3"></use>
        </mask>
        <mask id="mask-6" maskContentUnits="userSpaceOnUse" maskUnits="objectBoundingBox" x="0" y="0" width="200" height="134" fill="white">
            <use xlink:href="#path-3"></use>
        </mask>
    </defs>
    <g id="web-site" stroke="none" stroke-width="1" fill="none" fill-rule="evenodd">
        <g id="Desktop-HD-Copy-7" transform="translate(-961.000000, -2217.000000)">
            <g id="part2-copy" transform="translate(0.000000, 1550.000000)">
                <g id="Group-25" transform="translate(961.000000, 667.000000)">
                    <use id="Rectangle-173-Copy" stroke="#263C4E" mask="url(#mask-2)" stroke-width="2" fill="#0E212F" xlink:href="#path-1"></use>
                    <g id="Path-137" transform="translate(0.000000, 11.000000)">
                        <mask id="mask-5" fill="white">
                            <use xlink:href="#path-3"></use>
                        </mask>
                        <g id="Mask" stroke="#2C3F53" mask="url(#mask-4)" stroke-width="2" fill-opacity="0.793987772" fill="#15293A">
                            <use mask="url(#mask-6)" xlink:href="#path-3"></use>
                        </g>
                    </g>
                    <g id="Group-24" transform="translate(13.000000, 28.000000)">
                        <rect id="Rectangle-175-Copy-11" fill="#4A5A6C" x="52" y="13" width="9" height="9" rx="1"></rect>
                        <rect id="Rectangle-175-Copy-12" fill="#4A5A6C" x="52" y="26" width="9" height="9" rx="1"></rect>
                        <rect id="Rectangle-175-Copy-22" fill="#4A5A6C" x="52" y="39" width="9" height="9" rx="1"></rect>
                        <rect id="Rectangle-175-Copy-17" fill="#4A5A6C" x="117" y="26" width="9" height="9" rx="1"></rect>
                        <rect id="Rectangle-175-Copy-10" fill="#4A5A6C" x="39" y="13" width="9" height="9" rx="1"></rect>
                        <rect id="Rectangle-175-Copy-13" fill="#43CBC6" x="39" y="26" width="9" height="9" rx="1"></rect>
                        <rect id="Rectangle-175-Copy-23" fill="#4A5A6C" x="39" y="39" width="9" height="9" rx="1"></rect>
                        <rect id="Rectangle-175-Copy-29" fill="#43CBC6" x="39" y="52" width="9" height="9" rx="1"></rect>
                        <rect id="Rectangle-175-Copy-33" fill="#4A5A6C" x="39" y="65" width="9" height="9" rx="1"></rect>
                        <rect id="Rectangle-175-Copy-38" fill="#4A5A6C" x="39" y="78" width="9" height="9" rx="1"></rect>
                        <rect id="Rectangle-175-Copy-40" fill="#4A5A6C" x="39" y="91" width="9" height="9" rx="1"></rect>
                        <rect id="Rectangle-175-Copy-37" fill="#4A5A6C" x="52" y="65" width="9" height="9" rx="1"></rect>
                        <rect id="Rectangle-175-Copy-39" fill="#43CBC6" x="52" y="78" width="9" height="9" rx="1"></rect>
                        <rect id="Rectangle-175-Copy-43" fill="#4A5A6C" x="52" y="91" width="9" height="9" rx="1"></rect>
                        <rect id="Rectangle-175-Copy-46" fill="#4A5A6C" x="65" y="91" width="9" height="9" rx="1"></rect>
                        <rect id="Rectangle-175-Copy-18" fill="#4A5A6C" x="104" y="26" width="9" height="9" rx="1"></rect>
                        <rect id="Rectangle-175-Copy-9" fill="#4A5A6C" x="26" y="13" width="9" height="9" rx="1"></rect>
                        <rect id="Rectangle-175-Copy-14" fill="#4A5A6C" x="26" y="26" width="9" height="9" rx="1"></rect>
                        <rect id="Rectangle-175-Copy-24" fill="#4A5A6C" x="26" y="39" width="9" height="9" rx="1"></rect>
                        <rect id="Rectangle-175-Copy-30" fill="#4A5A6C" x="26" y="52" width="9" height="9" rx="1"></rect>
                        <rect id="Rectangle-175-Copy-34" fill="#4A5A6C" x="26" y="65" width="9" height="9" rx="1"></rect>
                        <rect id="Rectangle-175-Copy-19" fill="#4A5A6C" x="91" y="26" width="9" height="9" rx="1"></rect>
                        <rect id="Rectangle-175-Copy-8" fill="#4A5A6C" x="13" y="13" width="9" height="9" rx="1"></rect>
                        <rect id="Rectangle-175-Copy-15" fill="#43CBC6" x="13" y="26" width="9" height="9" rx="1"></rect>
                        <rect id="Rectangle-175-Copy-25" fill="#4A5A6C" x="13" y="39" width="9" height="9" rx="1"></rect>
                        <rect id="Rectangle-175-Copy-31" fill="#4A5A6C" x="13" y="52" width="9" height="9" rx="1"></rect>
                        <rect id="Rectangle-175-Copy-35" fill="#4A5A6C" x="13" y="65" width="9" height="9" rx="1"></rect>
                        <rect id="Rectangle-175-Copy-41" fill="#4A5A6C" x="13" y="78" width="9" height="9" rx="1"></rect>
                        <rect id="Rectangle-175-Copy-44" fill="#4A5A6C" x="13" y="91" width="9" height="9" rx="1"></rect>
                        <rect id="Rectangle-175-Copy-20" fill="#4A5A6C" x="78" y="26" width="9" height="9" rx="1"></rect>
                        <rect id="Rectangle-175-Copy-26" fill="#4A5A6C" x="78" y="39" width="9" height="9" rx="1"></rect>
                        <rect id="Rectangle-175-Copy-7" fill="#4A5A6C" x="0" y="13" width="9" height="9" rx="1"></rect>
                        <rect id="Rectangle-175-Copy-47" fill="#43CBC6" x="0" y="0" width="126" height="9" rx="1"></rect>
                        <rect id="Rectangle-175-Copy-16" fill="#4A5A6C" x="0" y="26" width="9" height="9" rx="1"></rect>
                        <rect id="Rectangle-175-Copy-27" fill="#4A5A6C" x="0" y="39" width="9" height="9" rx="1"></rect>
                        <rect id="Rectangle-175-Copy-32" fill="#4A5A6C" x="0" y="52" width="9" height="9" rx="1"></rect>
                        <rect id="Rectangle-175-Copy-36" fill="#4A5A6C" x="0" y="65" width="9" height="9" rx="1"></rect>
                        <rect id="Rectangle-175-Copy-42" fill="#4A5A6C" x="0" y="78" width="9" height="9" rx="1"></rect>
                        <rect id="Rectangle-175-Copy-45" fill="#4A5A6C" x="0" y="91" width="9" height="9" rx="1"></rect>
                        <rect id="Rectangle-175-Copy-21" fill="#4A5A6C" x="65" y="26" width="9" height="9" rx="1"></rect>
                        <rect id="Rectangle-175-Copy-28" fill="#4A5A6C" x="65" y="39" width="9" height="9" rx="1"></rect>
                    </g>
                    <text id="0.01S" font-family="PingFangSC-Medium, PingFang SC" font-size="24" font-weight="400" fill="#4B5B6C">
                        <tspan x="123" y="109">0.01S</tspan>
                    </text>
                </g>
            </g>
        </g>
    </g>
</svg>