<?xml version="1.0" encoding="UTF-8" standalone="no"?>
<svg width="198px" height="223px" viewBox="0 0 198 223" version="1.1" xmlns="http://www.w3.org/2000/svg" xmlns:xlink="http://www.w3.org/1999/xlink">
    <!-- Generator: Sketch Beta 3.8 (29658) - http://www.bohemiancoding.com/sketch -->
    <title>nxDAQajTFFjwRVj</title>
    <desc>Created with Sketch Beta.</desc>
    <defs></defs>
    <g id="Page-1" stroke="none" stroke-width="1" fill="none" fill-rule="evenodd">
        <g id="nxDAQajTFFjwRVj">
            <g id="web-site">
                <g id="Desktop-HD-Copy-7">
                    <g id="part2-copy">
                        <g id="Group">
                            <polygon id="Polygon-1-Copy-4" stroke="#192B3B" fill-opacity="0.518002717" fill="#0D2436" points="99 11 186 61.25 186 161.75 99 212 12 161.75 12 61.25"></polygon>
                            <polygon id="Polygon-1-Copy-3" stroke-opacity="0.297384511" stroke="#3D4C5C" fill-opacity="0.199388587" fill="#1B364B" points="99.5 25 174 68 174 154 99.5 197 25 154 25 68"></polygon>
                            <polygon id="Polygon-1-Copy" stroke-opacity="0.412788723" stroke="#3F4D5C" fill-opacity="0.106544384" fill="#27394D" points="98.5 40 160.420816 75.75 160.420816 147.25 98.5 183 36.5791836 147.25 36.5791836 75.75"></polygon>
                            <polygon id="Polygon-1" stroke="#2B3B4B" fill="#12293A" points="99.5 54 149.296461 82.75 149.296461 140.25 99.5 169 49.7035393 140.25 49.7035393 82.75"></polygon>
                            <polygon id="Polygon-1-Copy-2" stroke="#5D6670" points="99 68 136.239092 89.5 136.239092 132.5 99 154 61.7609076 132.5 61.7609076 89.5"></polygon>
                            <polygon id="Polygon-1-Copy-2" stroke="#49596B" fill="#2A3848" points="98.5 83 123.181724 97.25 123.181724 125.75 98.5 140 73.818276 125.75 73.818276 97.25"></polygon>
                            <g id="Path-140" transform="translate(61.000000, 54.000000)">
                                <g id="path-1-link" fill="#000000">
                                    <polygon id="path-1" points="38.320925 0 0.3412002 35.2765045 0.3412002 78.893913 37.897871 100.551888 88.79444 86.443008 75.712622 35.2765045"></polygon>
                                </g>
                                <g id="path-1-link" fill="#43CBC6">
                                    <polygon id="path-1" points="38.320925 0 0.3412002 35.2765045 0.3412002 78.893913 37.897871 100.551888 88.79444 86.443008 75.712622 35.2765045"></polygon>
                                </g>
                            </g>
                            <polygon id="Path-140-Copy" fill="#6FD9D5" points="99.454473 68 72 94.1053418 72 125.535501 98.521715 141.394379 136 130.72604 126.941598 94.1053412"></polygon>
                            <path d="M98.2529012,0.275546512 L96,6 L96.7055349,6 L97.3148605,4.39651163 L99.9445814,4.39651163 L100.553907,6 L101.267459,6 L99.0145581,0.275546512 L98.2529012,0.275546512 Z M97.523314,3.84330814 L98.6217035,0.981081396 L98.6537733,0.981081396 L99.7361279,3.84330814 L97.523314,3.84330814 Z" id="A" fill="#2B3F54"></path>
                            <path d="M192.577256,56.2755465 L192.577256,62 L195.118785,62 C195.704058,62 196.16907,61.8797384 196.505802,61.65525 C196.898657,61.382657 197.099093,60.96575 197.099093,60.4045291 C197.099093,60.0196919 196.986849,59.7150291 196.778395,59.4745058 C196.569942,59.2339826 196.281314,59.0736337 195.904494,59.0094942 C196.193122,58.9132849 196.425628,58.7609535 196.602012,58.5525 C196.770378,58.3199942 196.85857,58.0393837 196.85857,57.718686 C196.85857,57.2697093 196.706238,56.9169419 196.401576,56.6603837 C196.088895,56.4038256 195.663971,56.2755465 195.13482,56.2755465 L192.577256,56.2755465 Z M193.234686,56.82875 L194.982488,56.82875 C195.38336,56.82875 195.688023,56.900907 195.896477,57.0612558 C196.10493,57.2216047 196.209157,57.4621279 196.209157,57.7828256 C196.209157,58.1115407 196.096913,58.3600814 195.888459,58.5284477 C195.680006,58.6887965 195.375343,58.7769884 194.974471,58.7769884 L193.234686,58.7769884 L193.234686,56.82875 Z M193.234686,59.3221744 L195.062663,59.3221744 C195.503622,59.3221744 195.840355,59.4023488 196.07286,59.5787326 C196.313384,59.7551163 196.441663,60.0277093 196.441663,60.3965116 C196.441663,60.765314 196.297349,61.0459244 196.016738,61.2223081 C195.776215,61.3666221 195.463535,61.4467965 195.062663,61.4467965 L193.234686,61.4467965 L193.234686,59.3221744 Z" id="B" fill="#2B3F54"></path>
                            <path d="M193.046628,163.163302 C192.164709,163.163302 191.475209,163.459948 190.994163,164.069273 C190.553203,164.614459 190.336733,165.311977 190.336733,166.161826 C190.336733,167.011674 190.545186,167.701174 190.978128,168.230326 C191.451157,168.815599 192.13264,169.112244 193.022576,169.112244 C193.631901,169.112244 194.161052,168.93586 194.602012,168.59111 C195.075041,168.222308 195.371686,167.701174 195.499965,167.035727 L194.866587,167.035727 C194.754343,167.532808 194.521837,167.909628 194.185105,168.166186 C193.864407,168.406709 193.47957,168.526971 193.022576,168.526971 C192.34911,168.526971 191.844012,168.302483 191.491244,167.861523 C191.154512,167.444616 190.994163,166.875378 190.994163,166.161826 C190.994163,165.448273 191.162529,164.879035 191.499262,164.446093 C191.860047,163.981081 192.373163,163.748576 193.03861,163.748576 C193.487587,163.748576 193.864407,163.852802 194.177087,164.069273 C194.497785,164.293762 194.706238,164.614459 194.786413,165.031366 L195.419791,165.031366 C195.339616,164.462128 195.083058,164.005134 194.650116,163.668401 C194.217174,163.331669 193.680006,163.163302 193.046628,163.163302 L193.046628,163.163302 Z" id="C" fill="#2B3F54"></path>
                            <path d="M97.5772558,217.275547 L97.5772558,223 L99.5655814,223 C100.463535,223 101.153035,222.735424 101.634081,222.214291 C102.091076,221.717209 102.323581,221.019692 102.323581,220.137773 C102.323581,219.23982 102.10711,218.542302 101.682186,218.061256 C101.217174,217.532105 100.535692,217.275547 99.6297209,217.275547 L97.5772558,217.275547 Z M98.234686,217.844785 L99.5254942,217.844785 C100.279134,217.844785 100.82432,218.037203 101.177087,218.430058 C101.505802,218.79886 101.674169,219.368099 101.674169,220.137773 C101.674169,220.883395 101.489767,221.452634 101.137,221.837471 C100.76018,222.230326 100.198959,222.430762 99.4533372,222.430762 L98.234686,222.430762 L98.234686,217.844785 Z" id="D" fill="#2B3F54"></path>
                            <polygon id="E" fill="#2B3F54" points="0.577255814 162.275547 0.577255814 168 4.77037791 168 4.77037791 167.430762 1.23468605 167.430762 1.23468605 165.330192 4.44166279 165.330192 4.44166279 164.760953 1.23468605 164.760953 1.23468605 162.844785 4.6340814 162.844785 4.6340814 162.275547"></polygon>
                            <polygon id="F" fill="#2B3F54" points="1.57725581 56.2755465 1.57725581 62 2.23468605 62 2.23468605 59.3382093 5.24122674 59.3382093 5.24122674 58.7689709 2.23468605 58.7689709 2.23468605 56.8447849 5.40959302 56.8447849 5.40959302 56.2755465"></polygon>
                            <g id="Group-20" transform="translate(86.000000, 95.000000)" fill="#FFFFFF">
                                <path d="M14.6360656,0.046875 C10.2570492,0.046875 6.7868852,1.545375 4.22557377,4.625625 C1.78819672,7.49775 0.59016393,11.16075 0.59016393,15.614625 C0.59016393,20.026875 1.78819672,23.64825 4.22557377,26.437125 C6.8281967,29.434125 10.4636066,30.932625 15.1731148,30.932625 C17.8170492,30.932625 20.1718033,30.599625 22.32,29.933625 C24.3442623,29.267625 26.1206557,28.351875 27.6904918,27.103125 L27.6904918,14.532375 L15.0491803,14.532375 L15.0491803,18.694875 L22.8570492,18.694875 L22.8570492,24.81375 C21.8655738,25.3965 20.8327869,25.854375 19.6760656,26.187375 C18.4367213,26.520375 17.1147541,26.686875 15.7101639,26.686875 C12.1160656,26.686875 9.4721311,25.687875 7.7783607,23.689875 C6.2085246,21.81675 5.42360656,19.111125 5.42360656,15.614625 C5.42360656,11.951625 6.2911475,9.16275 8.067541,7.16475 C9.6786885,5.25 11.8681967,4.33425 14.6360656,4.33425 C16.8668852,4.33425 18.6845902,4.792125 20.0478689,5.7495 C21.3698361,6.706875 22.2786885,8.122125 22.6918033,10.036875 L27.5665574,10.036875 C27.0295082,6.706875 25.707541,4.251 23.6006557,2.586 C21.4111475,0.879375 18.4367213,0.046875 14.6360656,0.046875 L14.6360656,0.046875 L14.6360656,0.046875 Z" id="G"></path>
                            </g>
                        </g>
                    </g>
                </g>
            </g>
        </g>
    </g>
</svg>