<?xml version="1.0" encoding="UTF-8" standalone="no"?>
<svg width="103px" height="46px" viewBox="0 0 103 46" version="1.1" xmlns="http://www.w3.org/2000/svg" xmlns:xlink="http://www.w3.org/1999/xlink">
    <!-- Generator: Sketch Beta 3.6 (26304) - http://www.bohemiancoding.com/sketch -->
    <title>iconfont-taobao01</title>
    <desc>Created with Sketch Beta.</desc>
    <defs></defs>
    <g id="web-site" stroke="none" stroke-width="1" fill="none" fill-rule="evenodd">
        <g id="Desktop-HD-Copy-7" transform="translate(-537.000000, -4302.000000)" fill="#B9C1C9">
            <g id="Group-6-Copy" transform="translate(0.000000, 4239.000000)">
                <g id="Group-30">
                    <g id="Group-18" transform="translate(290.000000, 58.000000)">
                        <g id="iconfont-taobao01" transform="translate(247.000000, 5.000000)">
                            <g id="图形">
                                <path d="M3.31853125,6.95003509 C5.9225,9.11284211 6.22828125,9.18063158 8.00825,10.8979649 C9.34403125,12.2731228 9.1734375,14.2971228 8.4524375,16.7665965 C7.49646875,19.2392982 7.83765625,18.2418246 4.61890625,25.0756491 L0,22.2284912 C0.991375,21.4021053 1.91515625,20.5466667 2.77134375,19.688 C4.1393125,18.2805614 5.7486875,16.5987368 6.192875,15.4624561 C6.7400625,14.4004211 6.501875,13.5385263 5.986875,12.9607018 C5.7486875,12.650807 5.4396875,12.3441404 4.9955,12.0665263 L1.47096875,9.9037193 L3.31853125,6.95003509 L3.31853125,6.95003509 L3.31853125,6.95003509 Z M15.128125,3.24421053 C23.445375,1.04589474 27.9645,1.59789474 30.2594687,2.96982456 C31.6628437,3.79298246 32.5190312,4.89052632 32.895625,6.26568421 C33.101625,7.36322807 33.2722188,8.59957895 33.3752187,9.97150877 C33.5458125,12.3409123 33.6488125,15.7045614 33.101625,19.962386 C32.8280312,24.1524211 29.6800937,25.4533333 26.9055312,25.6954386 C25.26075,25.8665263 23.4485937,25.6599298 21.4948125,25.0788772 L21.9744062,22.7417544 L24.5075625,23.3260351 C26.7993125,23.5649123 27.8293125,22.6061754 28.2735,21.5409123 C28.5470937,20.9566316 28.6822812,20.3045614 28.6822812,19.5169123 L28.6822812,7.70863158 C28.7852812,3.20870175 24.5075625,2.76645614 16.8726875,5.54582456 L18.61725,5.95578947 C18.3758437,6.4722807 17.8994687,7.22764912 17.1784687,8.22189474 L27.3110937,8.22189474 L27.3110937,10.3136842 L21.565625,10.3136842 L21.565625,12.925193 L27.3175313,12.925193 L27.3175313,14.9847018 L21.565625,14.9847018 L21.565625,19.3103158 C22.4218125,18.9326316 23.3101875,18.6227368 24.0311875,18.0416842 L23.5161875,16.1887719 L26.18775,15.4334035 L28.3797188,20.8888421 L25.0257813,22.2284912 L24.5107813,20.0301754 C23.7221875,20.6144561 22.5248125,21.2310175 20.9154375,21.8830877 C19.3060625,22.5351579 17.1849063,22.8095439 14.4811563,22.7417544 C13.0777813,22.8095439 12.051,22.5028772 11.433,21.7797895 C10.8182188,21.0599298 10.4062188,20.2690526 10.2002188,19.4781754 C10.029625,18.5194386 10.0650313,17.4186667 10.3032188,16.1855439 L10.338625,16.1177544 L14.3781562,16.1177544 C14.3781562,16.4922105 14.3459688,16.9764211 14.2429688,17.5929825 C14.175375,18.2095439 14.2429688,18.7260351 14.484375,19.1392281 C14.9961563,19.7880702 15.99075,19.7880702 16.5379375,19.962386 L16.7375,19.962386 L16.7375,14.9847018 L10.9888125,14.9847018 L10.9888125,12.925193 L16.7375,12.925193 L16.7375,10.3136842 L15.334125,10.3136842 C14.6163438,11.0012632 13.9983438,11.6533333 13.5541563,12.1020351 L12.8009688,12.925193 L10.9888125,11.3111579 C12.3245938,9.97150877 13.4865625,7.94750877 14.3105625,6.4722807 C13.660375,6.78217544 13.145375,6.98554386 12.36,7.25992982 C11.6711875,8.11859649 10.9888125,9.04505263 10.132625,9.76491228 C10.132625,9.80042105 9.514625,9.52280702 8.69384375,9.07733333 L7.29046875,8.21866667 C8.83225,6.87901754 9.926625,4.85501754 10.712,3.20547368 C11.1915938,2.21122807 11.600375,1.14596491 11.9447813,0.0451929825 L16.1903125,1.22021053 L15.8845313,1.76898246 C15.746125,2.14666667 15.5047188,2.59214035 15.128125,3.24421053 L15.128125,3.24421053 L15.128125,3.24421053 L15.128125,3.24421053 Z M55.3174375,10.4492632 L55.3174375,13.1640702 L64.5262813,13.1640702 L64.5262813,15.4301754 L55.3174375,15.4301754 L55.3174375,21.8152982 L67.8448125,21.8152982 L67.8448125,24.4913684 L38.0649375,24.4913684 L38.0649375,21.8152982 L49.942125,21.8152982 L49.942125,15.4301754 L41.6924687,15.4301754 L41.6924687,13.1640702 L49.942125,13.1640702 L49.942125,10.4492632 L42.7546562,10.4492632 L42.7546562,11.1045614 L38.0649375,11.1045614 L38.0649375,2.76322807 L42.7546563,2.76322807 L42.7546563,3.76070175 C44.122625,3.58638596 46.8971875,3.312 49.942125,2.89880702 L49.942125,0.564912281 L55.1790313,0.564912281 L55.1790313,2.41782456 C57.950375,2.14666667 60.2775313,1.86905263 61.6133125,2.10792982 C63.7376875,2.21445614 65.4468437,2.45333333 66.7118125,2.89880702 C68.0121875,3.3442807 68.6977813,4.27073684 68.8007812,5.74919298 C68.8007812,7.15985965 67.774,8.4962807 66.7118125,9.56154386 C66.1292188,10.1425965 65.4114375,10.6945965 64.6260625,11.2756491 L63.357875,9.97150877 L63.357875,10.4492632 L55.3174375,10.4492632 L55.3174375,10.4492632 L55.3174375,10.4492632 Z M42.7546563,8.32519298 L61.6133125,8.32519298 L61.6133125,8.22189474 C62.3343125,7.80870175 62.8815,7.39873684 63.2580938,6.95003509 C63.9404688,6.23017544 64.0466875,5.40378947 62.5049062,4.61614035 C60.0039375,3.34105263 46.7587812,5.50385965 42.7546562,6.46905263 L42.7546563,8.32519298 L42.7546563,8.32519298 L42.7546563,8.32519298 Z M102.893781,6.95003509 C103.064375,10.2781754 102.996781,13.9872281 102.893781,17.3153684 C102.826188,20.5111579 103.234969,26.6218947 97.8950625,25.5889123 C96.2856875,25.4501053 95.056125,24.9368421 94.1999375,24.5236491 C93.6881563,24.3202807 93.2439688,24.1136842 92.8995625,23.874807 L93.1055625,21.6442105 C93.8909375,22.0896842 94.6119375,22.3640702 95.262125,22.4673684 C96.3243125,22.7062456 97.5216875,22.2284912 97.6922813,20.0301754 C97.862875,17.2152982 97.862875,11.3789474 97.862875,8.04757895 C97.2802813,8.77066667 96.1183125,10.5880702 94.7117188,12.4764912 C96.0475,13.5772632 97.141875,14.4682105 97.5892813,15.2590877 L93.85875,18.3806316 L93.3791563,17.6252632 C92.9671563,17.1797895 92.558375,16.4922105 92.0079688,15.6722807 C90.0928125,17.8350877 87.62725,19.7880702 85.1649063,21.1309474 L83.520125,18.8293333 C84.1703125,18.4871579 84.8880938,18.0416842 85.6766875,17.525193 C86.8772813,16.5987368 88.5188438,15.3268772 89.9222188,13.1317895 C89.2044375,12.0342456 88.1100625,11.1077895 87.1830625,10.3169123 C86.6680625,10.765614 86.223875,11.4176842 85.708875,11.9664561 C86.5296563,12.7928421 87.1830625,13.477193 87.5564375,14.2680702 L84.6820938,17.1184561 L84.1670938,16.4308772 L83.0373125,14.6780351 C81.9429375,15.5367018 81.1543438,16.3275789 80.4719688,16.8763509 C80.095375,17.2185263 79.7187813,17.5284211 79.3775938,17.7672982 L78.0418125,16.4308772 L78.0418125,24.4945965 L72.808125,24.4945965 L72.808125,1.9045614 L78.0450313,1.9045614 L78.0450313,3.8962807 C80.5427813,3.00533333 88.14225,0.0516491228 94.4059375,0.600421053 C101.834813,1.53010526 102.655594,5.26821053 102.893781,6.95003509 L102.893781,6.95003509 L102.893781,6.95003509 L102.893781,6.95003509 Z M97.862875,7.22442105 C97.862875,6.54007018 97.6922813,6.12364912 97.6922813,5.81375439 C97.6922813,5.3682807 97.6246875,4.71621053 97.4540937,4.26750877 C97.0066875,3.47985965 95.9799062,2.55340351 93.5175625,2.58568421 C89.3074375,2.89557895 82.5641563,4.8162807 78.0450313,6.91129825 L78.0450313,15.4269474 C79.3808125,14.6005614 80.3045938,13.6063158 81.228375,12.2666667 C80.3045938,10.9270175 79.3808125,9.76168421 78.3862188,9.24519298 L79.825,7.3922807 C80.1661875,7.59564912 80.5105938,7.80224561 80.816375,8.04112281 C81.3635625,8.55761404 82.1875625,9.07087719 83.0405313,9.65515789 C83.6907188,8.45431579 84.2733125,7.25347368 84.5823125,6.39480702 L85.1649063,4.95185965 L89.1690313,6.94357895 C88.9984375,7.3922807 88.7570313,7.80224561 88.5864375,8.31873684 C89.236625,8.832 90.3664063,9.45178947 91.5637813,10.3072281 C92.455375,8.62540351 93.1055625,6.74021053 93.54975,4.60968421 L97.862875,7.22442105 L97.862875,7.22442105 L97.862875,7.22442105 Z M5.8195,5.95578947 C4.210125,5.95578947 2.80675,4.7194386 2.80675,3.24421053 C2.80675,1.63017544 4.210125,0.564912281 5.8195,0.564912281 C7.5640625,0.564912281 8.79684375,1.63017544 8.79684375,3.24421053 C8.79684375,4.7194386 7.5640625,5.95578947 5.8195,5.95578947 L5.8195,5.95578947 L5.8195,5.95578947 L5.8195,5.95578947 Z M61.0307187,21.2310175 C59.35375,21.2310175 58.0179687,20.0301754 58.0179687,18.6195088 C58.0179687,16.973193 59.35375,15.9079298 61.0307187,15.9079298 C62.6722812,15.9079298 64.0080625,16.973193 64.0080625,18.6195088 C64.0112812,20.0301754 62.6755,21.2310175 61.0307187,21.2310175 L61.0307187,21.2310175 L61.0307187,21.2310175 Z" id="Shape"></path>
                                <path d="M50.9238438,43.3465263 C50.9238438,44.1632281 51.0204063,44.4989474 51.9313125,44.4989474 C51.8830313,44.7410526 51.83475,44.9799298 51.6899063,45.173614 C51.4485,45.5093333 51.0171875,45.7998596 50.199625,45.7998596 C50.0065,45.7998596 49.8165938,45.7514386 49.6234688,45.7030175 L49.5269063,45.7030175 L49.478625,45.7030175 L49.3337813,45.6094035 L49.2855,45.6094035 C49.2855,45.5609825 49.2855,45.5609825 49.2372188,45.5609825 C48.95075,45.4157193 48.757625,45.2704561 48.6610625,45.0283509 L48.5194375,44.7410526 C48.088125,45.218807 47.5119688,45.5609825 46.78775,45.7998596 C46.453,45.8934737 46.06675,45.9451228 45.732,45.9451228 C43.762125,45.9451228 42.3684063,44.5957895 42.3684063,42.6202105 C42.3684063,40.5477895 43.762125,39.2985263 46.0184688,39.2985263 C46.3532188,39.2985263 46.4497813,39.2985263 46.78775,39.3469474 C47.4121875,39.4922105 48.036625,39.7795088 48.3745938,40.3121404 C48.422875,40.2152982 48.422875,40.0700351 48.422875,39.8311579 C48.422875,38.6270877 47.895,37.9524211 46.78775,37.7587368 C46.453,37.7070877 46.1633125,37.7070877 45.8285625,37.7070877 C44.9144375,37.7070877 44.1000938,37.8523509 43.1859688,38.042807 C43.5207188,37.4649825 43.6655625,37.0808421 44.0035313,36.890386 C44.2417188,36.6482807 45.0592813,36.5030175 46.4047188,36.5030175 L46.78775,36.5030175 C49.813375,36.5514386 50.920625,37.7070877 50.920625,40.2120702 L50.920625,43.3465263 L50.9238438,43.3465263 L50.9238438,43.3465263 Z M46.7909688,44.5957895 C47.7984375,44.5957895 48.4711563,43.8242807 48.4711563,42.5233684 C48.4711563,41.2224561 47.9432813,40.5929825 46.83925,40.5929825 L46.7909688,40.5929825 C45.7835,40.6478596 45.0625,41.2708772 45.0625,42.5717895 C45.0625,43.7790877 45.8317813,44.5957895 46.7909688,44.5957895 L46.7909688,44.5957895 L46.7909688,44.5957895 L46.7909688,44.5957895 Z M24.9324375,36.4545965 C27.8164375,36.4545965 29.5931875,38.1880702 29.5931875,41.2708772 C29.5931875,44.2116491 27.8164375,45.9451228 24.9324375,45.9451228 C22.0484375,45.9451228 20.3199688,44.2116491 20.3199688,41.2708772 C20.3199688,38.1880702 22.0516563,36.4545965 24.9324375,36.4545965 L24.9324375,36.4545965 L24.9324375,36.4545965 L24.9324375,36.4545965 Z M24.9324375,44.5957895 C26.1330313,44.5957895 26.7091875,43.4853333 26.7091875,41.2708772 C26.7091875,39.008 26.1330313,37.8975439 24.9324375,37.8491228 C23.7318438,37.8491228 23.1556875,39.0047719 23.1556875,41.2708772 C23.1556875,43.4885614 23.7318438,44.5957895 24.9324375,44.5957895 L24.9324375,44.5957895 L24.9324375,44.5957895 L24.9324375,44.5957895 Z M36.7516875,36.5482105 C39.2011563,36.5482105 40.8362813,38.2364912 40.8362813,41.125614 C40.8362813,44.2116491 39.204375,45.9451228 36.7516875,45.9451228 C36.4169375,45.9451228 36.2720938,45.8934737 36.0306875,45.8482807 C35.1648438,45.7030175 34.492125,45.3188772 34.0125313,44.7410526 C33.9159688,44.9799298 33.8194063,45.125193 33.6777813,45.2704561 C33.3880938,45.6061754 32.9085,45.7998596 32.2840625,45.7998596 C32.0909375,45.7998596 31.9493125,45.7998596 31.8044688,45.7514386 C30.8903438,45.6061754 30.6972188,44.9799298 30.5555938,44.6409825 L30.5555938,44.5957895 L30.5555938,44.4989474 C31.5630625,44.5473684 31.5147813,43.9211228 31.5147813,43.3465263 L31.5147813,35.8283509 C31.5147813,34.914807 31.3699375,34.5758596 30.4590313,34.5306667 C30.4590313,34.2885614 30.5555938,34.0496842 30.7455,33.8043509 L31.08025,33.4686316 C31.3216563,33.3233684 31.6564063,33.1329123 32.1842813,33.1329123 C32.5190313,33.1329123 32.857,33.1845614 33.19175,33.3265965 C33.333375,33.3782456 33.4782188,33.4718596 33.6713438,33.6171228 L33.719625,33.6687719 L33.7679063,33.717193 L33.8161875,33.765614 L33.8644688,33.8140351 C33.8644688,33.8140351 33.8644688,33.8656842 33.91275,33.9108772 L33.91275,33.9592982 L33.9610313,34.0077193 C34.0093125,34.1045614 34.1026563,34.2982456 34.1541563,34.5403509 L34.1541563,34.5887719 L34.1541563,34.7340351 L34.1541563,35.5539649 L34.1541563,37.626386 C34.5854688,37.0969825 35.213125,36.7580351 36.0274688,36.616 C36.1755313,36.5482105 36.4137188,36.5482105 36.7516875,36.5482105 L36.7516875,36.5482105 L36.7516875,36.5482105 L36.7516875,36.5482105 Z M36.0789688,44.5473684 C37.376125,44.5473684 38.0005625,43.4885614 38.0005625,41.3192982 C38.0005625,39.0564211 37.3278438,37.8523509 36.0306875,37.8039298 L35.9824063,37.8039298 C34.8751563,37.8039298 34.0608125,38.8143158 34.0608125,40.6962807 L34.0608125,41.6098246 C34.0608125,43.4885614 34.8751563,44.5021754 36.0306875,44.5473684 L36.0789688,44.5473684 L36.0789688,44.5473684 L36.0789688,44.5473684 Z M57.5061875,36.4545965 C60.3901875,36.4545965 62.1669375,38.1880702 62.1669375,41.2708772 C62.1669375,44.2116491 60.3901875,45.9451228 57.5061875,45.9451228 C54.6221875,45.9451228 52.942,44.2116491 52.942,41.2708772 C52.942,38.1880702 54.6221875,36.4545965 57.5061875,36.4545965 L57.5061875,36.4545965 L57.5061875,36.4545965 L57.5061875,36.4545965 Z M57.5061875,44.5957895 C58.7067813,44.5957895 59.3312188,43.4853333 59.3312188,41.2708772 C59.3312188,39.008 58.7067813,37.8975439 57.5061875,37.8491228 C56.3055938,37.8491228 55.7294375,39.0047719 55.7294375,41.2708772 C55.7262188,43.4885614 56.3055938,44.5957895 57.5061875,44.5957895 L57.5061875,44.5957895 L57.5061875,44.5957895 L57.5061875,44.5957895 Z M72.3510625,37.7070877 C71.0539063,37.7070877 70.1880625,38.8627368 70.1880625,40.986807 C70.1880625,43.2496842 71.1955313,44.5505965 72.6858125,44.5505965 C73.5999375,44.5505965 74.224375,44.1180351 74.75225,44.1180351 C75.087,44.1180351 75.4249688,44.2632982 75.7146563,44.5990175 C74.8005313,45.5125614 73.6482188,45.9483509 72.2062188,45.9483509 C69.3222188,45.9483509 67.3555625,44.1632281 67.3555625,41.2741053 C67.3555625,38.3849825 69.422,36.4578246 72.306,36.4578246 C73.2651875,36.4578246 74.1310313,36.6967018 74.7554688,36.938807 C75.0902188,37.0840702 75.4281875,37.2261053 75.7629375,37.4197895 C75.7629375,38.5270175 75.2350625,38.9111579 74.610625,38.8627368 C74.275875,38.8143158 74.0344688,38.6690526 73.7930625,38.3817544 C73.4550938,37.949193 72.9755,37.7070877 72.3510625,37.7070877 L72.3510625,37.7070877 L72.3510625,37.7070877 L72.3510625,37.7070877 Z M81.6693438,36.4545965 C84.5533438,36.4545965 86.2818125,38.1880702 86.2818125,41.2708772 C86.2818125,44.2116491 84.5533438,45.9451228 81.6693438,45.9451228 C78.7853438,45.9451228 77.056875,44.2116491 77.056875,41.2708772 C77.056875,38.1880702 78.7885625,36.4545965 81.6693438,36.4545965 L81.6693438,36.4545965 L81.6693438,36.4545965 L81.6693438,36.4545965 Z M81.6693438,44.5957895 C82.8699375,44.5957895 83.4460938,43.4853333 83.4460938,41.2708772 C83.4460938,39.008 82.8699375,37.8491228 81.6693438,37.8491228 C80.46875,37.8491228 79.8925938,39.0047719 79.8925938,41.2708772 C79.8925938,43.4885614 80.46875,44.5957895 81.6693438,44.5957895 L81.6693438,44.5957895 L81.6693438,44.5957895 L81.6693438,44.5957895 Z M64.8063125,43.3465263 C65.5755938,43.3465263 66.1034688,43.9243509 66.1034688,44.6442105 C66.1034688,45.3640702 65.5755938,45.9451228 64.8063125,45.9451228 C64.0853125,45.9451228 63.5091563,45.3640702 63.5091563,44.6442105 C63.5091563,43.9243509 64.0885313,43.3465263 64.8063125,43.3465263 L64.8063125,43.3465263 L64.8063125,43.3465263 L64.8063125,43.3465263 Z M11.1948125,34.1400702 C10.6669375,35.5410526 10.2806875,35.8251228 8.8901875,35.8251228 L8.16596875,35.8251228 C7.20678125,35.8251228 6.965375,35.8251228 6.965375,36.5482105 L6.965375,43.2012632 C6.965375,44.114807 7.11021875,44.4537544 8.02434375,44.4989474 C7.92778125,44.7410526 7.7829375,44.9799298 7.63809375,45.173614 C7.30334375,45.5093333 6.82053125,45.7998596 5.909625,45.7998596 C5.76478125,45.7998596 5.523375,45.7514386 5.2851875,45.7030175 C5.188625,45.7030175 5.0920625,45.6545965 4.9504375,45.6094035 C4.326,45.3188772 3.99125,44.7894737 3.99125,44.066386 L3.99125,44.0147368 L3.99125,40.3089123 L3.99125,36.4997895 C3.99125,35.8767719 3.84640625,35.7315088 2.9355,35.7315088 C1.7831875,35.7315088 0.7725,35.7799298 0.00321875,36.018807 C0.43453125,34.6694737 1.0106875,34.3369825 2.356125,34.3369825 C3.17046875,34.3369825 4.70903125,34.4305965 7.1585,34.4305965 C9.128375,34.4305965 10.4738125,34.3821754 11.1948125,34.1400702 L11.1948125,34.1400702 L11.1948125,34.1400702 L11.1948125,34.1400702 Z M102.040813,43.2948772 C102.040813,44.114807 102.089094,44.4989474 103,44.4989474 C102.951719,44.7410526 102.903438,44.9799298 102.758594,45.173614 C102.517188,45.5093333 102.134156,45.7998596 101.316594,45.7998596 C100.930344,45.7998596 100.595594,45.7030175 100.357406,45.5609825 L100.309125,45.5609825 C100.260844,45.5609825 100.260844,45.5609825 100.212563,45.5093333 L100.164281,45.5093333 L100.067719,45.4157193 L100.067719,45.3640702 L100.019438,45.3156491 L99.9711563,45.2672281 C99.922875,45.2155789 99.922875,45.2155789 99.922875,45.170386 C99.8745938,45.1219649 99.78125,45.0767719 99.72975,44.9315088 L99.6846875,44.9315088 L99.6846875,44.8346667 C99.6364063,44.8346667 99.6364063,44.8346667 99.6364063,44.7862456 L99.6364063,44.6894035 L99.6364063,44.6409825 L99.6364063,44.5957895 C99.588125,44.5441404 99.588125,44.4989474 99.588125,44.4505263 L99.588125,44.4021053 C99.5398438,44.3052632 99.5398438,44.2084211 99.5398438,44.066386 L99.5398438,43.9695439 L99.5398438,39.5374035 C99.5398438,38.3817544 99.06025,37.8039298 98.146125,37.8039298 C96.9423125,37.8039298 96.511,38.4301754 96.511,39.9215439 L96.511,45.7546667 L93.9649688,45.7546667 L93.9649688,39.5374035 C93.9649688,38.3817544 93.485375,37.8039298 92.57125,37.8039298 C91.5122813,37.8039298 90.9844063,38.5270175 90.9844063,39.9215439 L90.9844063,45.7546667 L88.3900938,45.7546667 L88.3900938,39.2468772 C88.3900938,38.3333333 88.1969688,37.994386 87.2828438,37.949193 C87.331125,37.6586667 87.4759688,37.4197895 87.6175938,37.2745263 L87.7141563,37.1292632 C87.7624375,37.0808421 87.8557813,36.984 88.0489063,36.890386 C88.2903125,36.6934737 88.6250625,36.5998596 89.0595938,36.5998596 C89.828875,36.5998596 90.2601875,36.8387368 90.498375,37.0808421 C90.6432188,37.2228772 90.7397813,37.3681404 90.7880625,37.5134035 C91.5090625,36.7903158 92.3749063,36.4545965 93.4306563,36.4545965 C94.63125,36.4545965 95.545375,36.890386 96.1215313,37.7070877 C96.79425,36.890386 97.7051563,36.4545965 98.9089688,36.4545965 C100.975406,36.4545965 102.031156,37.5650526 102.031156,39.8279298 L102.031156,43.2948772 L102.040813,43.2948772 L102.040813,43.2948772 Z M18.3533125,43.3465263 C18.3533125,44.1632281 18.4015938,44.4989474 19.3125,44.4989474 C19.2642188,44.7410526 19.2159375,44.9799298 19.0710938,45.173614 C18.8296875,45.5093333 18.4466563,45.7998596 17.6290938,45.7998596 C17.3876875,45.7998596 17.1977813,45.7514386 17.0529375,45.7030175 L16.9113125,45.7030175 L16.7181875,45.6094035 L16.6699063,45.6094035 L16.6699063,45.5609825 C16.4285,45.4157193 16.2385938,45.2704561 16.09375,45.0283509 L15.9489063,44.7410526 C15.5175938,45.2704561 14.9414375,45.6094035 14.2204375,45.7998596 C13.8341875,45.8934737 13.4994375,45.9451228 13.1614688,45.9451228 C11.1915938,45.9451228 9.80109375,44.5957895 9.80109375,42.6202105 C9.80109375,40.5477895 11.2430938,39.2985263 13.402875,39.2985263 C13.737625,39.2985263 13.8824688,39.2985263 14.2204375,39.3469474 C14.8931563,39.4922105 15.4210313,39.8279298 15.8072813,40.3121404 C15.8555625,40.2152982 15.8555625,40.0700351 15.8555625,39.8311579 C15.8555625,38.6270877 15.3276875,37.9524211 14.2236563,37.7587368 C13.8889063,37.7070877 13.5992188,37.7070877 13.26125,37.7070877 C12.3503438,37.7070877 11.5327813,37.8523509 10.6186563,38.042807 C10.9534063,37.4649825 11.0499688,37.0808421 11.3879375,36.890386 C11.677625,36.6482807 12.4919688,36.5030175 13.7923438,36.5030175 L14.2236563,36.5030175 C17.2492813,36.5514386 18.3565313,37.7070877 18.3565313,40.2120702 L18.3565313,43.3465263 L18.3533125,43.3465263 L18.3533125,43.3465263 Z M14.2204375,44.5957895 C15.3244688,44.5957895 15.8523438,43.9211228 15.8523438,42.5233684 C15.8523438,41.2224561 15.3244688,40.5929825 14.2204375,40.5929825 C13.1164063,40.6478596 12.48875,41.2708772 12.48875,42.5717895 C12.48875,43.7790877 13.20975,44.5957895 14.2204375,44.5957895 L14.2204375,44.5957895 L14.2204375,44.5957895 Z" id="Shape"></path>
                            </g>
                        </g>
                    </g>
                </g>
            </g>
        </g>
    </g>
</svg>