<?xml version="1.0" encoding="UTF-8" standalone="no"?>
<svg width="186px" height="237px" viewBox="0 0 186 237" version="1.1" xmlns="http://www.w3.org/2000/svg" xmlns:xlink="http://www.w3.org/1999/xlink">
    <!-- Generator: Sketch 3.7.2 (28276) - http://www.bohemiancoding.com/sketch -->
    <title>1</title>
    <desc>Created with Sketch.</desc>
    <defs></defs>
    <g id="web-site" stroke="none" stroke-width="1" fill="none" fill-rule="evenodd">
        <g id="Desktop-HD-Copy-7" transform="translate(-1244.000000, -3819.000000)" fill="#405669">
            <g id="Group-31" transform="translate(-26.000000, 3819.000000)">
                <g id="合成-1_00000">
                    <g id="1" transform="translate(1270.000000, 0.000000)">
                        <circle id="Oval-358-Copy-904" cx="184.5" cy="235.5" r="1.5"></circle>
                        <circle id="Oval-358-Copy-874" cx="184.5" cy="222.5" r="1.5"></circle>
                        <circle id="Oval-358-Copy-844" cx="184.5" cy="209.5" r="1.5"></circle>
                        <circle id="Oval-358-Copy-843" cx="171.5" cy="209.5" r="1.5"></circle>
                        <circle id="Oval-358-Copy-842" cx="158.5" cy="209.5" r="1.5"></circle>
                        <circle id="Oval-358-Copy-814" cx="184.5" cy="196.5" r="1.5"></circle>
                        <circle id="Oval-358-Copy-813" cx="171.5" cy="196.5" r="1.5"></circle>
                        <circle id="Oval-358-Copy-812" cx="158.5" cy="196.5" r="1.5"></circle>
                        <circle id="Oval-358-Copy-784" cx="184.5" cy="183.5" r="1.5"></circle>
                        <circle id="Oval-358-Copy-783" cx="171.5" cy="183.5" r="1.5"></circle>
                        <circle id="Oval-358-Copy-1183" cx="132.5" cy="235.5" r="1.5"></circle>
                        <circle id="Oval-358-Copy-782" cx="158.5" cy="183.5" r="1.5"></circle>
                        <circle id="Oval-358-Copy-1184" cx="119.5" cy="235.5" r="1.5"></circle>
                        <circle id="Oval-358-Copy-781" cx="145.5" cy="183.5" r="1.5"></circle>
                        <circle id="Oval-358-Copy-1185" cx="106.5" cy="235.5" r="1.5"></circle>
                        <circle id="Oval-358-Copy-780" cx="132.5" cy="183.5" r="1.5"></circle>
                        <circle id="Oval-358-Copy-1193" cx="93.5" cy="235.5" r="1.5"></circle>
                        <circle id="Oval-358-Copy-779" cx="119.5" cy="183.5" r="1.5"></circle>
                        <circle id="Oval-358-Copy-1194" cx="80.5" cy="235.5" r="1.5"></circle>
                        <circle id="Oval-358-Copy-754" cx="184.5" cy="170.5" r="1.5"></circle>
                        <circle id="Oval-358-Copy-753" cx="171.5" cy="170.5" r="1.5"></circle>
                        <circle id="Oval-358-Copy-1196" cx="132.5" cy="222.5" r="1.5"></circle>
                        <circle id="Oval-358-Copy-752" cx="158.5" cy="170.5" r="1.5"></circle>
                        <circle id="Oval-358-Copy-1197" cx="119.5" cy="222.5" r="1.5"></circle>
                        <circle id="Oval-358-Copy-751" cx="145.5" cy="170.5" r="1.5"></circle>
                        <circle id="Oval-358-Copy-750" cx="132.5" cy="170.5" r="1.5"></circle>
                        <circle id="Oval-358-Copy-1199" cx="93.5" cy="222.5" r="1.5"></circle>
                        <circle id="Oval-358-Copy-749" cx="119.5" cy="170.5" r="1.5"></circle>
                        <circle id="Oval-358-Copy-1200" cx="80.5" cy="222.5" r="1.5"></circle>
                        <circle id="Oval-358-Copy-724" cx="184.5" cy="157.5" r="1.5"></circle>
                        <circle id="Oval-358-Copy-723" cx="171.5" cy="157.5" r="1.5"></circle>
                        <circle id="Oval-358-Copy-722" cx="158.5" cy="157.5" r="1.5"></circle>
                        <circle id="Oval-358-Copy-721" cx="145.5" cy="157.5" r="1.5"></circle>
                        <circle id="Oval-358-Copy-1204" cx="106.5" cy="209.5" r="1.5"></circle>
                        <circle id="Oval-358-Copy-720" cx="132.5" cy="157.5" r="1.5"></circle>
                        <circle id="Oval-358-Copy-1205" cx="93.5" cy="209.5" r="1.5"></circle>
                        <circle id="Oval-358-Copy-719" cx="119.5" cy="157.5" r="1.5"></circle>
                        <circle id="Oval-358-Copy-1206" cx="80.5" cy="209.5" r="1.5"></circle>
                        <circle id="Oval-358-Copy-694" cx="184.5" cy="144.5" r="1.5"></circle>
                        <circle id="Oval-358-Copy-693" cx="171.5" cy="144.5" r="1.5"></circle>
                        <circle id="Oval-358-Copy-692" cx="158.5" cy="144.5" r="1.5"></circle>
                        <circle id="Oval-358-Copy-691" cx="145.5" cy="144.5" r="1.5"></circle>
                        <circle id="Oval-358-Copy-690" cx="132.5" cy="144.5" r="1.5"></circle>
                        <circle id="Oval-358-Copy-689" cx="119.5" cy="144.5" r="1.5"></circle>
                        <circle id="Oval-358-Copy-687" cx="93.5" cy="144.5" r="1.5"></circle>
                        <circle id="Oval-358-Copy-664" cx="184.5" cy="131.5" r="1.5"></circle>
                        <circle id="Oval-358-Copy-663" cx="171.5" cy="131.5" r="1.5"></circle>
                        <circle id="Oval-358-Copy-662" cx="158.5" cy="131.5" r="1.5"></circle>
                        <circle id="Oval-358-Copy-661" cx="145.5" cy="131.5" r="1.5"></circle>
                        <circle id="Oval-358-Copy-660" cx="132.5" cy="131.5" r="1.5"></circle>
                        <circle id="Oval-358-Copy-659" cx="119.5" cy="131.5" r="1.5"></circle>
                        <circle id="Oval-358-Copy-657" cx="93.5" cy="131.5" r="1.5"></circle>
                        <circle id="Oval-358-Copy-634" cx="184.5" cy="118.5" r="1.5"></circle>
                        <circle id="Oval-358-Copy-633" cx="171.5" cy="118.5" r="1.5"></circle>
                        <circle id="Oval-358-Copy-632" cx="158.5" cy="118.5" r="1.5"></circle>
                        <circle id="Oval-358-Copy-631" cx="145.5" cy="118.5" r="1.5"></circle>
                        <circle id="Oval-358-Copy-630" cx="132.5" cy="118.5" r="1.5"></circle>
                        <circle id="Oval-358-Copy-629" cx="119.5" cy="118.5" r="1.5"></circle>
                        <circle id="Oval-358-Copy-627" cx="93.5" cy="118.5" r="1.5"></circle>
                        <circle id="Oval-358-Copy-604" cx="184.5" cy="105.5" r="1.5"></circle>
                        <circle id="Oval-358-Copy-603" cx="171.5" cy="105.5" r="1.5"></circle>
                        <circle id="Oval-358-Copy-602" cx="158.5" cy="105.5" r="1.5"></circle>
                        <circle id="Oval-358-Copy-601" cx="145.5" cy="105.5" r="1.5"></circle>
                        <circle id="Oval-358-Copy-600" cx="132.5" cy="105.5" r="1.5"></circle>
                        <circle id="Oval-358-Copy-598" cx="106.5" cy="105.5" r="1.5"></circle>
                        <circle id="Oval-358-Copy-597" cx="93.5" cy="105.5" r="1.5"></circle>
                        <circle id="Oval-358-Copy-574" cx="184.5" cy="92.5" r="1.5"></circle>
                        <circle id="Oval-358-Copy-573" cx="171.5" cy="92.5" r="1.5"></circle>
                        <circle id="Oval-358-Copy-572" cx="158.5" cy="92.5" r="1.5"></circle>
                        <circle id="Oval-358-Copy-544" cx="184.5" cy="79.5" r="1.5"></circle>
                        <circle id="Oval-358-Copy-543" cx="171.5" cy="79.5" r="1.5"></circle>
                        <circle id="Oval-358-Copy-542" cx="158.5" cy="79.5" r="1.5"></circle>
                        <circle id="Oval-358-Copy-514" cx="184.5" cy="66.5" r="1.5"></circle>
                        <circle id="Oval-358-Copy-513" cx="171.5" cy="66.5" r="1.5"></circle>
                        <circle id="Oval-358-Copy-512" cx="158.5" cy="66.5" r="1.5"></circle>
                        <circle id="Oval-358-Copy-511" cx="145.5" cy="66.5" r="1.5"></circle>
                        <circle id="Oval-358-Copy-510" cx="132.5" cy="66.5" r="1.5"></circle>
                        <circle id="Oval-358-Copy-509" cx="119.5" cy="66.5" r="1.5"></circle>
                        <circle id="Oval-358-Copy-508" cx="106.5" cy="66.5" r="1.5"></circle>
                        <circle id="Oval-358-Copy-507" cx="93.5" cy="66.5" r="1.5"></circle>
                        <circle id="Oval-358-Copy-484" cx="184.5" cy="53.5" r="1.5"></circle>
                        <circle id="Oval-358-Copy-483" cx="171.5" cy="53.5" r="1.5"></circle>
                        <circle id="Oval-358-Copy-482" cx="158.5" cy="53.5" r="1.5"></circle>
                        <circle id="Oval-358-Copy-481" cx="145.5" cy="53.5" r="1.5"></circle>
                        <circle id="Oval-358-Copy-480" cx="132.5" cy="53.5" r="1.5"></circle>
                        <circle id="Oval-358-Copy-479" cx="119.5" cy="53.5" r="1.5"></circle>
                        <circle id="Oval-358-Copy-478" cx="106.5" cy="53.5" r="1.5"></circle>
                        <circle id="Oval-358-Copy-477" cx="93.5" cy="53.5" r="1.5"></circle>
                        <circle id="Oval-358-Copy-459" cx="79.5" cy="105.5" r="1.5"></circle>
                        <circle id="Oval-358-Copy-460" cx="66.5" cy="105.5" r="1.5"></circle>
                        <circle id="Oval-358-Copy-454" cx="184.5" cy="40.5" r="1.5"></circle>
                        <circle id="Oval-358-Copy-453" cx="171.5" cy="40.5" r="1.5"></circle>
                        <circle id="Oval-358-Copy-1208" cx="40.5" cy="105.5" r="1.5"></circle>
                        <circle id="Oval-358-Copy-452" cx="158.5" cy="40.5" r="1.5"></circle>
                        <circle id="Oval-358-Copy-1209" cx="27.5" cy="105.5" r="1.5"></circle>
                        <circle id="Oval-358-Copy-451" cx="145.5" cy="40.5" r="1.5"></circle>
                        <circle id="Oval-358-Copy-450" cx="132.5" cy="40.5" r="1.5"></circle>
                        <circle id="Oval-358-Copy-1214" cx="1.5" cy="105.5" r="1.5"></circle>
                        <circle id="Oval-358-Copy-449" cx="119.5" cy="40.5" r="1.5"></circle>
                        <circle id="Oval-358-Copy-448" cx="106.5" cy="40.5" r="1.5"></circle>
                        <circle id="Oval-358-Copy-428" cx="93.5" cy="92.5" r="1.5"></circle>
                        <circle id="Oval-358-Copy-429" cx="79.5" cy="92.5" r="1.5"></circle>
                        <circle id="Oval-358-Copy-430" cx="66.5" cy="92.5" r="1.5"></circle>
                        <circle id="Oval-358-Copy-424" cx="184.5" cy="27.5" r="1.5"></circle>
                        <circle id="Oval-358-Copy-447" cx="53.5" cy="92.5" r="1.5"></circle>
                        <circle id="Oval-358-Copy-423" cx="171.5" cy="27.5" r="1.5"></circle>
                        <circle id="Oval-358-Copy-1217" cx="40.5" cy="92.5" r="1.5"></circle>
                        <circle id="Oval-358-Copy-422" cx="158.5" cy="27.5" r="1.5"></circle>
                        <circle id="Oval-358-Copy-421" cx="145.5" cy="27.5" r="1.5"></circle>
                        <circle id="Oval-358-Copy-1221" cx="14.5" cy="92.5" r="1.5"></circle>
                        <circle id="Oval-358-Copy-420" cx="132.5" cy="27.5" r="1.5"></circle>
                        <circle id="Oval-358-Copy-419" cx="119.5" cy="27.5" r="1.5"></circle>
                        <circle id="Oval-358-Copy-418" cx="106.5" cy="27.5" r="1.5"></circle>
                        <circle id="Oval-358-Copy-398" cx="93.5" cy="79.5" r="1.5"></circle>
                        <circle id="Oval-358-Copy-399" cx="79.5" cy="79.5" r="1.5"></circle>
                        <circle id="Oval-358-Copy-400" cx="66.5" cy="79.5" r="1.5"></circle>
                        <circle id="Oval-358-Copy-394" cx="184.5" cy="14.5" r="1.5"></circle>
                        <circle id="Oval-358-Copy-407" cx="53.5" cy="79.5" r="1.5"></circle>
                        <circle id="Oval-358-Copy-393" cx="171.5" cy="14.5" r="1.5"></circle>
                        <circle id="Oval-358-Copy-392" cx="158.5" cy="14.5" r="1.5"></circle>
                        <circle id="Oval-358-Copy-391" cx="145.5" cy="14.5" r="1.5"></circle>
                        <circle id="Oval-358-Copy-390" cx="132.5" cy="14.5" r="1.5"></circle>
                        <circle id="Oval-358-Copy-389" cx="119.5" cy="14.5" r="1.5"></circle>
                        <circle id="Oval-358-Copy-388" cx="106.5" cy="14.5" r="1.5"></circle>
                        <circle id="Oval-358-Copy-369" cx="79.5" cy="66.5" r="1.5"></circle>
                        <circle id="Oval-358-Copy-364" cx="184.5" cy="1.5" r="1.5"></circle>
                        <circle id="Oval-358-Copy-371" cx="53.5" cy="66.5" r="1.5"></circle>
                        <circle id="Oval-358-Copy-363" cx="171.5" cy="1.5" r="1.5"></circle>
                        <circle id="Oval-358-Copy-362" cx="158.5" cy="1.5" r="1.5"></circle>
                        <circle id="Oval-358-Copy-361" cx="145.5" cy="1.5" r="1.5"></circle>
                        <circle id="Oval-358-Copy-377" cx="14.5" cy="66.5" r="1.5"></circle>
                    </g>
                </g>
            </g>
        </g>
    </g>
</svg>