<?xml version="1.0" encoding="UTF-8" standalone="no"?>
<svg width="760px" height="112px" viewBox="0 0 760 112" version="1.1" xmlns="http://www.w3.org/2000/svg" xmlns:xlink="http://www.w3.org/1999/xlink">
    <!-- Generator: Sketch Beta 3.6 (26304) - http://www.bohemiancoding.com/sketch -->
    <title>Group 25</title>
    <desc>Created with Sketch Beta.</desc>
    <defs></defs>
    <g id="web-site" stroke="none" stroke-width="1" fill="none" fill-rule="evenodd">
        <g id="Desktop-HD-Copy-6" transform="translate(-364.000000, -207.000000)" stroke="#162F45" fill="#152A3D">
            <g id="Group-25" transform="translate(-1.000000, 59.000000)">
                <g transform="translate(366.000000, 149.000000)">
                    <polygon id="Polygon-25" fill-opacity="0.29517663" transform="translate(81.500000, 112.500000) rotate(-270.000000) translate(-81.500000, -112.500000) " points="81.5 80 109.645826 96.25 109.645826 128.75 81.5 145 53.3541744 128.75 53.3541744 96.25 "></polygon>
                    <polygon id="Polygon-25-Copy" fill-opacity="0.29517663" transform="translate(130.500000, 84.500000) rotate(-270.000000) translate(-130.500000, -84.500000) " points="130.5 52 158.645826 68.25 158.645826 100.75 130.5 117 102.354174 100.75 102.354174 68.25 "></polygon>
                    <polygon id="Polygon-25-Copy-2" fill-opacity="0.29517663" transform="translate(130.500000, 28.500000) rotate(-270.000000) translate(-130.500000, -28.500000) " points="130.5 -4 158.645826 12.25 158.645826 44.75 130.5 61 102.354174 44.75 102.354174 12.25 "></polygon>
                    <polygon id="Polygon-25-Copy-3" fill-opacity="0.577587183" transform="translate(179.500000, 56.500000) rotate(-270.000000) translate(-179.500000, -56.500000) " points="179.5 24 207.645826 40.25 207.645826 72.75 179.5 89 151.354174 72.75 151.354174 40.25 "></polygon>
                    <polygon id="Polygon-25-Copy-4" fill-opacity="0.29517663" transform="translate(179.500000, 112.500000) rotate(-270.000000) translate(-179.500000, -112.500000) " points="179.5 80 207.645826 96.25 207.645826 128.75 179.5 145 151.354174 128.75 151.354174 96.25 "></polygon>
                    <polygon id="Polygon-25-Copy-5" fill-opacity="0.29517663" transform="translate(228.500000, 84.500000) rotate(-270.000000) translate(-228.500000, -84.500000) " points="228.5 52 256.645826 68.25 256.645826 100.75 228.5 117 200.354174 100.75 200.354174 68.25 "></polygon>
                    <polygon id="Polygon-25-Copy-6" fill-opacity="0.29517663" transform="translate(277.500000, 56.500000) rotate(-270.000000) translate(-277.500000, -56.500000) " points="277.5 24 305.645826 40.25 305.645826 72.75 277.5 89 249.354174 72.75 249.354174 40.25 "></polygon>
                    <polygon id="Polygon-25-Copy-7" fill-opacity="0.29517663" transform="translate(277.500000, 112.500000) rotate(-270.000000) translate(-277.500000, -112.500000) " points="277.5 80 305.645826 96.25 305.645826 128.75 277.5 145 249.354174 128.75 249.354174 96.25 "></polygon>
                    <polygon id="Polygon-25-Copy-8" fill-opacity="0.29517663" transform="translate(326.500000, 84.500000) rotate(-270.000000) translate(-326.500000, -84.500000) " points="326.5 52 354.645826 68.25 354.645826 100.75 326.5 117 298.354174 100.75 298.354174 68.25 "></polygon>
                    <polygon id="Polygon-25-Copy-18" fill-opacity="0.29517663" transform="translate(32.500000, 84.500000) rotate(-270.000000) translate(-32.500000, -84.500000) " points="32.5 52 60.6458256 68.25 60.6458256 100.75 32.5 117 4.35417438 100.75 4.35417438 68.25 "></polygon>
                    <polygon id="Polygon-25-Copy-14" fill-opacity="0.29517663" transform="translate(627.500000, 88.500000) rotate(-270.000000) translate(-627.500000, -88.500000) " points="627.5 56 655.645826 72.25 655.645826 104.75 627.5 121 599.354174 104.75 599.354174 72.25 "></polygon>
                    <polygon id="Polygon-25-Copy-15" fill-opacity="0.29517663" transform="translate(676.500000, 60.500000) rotate(-270.000000) translate(-676.500000, -60.500000) " points="676.5 28 704.645826 44.25 704.645826 76.75 676.5 93 648.354174 76.75 648.354174 44.25 "></polygon>
                    <polygon id="Polygon-25-Copy-16" fill-opacity="0.29517663" transform="translate(676.500000, 116.500000) rotate(-270.000000) translate(-676.500000, -116.500000) " points="676.5 84 704.645826 100.25 704.645826 132.75 676.5 149 648.354174 132.75 648.354174 100.25 "></polygon>
                    <polygon id="Polygon-25-Copy-17" fill-opacity="0.29517663" transform="translate(725.500000, 88.500000) rotate(-270.000000) translate(-725.500000, -88.500000) " points="725.5 56 753.645826 72.25 753.645826 104.75 725.5 121 697.354174 104.75 697.354174 72.25 "></polygon>
                    <polygon id="Polygon-25-Copy-9" fill-opacity="0.577587183" transform="translate(427.500000, 99.500000) rotate(-270.000000) translate(-427.500000, -99.500000) " points="427.5 67 455.645826 83.25 455.645826 115.75 427.5 132 399.354174 115.75 399.354174 83.25 "></polygon>
                    <polygon id="Polygon-25-Copy-10" fill-opacity="0.29517663" transform="translate(476.500000, 71.500000) rotate(-270.000000) translate(-476.500000, -71.500000) " points="476.5 39 504.645826 55.25 504.645826 87.75 476.5 104 448.354174 87.75 448.354174 55.25 "></polygon>
                    <polygon id="Polygon-25-Copy-11" fill-opacity="0.29517663" transform="translate(476.500000, 127.500000) rotate(-270.000000) translate(-476.500000, -127.500000) " points="476.5 95 504.645826 111.25 504.645826 143.75 476.5 160 448.354174 143.75 448.354174 111.25 "></polygon>
                    <polygon id="Polygon-25-Copy-12" fill-opacity="0.577587183" transform="translate(525.500000, 43.500000) rotate(-270.000000) translate(-525.500000, -43.500000) " points="525.5 11 553.645826 27.25 553.645826 59.75 525.5 76 497.354174 59.75 497.354174 27.25 "></polygon>
                    <polygon id="Polygon-25-Copy-13" fill-opacity="0.29517663" transform="translate(525.500000, 99.500000) rotate(-270.000000) translate(-525.500000, -99.500000) " points="525.5 67 553.645826 83.25 553.645826 115.75 525.5 132 497.354174 115.75 497.354174 83.25 "></polygon>
                </g>
            </g>
        </g>
    </g>
</svg>