<?xml version="1.0" encoding="UTF-8" standalone="no"?>
<svg width="838px" height="81px" viewBox="0 0 838 81" version="1.1" xmlns="http://www.w3.org/2000/svg" xmlns:xlink="http://www.w3.org/1999/xlink">
    <!-- Generator: Sketch Beta 3.7.2 (28276) - http://www.bohemiancoding.com/sketch -->
    <title>Group 2</title>
    <desc>Created with Sketch Beta.</desc>
    <defs></defs>
    <g id="Page-1" stroke="none" stroke-width="1" fill="none" fill-rule="evenodd">
        <g id="Tablet-Portrait-Copy-2" transform="translate(-58.000000, -86.000000)">
            <g id="Group-2" transform="translate(59.000000, 87.000000)">
                <g id="Group" stroke="#22B07B" fill="#22B07B">
                    <ellipse id="Oval-1" cx="14.2723881" cy="14.22" rx="14.2723881" ry="14.22"></ellipse>
                    <path d="M53.1193751,55.6429113 C55.2013774,58.1140789 56.4552239,61.3011512 56.4552239,64.78 C56.4552239,72.6334891 50.0652581,79 42.1828358,79 C34.3004136,79 27.9104478,72.6334891 27.9104478,64.78 C27.9104478,56.9265109 34.3004136,50.56 42.1828358,50.56 C42.8355124,50.56 43.4779565,50.6036494 44.107388,50.6881781 C52.489182,44.9393518 58.0408834,34.8117019 60.0787381,23.6880944 C57.8251047,21.1737391 56.4552239,17.8562587 56.4552239,14.22 C56.4552239,6.36651086 62.8451897,0 70.7276119,0 C78.6100342,0 85,6.36651086 85,14.22 C85,22.0734891 78.6100342,28.44 70.7276119,28.44 C70.1405379,28.44 69.5617428,28.4046843 68.9932498,28.3360689 C61.6817418,34.6537708 55.3708327,45.7594375 53.1193751,55.6429113 Z" id="Combined-Shape"></path>
                </g>
                <g id="Group-3" transform="translate(124.000000, 11.000000)" fill="#FFFFFF">
                    <path d="M21.5686275,0 L0,56 L9.09803922,56 L14.3529412,41.5686275 L38.4313725,41.5686275 L43.6862745,56 L52.8627451,56 L31.2941176,0 L21.5686275,0 Z M16.9411765,34.5098039 L26.2745098,9.17647059 L26.5882353,9.17647059 L35.8431373,34.5098039 L16.9411765,34.5098039 Z M78.1176471,14.3529412 C75.6078431,14.3529412 73.3333333,14.8235294 71.2941176,15.9215686 C69.254902,16.9411765 67.4509804,18.4313725 65.8823529,20.4705882 L65.8823529,15.4509804 L57.5686275,15.4509804 L57.5686275,56 L65.8823529,56 L65.8823529,31.6078431 C66.1960784,28.3137255 67.372549,25.7254902 69.254902,23.8431373 C70.9803922,22.1176471 73.0980392,21.3333333 75.4509804,21.3333333 C81.7254902,21.3333333 84.9411765,24.7843137 84.9411765,31.6862745 L84.9411765,56 L93.254902,56 L93.254902,30.9803922 C93.254902,19.8431373 88.1568627,14.3529412 78.1176471,14.3529412 L78.1176471,14.3529412 Z M115.058824,2.35294118 L106.745098,5.80392157 L106.745098,15.4509804 L99.2156863,15.4509804 L99.2156863,22.3529412 L106.745098,22.3529412 L106.745098,45.8823529 C106.745098,49.0980392 107.45098,51.5294118 109.019608,53.254902 C110.588235,55.0588235 113.176471,56 116.627451,56 L123.294118,56 L123.294118,49.0980392 L117.960784,49.0980392 C116.941176,49.0980392 116.235294,48.7843137 115.764706,48.3137255 C115.294118,47.7647059 115.058824,46.9803922 115.058824,45.8823529 L115.058824,22.3529412 L124.313725,22.3529412 L124.313725,15.4509804 L115.058824,15.4509804 L115.058824,2.35294118 Z M126.666667,0 L146.745098,56 L157.098039,56 L177.176471,0 L167.921569,0 L152.078431,46.4313725 L151.843137,46.4313725 L135.921569,0 L126.666667,0 Z" id="AntV"></path>
                    <path d="M208,26.5854795 L208,29.9191781 L249.624932,29.9191781 L249.624932,26.5854795 L208,26.5854795 Z M283.795342,19.3161644 L267.543562,19.3161644 C269.673425,17.8345205 271.525479,16.1676712 273.099726,14.3156164 L278.331781,14.3156164 C279.720822,16.0750685 281.526575,17.7419178 283.795342,19.3161644 L283.795342,19.3161644 Z M281.943288,14.3156164 L294.398356,14.3156164 L294.398356,11.259726 L275.27589,11.259726 C275.92411,10.1484932 276.526027,8.9909589 276.989041,7.78712329 L273.747945,7.41671233 C273.192329,8.75945205 272.497808,10.0558904 271.618082,11.259726 L255.829315,11.259726 L255.829315,14.3156164 L268.932603,14.3156164 C265.552603,17.4641096 260.644658,20.0569863 254.208767,22.0016438 L255.783014,24.8260274 C258.607397,23.9463014 261.200274,22.8813699 263.607945,21.6775342 L263.607945,35.9846575 L255.181096,35.9846575 L255.181096,38.9942466 L266.987945,38.9942466 C264.395068,43.7169863 261.941096,46.1709589 259.672329,46.3561644 L260.505753,49.1342466 C269.85863,48.7638356 278.841096,47.9767123 287.406849,46.7265753 C288.008767,47.7452055 288.610685,48.810137 289.212603,49.9676712 L292.222192,48.6249315 C290.416438,45.3375342 288.286575,42.2816438 285.832603,39.4109589 L282.961918,40.3832877 C283.887945,41.4945205 284.767671,42.6983562 285.647397,43.9947945 C279.257808,45.0134247 272.54411,45.7079452 265.598904,46.0783562 C267.265753,44.4115068 269.025205,42.050137 270.87726,38.9942466 L295.000274,38.9942466 L295.000274,35.9846575 L266.849041,35.9846575 L266.849041,33.0676712 L288.332877,33.0676712 L288.332877,30.3821918 L266.849041,30.3821918 L266.849041,27.6041096 L288.332877,27.6041096 L288.332877,24.9186301 L266.849041,24.9186301 L266.849041,22.0942466 L286.017808,22.0942466 L286.017808,20.7052055 C288.471781,22.1405479 291.388767,23.4369863 294.768767,24.6408219 L296.250411,21.5386301 C289.860822,19.7791781 285.091781,17.3715068 281.943288,14.3156164 L281.943288,14.3156164 Z M300.649041,21.5386301 L300.649041,24.779726 L312.965205,24.779726 C311.992877,27.9745205 310.927945,31.030411 309.816712,33.9936986 L332.689589,33.9936986 C330.235616,37.049589 326.855616,40.0128767 322.59589,42.7909589 C319.401096,41.679726 316.067397,40.6147945 312.594795,39.6887671 L310.835342,42.2816438 C318.19726,44.2726027 325.373973,46.9580822 332.319178,50.3843836 L334.171233,47.4673973 C331.624658,46.2635616 328.939178,45.1060274 326.161096,44.0873973 C330.930137,40.6610959 334.40274,37.1884932 336.625205,33.7621918 L336.625205,30.8915068 L314.585753,30.8915068 C315.233973,28.9931507 315.928493,26.9558904 316.576712,24.779726 L342.227671,24.779726 L342.227671,21.5386301 L317.456438,21.5386301 C317.919452,19.7328767 318.382466,17.8345205 318.845479,15.7972603 L339.49589,15.7972603 L339.49589,12.6950685 L319.54,12.6950685 C319.910411,11.0282192 320.234521,9.22246575 320.604932,7.37041096 L317.17863,7.09260274 C316.808219,8.94465753 316.437808,10.7967123 316.021096,12.6950685 L303.797534,12.6950685 L303.797534,15.7972603 L315.326575,15.7972603 C314.863562,17.7419178 314.400548,19.640274 313.891233,21.5386301 L300.649041,21.5386301 Z M361.026027,7.87972603 L361.026027,44.6893151 L347.228219,44.6893151 L347.228219,47.930411 L388.251233,47.930411 L388.251233,44.6893151 L374.360822,44.6893151 L374.360822,7.87972603 L370.980822,7.87972603 L370.980822,44.6893151 L364.406027,44.6893151 L364.406027,7.87972603 L361.026027,7.87972603 Z M384.037808,16.3065753 C382.046849,24.779726 379.685479,31.7712329 377,37.2347945 L380.009589,38.299726 C382.833973,32.2342466 385.149041,25.1964384 387.001096,17.14 L384.037808,16.3065753 Z M351.210137,16.2139726 L348.385753,17.14 C350.886027,23.9926027 352.969589,31.1230137 354.636438,38.5312329 L357.692329,37.7441096 C355.793973,29.6413699 353.617808,22.4646575 351.210137,16.2139726 L351.210137,16.2139726 Z M421.356712,17.6956164 L428.209315,17.6956164 C428.02411,23.9463014 427.051781,29.409863 425.246027,34.0863014 C423.393973,30.1969863 421.912329,25.5205479 420.754795,20.1032877 L421.356712,17.6956164 Z M423.718082,37.42 C421.588219,41.3556164 418.763836,44.550411 415.152329,47.0506849 L416.865479,49.8287671 C420.338082,47.3284932 423.208767,44.2263014 425.431233,40.5221918 C427.746301,44.4115068 430.524384,47.56 433.765479,49.8750685 L435.571233,47.1432877 C432.237534,44.8745205 429.413151,41.679726 427.005479,37.5126027 C429.598356,32.0490411 431.033699,25.4279452 431.265205,17.6956164 L434.274795,17.6956164 L434.274795,14.5008219 L422.051233,14.5008219 C422.421644,12.4635616 422.792055,10.2410959 423.069863,7.87972603 L419.828767,7.32410959 C418.90274,16.1213699 417.050685,23.1128767 414.318904,28.2986301 L416.402466,30.8452055 C417.374795,29.1783562 418.300822,27.28 419.134247,25.150137 C420.384384,29.780274 421.912329,33.8547945 423.718082,37.42 L423.718082,37.42 Z M401.771233,28.9468493 C401.447123,29.8728767 401.076712,30.8452055 400.66,31.8638356 L393.9,31.8638356 L393.9,34.7808219 L399.363562,34.7808219 C398.437534,36.6328767 397.372603,38.5312329 396.168767,40.5684932 C398.437534,41.4019178 400.567397,42.2816438 402.604658,43.1613699 C399.919178,44.6893151 396.631781,45.9394521 392.835068,46.9580822 L394.409315,49.7361644 C399.039452,48.439726 402.882466,46.7265753 405.938356,44.5967123 C408.670137,45.8005479 411.031507,47.0506849 413.068767,48.2545205 L414.874521,45.6616438 C412.83726,44.550411 410.707397,43.5317808 408.484932,42.5131507 C410.892603,40.2906849 412.605753,37.6515068 413.624384,34.5956164 L413.624384,31.8638356 L403.947397,31.8638356 C404.225205,31.030411 404.549315,30.1969863 404.873425,29.3172603 L401.771233,28.9468493 Z M405.429041,41.2167123 C403.762192,40.5221918 402.00274,39.8739726 400.150685,39.2257534 C401.076712,37.8367123 401.910137,36.3550685 402.650959,34.7808219 L410.614795,34.7808219 C409.503562,37.1884932 407.74411,39.3646575 405.429041,41.2167123 L405.429041,41.2167123 Z M397.557808,8.29643836 L394.91863,9.17616438 C396.029863,10.9356164 397.048493,12.9265753 398.020822,15.1953425 L400.428493,14.0841096 C399.595068,12.0468493 398.669041,10.1021918 397.557808,8.29643836 L397.557808,8.29643836 Z M411.633425,8.15753425 C410.8,10.1021918 409.596164,12.0468493 408.114521,14.0378082 L410.47589,15.2416438 C411.957534,13.2969863 413.115068,11.3060274 414.041096,9.26876712 L411.633425,8.15753425 Z M393.992603,16.3065753 L393.992603,19.2235616 L400.567397,19.2235616 C399.178356,21.770137 396.678082,24.0852055 393.112877,26.1687671 L394.733425,28.8542466 C398.715342,26.1687671 401.493425,23.020274 403.02137,19.3624658 L403.02137,28.159726 L406.123562,28.159726 L406.123562,22.1405479 C407.790411,23.2517808 409.78137,24.7334247 412.096438,26.5854795 L413.809589,23.9926027 C411.216712,22.4183562 408.623836,20.9830137 406.123562,19.7328767 L406.123562,19.2235616 L414.550411,19.2235616 L414.550411,16.3065753 L406.123562,16.3065753 L406.123562,7.4630137 L403.02137,7.4630137 L403.02137,16.3065753 L393.992603,16.3065753 Z M444.785205,49.4583562 C447.378082,49.4583562 448.674521,48.0693151 448.674521,45.3838356 L448.674521,31.8638356 C450.109863,31.2156164 451.545205,30.5673973 452.980548,29.8265753 L452.980548,26.5391781 C451.591507,27.28 450.156164,27.9745205 448.674521,28.6227397 L448.674521,19.5013699 L453.119452,19.5013699 L453.119452,16.3065753 L448.674521,16.3065753 L448.674521,7.55561644 L445.433425,7.55561644 L445.433425,16.3065753 L439.87726,16.3065753 L439.87726,19.5013699 L445.433425,19.5013699 L445.433425,29.9654795 C443.396164,30.7063014 441.266301,31.3545205 439.136438,31.8638356 L439.969863,35.1049315 C441.775616,34.5493151 443.58137,33.9010959 445.433425,33.2065753 L445.433425,44.550411 C445.433425,45.8468493 444.831507,46.5413699 443.673973,46.5413699 C442.56274,46.5413699 441.358904,46.4487671 440.155068,46.309863 L440.849589,49.4583562 L444.785205,49.4583562 Z M458.629315,28.9931507 L468.074795,28.9931507 L468.074795,34.6882192 L460.342466,34.6882192 L460.342466,49.8750685 L463.444658,49.8750685 L463.444658,47.6063014 L475.992329,47.6063014 L475.992329,49.8750685 L479.094521,49.8750685 L479.094521,34.6882192 L471.31589,34.6882192 L471.31589,28.9931507 L481.224384,28.9931507 L481.224384,25.9835616 L471.31589,25.9835616 L471.31589,20.52 L480.020548,20.52 L480.020548,9.26876712 L455.619726,9.26876712 L455.619726,23.7610959 C455.573425,33.4843836 453.906575,41.4482192 450.619178,47.56 L453.212055,49.8750685 C456.267945,43.8558904 458.073699,36.9106849 458.629315,28.9931507 L458.629315,28.9931507 Z M468.074795,20.52 L468.074795,25.9835616 L458.814521,25.9835616 C458.814521,25.2427397 458.860822,24.5019178 458.860822,23.7610959 L458.860822,20.52 L468.074795,20.52 Z M463.444658,44.6430137 L463.444658,37.6515068 L475.992329,37.6515068 L475.992329,44.6430137 L463.444658,44.6430137 Z M476.779452,12.3709589 L476.779452,17.510411 L458.860822,17.510411 L458.860822,12.3709589 L476.779452,12.3709589 Z M486.039726,10.1947945 L486.039726,13.4358904 L517.895068,13.4358904 L517.895068,44.0873973 C517.895068,45.6616438 517.107945,46.4950685 515.626301,46.4950685 C513.311233,46.4950685 510.85726,46.4024658 508.310685,46.309863 L509.051507,49.5509589 L516.783836,49.5509589 C519.747123,49.5509589 521.228767,47.9767123 521.228767,44.9208219 L521.228767,13.4358904 L527.340548,13.4358904 L527.340548,10.1947945 L486.039726,10.1947945 Z M509.421918,20.52 L491.410685,20.52 L491.410685,41.5871233 L494.651781,41.5871233 L494.651781,37.5126027 L509.421918,37.5126027 L509.421918,20.52 Z M494.651781,34.4567123 L494.651781,23.529589 L506.227123,23.529589 L506.227123,34.4567123 L494.651781,34.4567123 Z M538.638082,30.66 L538.638082,49.8750685 L541.925479,49.8750685 L541.925479,30.289589 C543.592329,31.5860274 545.305479,33.160274 546.972329,35.0123288 L548.870685,32.1416438 C546.833425,30.1506849 544.518356,28.3449315 541.971781,26.7706849 C544.472055,23.4832877 546.32411,20.149589 547.527945,16.769589 L547.527945,13.9452055 L541.740274,13.9452055 L543.083014,13.4358904 C542.434795,11.4912329 541.555068,9.31506849 540.443836,7 L537.249041,7.9260274 C538.313973,9.87068493 539.24,11.8616438 540.027123,13.9452055 L532.80411,13.9452055 L532.80411,17.14 L544.194247,17.14 C542.110685,22.2331507 537.943562,27.4189041 531.739178,32.7435616 L532.757808,36.2161644 C534.887671,34.3641096 536.87863,32.5120548 538.638082,30.66 L538.638082,30.66 Z M570.632329,9.26876712 L550.954247,9.26876712 L550.954247,34.8734247 L554.241644,34.8734247 L554.241644,12.4635616 L567.252329,12.4635616 L567.252329,34.8734247 L570.632329,34.8734247 L570.632329,9.26876712 Z M569.66,49.1342466 C571.095342,49.1342466 572.160274,48.7638356 572.854795,48.0693151 C573.595616,47.2358904 574.104932,44.8745205 574.38274,41.0778082 L571.280548,40.1054795 C571.141644,42.9761644 570.863836,44.7356164 570.493425,45.3375342 C570.215616,45.8005479 569.752603,46.0783562 569.058082,46.0783562 L566.187397,46.0783562 C565.168767,46.0783562 564.659452,45.5227397 564.659452,44.4115068 L564.659452,34.7808219 L561.418356,34.7808219 L561.418356,45.1060274 C561.418356,47.7915068 562.668493,49.1342466 565.215068,49.1342466 L569.66,49.1342466 Z M559.056986,15.7509589 L559.056986,24.5945205 C558.964384,30.4284932 557.992055,35.1975342 556.232603,38.8090411 C554.334247,42.3279452 550.954247,45.1060274 546.092603,47.2358904 L547.898356,50.1528767 C552.898904,48.0230137 556.46411,45.0134247 558.686575,41.170411 C560.909041,37.049589 562.112877,31.539726 562.298082,24.5945205 L562.298082,15.7509589 L559.056986,15.7509589 Z M592.162466,7.09260274 C589.199178,14.4082192 584.430137,20.890411 577.855342,26.5391781 L578.920274,30.0117808 C581.374247,27.9745205 583.643014,25.7983562 585.726575,23.529589 L585.726575,49.9676712 L589.060274,49.9676712 L589.060274,19.4550685 C591.560548,16.0287671 593.64411,12.4172603 595.264658,8.52794521 L592.162466,7.09260274 Z M613.507397,49.1342466 C615.729863,49.1342466 617.257808,48.5786301 618.091233,47.4673973 C618.878356,46.3561644 619.433973,43.1150685 619.758082,37.790411 L616.65589,36.7717808 C616.470685,41.3556164 616.146575,44.0410959 615.63726,44.7819178 C615.081644,45.5227397 614.155616,45.9394521 612.951781,45.9394521 L605.450959,45.9394521 C603.876712,45.9394521 603.13589,45.1986301 603.13589,43.7632877 L603.13589,28.1134247 C608.87726,24.5019178 613.92411,20.3810959 618.230137,15.7509589 L615.915068,13.1117808 C612.25726,17.2326027 607.997534,20.9367123 603.13589,24.1778082 L603.13589,7.64821918 L599.802192,7.64821918 L599.802192,26.2150685 C597.440822,27.6041096 594.940548,28.8542466 592.347671,30.0580822 L593.829315,33.2065753 C595.866575,32.2342466 597.857534,31.2156164 599.802192,30.1043836 L599.802192,44.2263014 C599.802192,47.4673973 601.42274,49.1342466 604.663836,49.1342466 L613.507397,49.1342466 Z M625.684658,14.130411 L625.684658,17.3252055 L632.305753,17.3252055 L632.305753,24.9649315 L625.036438,24.9649315 L625.036438,28.2060274 L632.120548,28.2060274 C631.472329,36.9569863 628.925753,43.4854795 624.434521,47.8378082 L626.888493,50.0139726 C630.685205,46.3561644 633.231781,41.2630137 634.574521,34.7345205 C636.380274,36.7254795 638.60274,39.4572603 641.195616,42.9761644 L643.047671,40.1054795 C640.362192,36.9569863 637.676712,34.1326027 635.083836,31.6786301 C635.22274,30.5673973 635.361644,29.409863 635.454247,28.2060274 L642.445753,28.2060274 L642.445753,24.9649315 L635.639452,24.9649315 L635.639452,17.3252055 L641.797534,17.3252055 L641.797534,14.130411 L635.639452,14.130411 L635.639452,7.78712329 L632.305753,7.78712329 L632.305753,14.130411 L625.684658,14.130411 Z M663.28137,9.36136986 L644.529315,9.36136986 L644.529315,34.7808219 L647.72411,34.7808219 L647.72411,12.4635616 L660.086575,12.4635616 L660.086575,34.7808219 L663.28137,34.7808219 L663.28137,9.36136986 Z M662.031233,49.2731507 C663.512877,49.2731507 664.577808,48.9027397 665.31863,48.2082192 C666.059452,47.3747945 666.615068,45.059726 666.892877,41.2630137 L664.022192,40.3369863 C663.836986,43.2076712 663.559178,44.9671233 663.142466,45.5690411 C662.818356,46.0320548 662.26274,46.2635616 661.475616,46.2635616 L659.114247,46.2635616 C658.095616,46.2635616 657.632603,45.7542466 657.632603,44.7356164 L657.632603,35.0123288 L654.623014,35.0123288 L654.623014,45.430137 C654.623014,47.9767123 655.780548,49.2731507 658.188219,49.2731507 L662.031233,49.2731507 Z M652.400548,16.3065753 L652.400548,24.5019178 C652.261644,30.3358904 651.243014,35.1049315 649.344658,38.7627397 C647.307397,42.2816438 643.742192,45.1060274 638.649041,47.189589 L640.408493,50.0139726 C645.594247,47.8378082 649.390959,44.8282192 651.706027,41.0315068 C654.067397,36.9106849 655.317534,31.4008219 655.410137,24.5019178 L655.410137,16.3065753 L652.400548,16.3065753 Z M671.476712,11.5375342 L671.476712,14.639726 L682.403836,14.639726 L682.403836,19.0383562 L685.783836,19.0383562 L685.783836,14.639726 L697.914795,14.639726 L697.914795,19.0383562 L701.294795,19.0383562 L701.294795,14.639726 L712.221918,14.639726 L712.221918,11.5375342 L701.294795,11.5375342 L701.294795,7.37041096 L697.914795,7.37041096 L697.914795,11.5375342 L685.783836,11.5375342 L685.783836,7.37041096 L682.403836,7.37041096 L682.403836,11.5375342 L671.476712,11.5375342 Z M677.49589,18.5753425 L675.180822,20.7515068 C678.329315,22.9276712 680.783288,25.0112329 682.54274,26.9558904 L684.811507,24.6871233 C682.866849,22.649863 680.412877,20.6126027 677.49589,18.5753425 L677.49589,18.5753425 Z M674.578904,26.4465753 L672.310137,28.6227397 C675.412329,30.7526027 677.866301,32.789863 679.625753,34.7345205 L681.894521,32.4657534 C679.903562,30.4284932 677.449589,28.4375342 674.578904,26.4465753 L674.578904,26.4465753 Z M679.996164,36.4476712 C678.236712,40.429589 675.829041,44.5041096 672.865753,48.5786301 L675.967945,50.1991781 C678.792329,46.2172603 681.061096,42.050137 682.820548,37.790411 L679.996164,36.4476712 Z M704.952603,23.6221918 L704.952603,32.2805479 C704.952603,33.3917808 704.304384,33.9936986 703.100548,33.9936986 C701.433699,33.9936986 699.627945,33.9010959 697.636986,33.7621918 L698.42411,36.9106849 C700.322466,37.0032877 702.267123,37.049589 704.304384,37.049589 C706.89726,36.9569863 708.193699,35.7068493 708.24,33.2991781 L708.24,20.6589041 L688.191507,20.6589041 L688.191507,44.6893151 C688.191507,47.56 689.673151,49.0416438 692.68274,49.0416438 L705.091507,49.0416438 C707.499178,49.0416438 709.119726,48.6249315 709.999452,47.7915068 C710.925479,46.7728767 711.573699,44.0410959 711.94411,39.5961644 L708.749315,38.5775342 C708.517808,41.5408219 708.147397,43.5317808 707.638082,44.550411 C707.22137,45.430137 706.063836,45.8931507 704.211781,45.8931507 L693.979178,45.8931507 C692.35863,45.8931507 691.571507,45.1060274 691.571507,43.5780822 L691.571507,23.6221918 L704.952603,23.6221918 Z" id="一套专业数据可视化规范"></path>
                </g>
            </g>
        </g>
    </g>
</svg>