<?xml version="1.0" encoding="UTF-8" standalone="no"?>
<svg width="157px" height="47px" viewBox="0 0 157 47" version="1.1" xmlns="http://www.w3.org/2000/svg" xmlns:xlink="http://www.w3.org/1999/xlink">
    <!-- Generator: Sketch Beta 3.6 (26304) - http://www.bohemiancoding.com/sketch -->
    <title>Group 17</title>
    <desc>Created with Sketch Beta.</desc>
    <defs></defs>
    <g id="web-site" stroke="none" stroke-width="1" fill="none" fill-rule="evenodd">
        <g id="Desktop-HD-Copy-7" transform="translate(-755.000000, -4299.000000)" fill="#B9C1C9">
            <g id="Group-6-Copy" transform="translate(0.000000, 4239.000000)">
                <g id="Group-30">
                    <g id="Group-18" transform="translate(290.000000, 58.000000)">
                        <g id="Group-17" transform="translate(465.000000, 2.000000)">
                            <g id="iconfont-aliyun">
                                <g id="图形">
                                    <path d="M45.9391721,8.90855017 C47.3022745,16.6753331 47.3022745,30.1622469 45.9391721,38.0864647 C44.9954858,43.7016389 43.7896645,45.0135955 38.0751198,46.0106825 C30.2110675,47.2701608 16.9470327,47.3751173 8.92569936,45.9582042 C3.26358169,44.9611172 2.05776033,43.8065954 1.06164706,38.0864647 C-0.353882369,30.2672034 -0.353882369,16.8852462 1.06164706,8.90855017 C2.05776033,3.29337591 3.2111547,2.03389762 8.92569936,1.03681058 C16.7373246,-0.380102461 30.1586405,-0.327624228 38.0751198,1.08928891 C43.7372375,2.0863759 44.9430589,3.24089768 45.9391721,8.90855017 L45.9391721,8.90855017 L45.9391721,8.90855017 L45.9391721,8.90855017 Z M16.1606275,6.12720218 C13.6441308,6.12720218 11.5470501,8.17385444 11.5470501,10.6928111 C11.5470501,13.264246 13.6441308,15.3108983 16.1606275,15.3108983 C16.9994597,15.3108983 17.7858649,15.1009853 18.4674161,14.6811592 C23.2907015,11.8998111 23.7101177,11.7948547 28.5858301,14.7336374 C29.2673813,15.1009853 30.0537865,15.3633766 30.8926187,15.3633766 C33.4091155,15.3633766 35.4537691,13.3167243 35.4537691,10.7452894 C35.4537691,8.22633268 33.4615425,6.12720218 30.8926187,6.12720218 C30.0537865,6.12720218 29.2673813,6.38959349 28.5858301,6.75694131 C23.6052636,9.59076758 23.4479826,9.59076758 18.4674161,6.75694131 C17.7858649,6.33711521 16.9994597,6.12720218 16.1606275,6.12720218 L16.1606275,6.12720218 L16.1606275,6.12720218 L16.1606275,6.12720218 Z M38.2324009,28.1155946 C40.7488976,28.1155946 42.7935512,26.0689423 42.7935512,23.4975074 C42.7935512,20.9785508 40.7488976,18.9318984 38.2324009,18.9318984 C37.3935686,18.9318984 36.6071634,19.1418115 35.9256122,19.5091594 C31.0498998,22.2905074 29.1625272,21.8706813 25.125647,20.1913768 L24.4965229,19.9814638 C24.1819608,19.8765073 23.8673987,19.824029 23.5004096,19.824029 C23.2382745,19.824029 22.9237124,19.8765073 22.5567233,19.9289855 L21.9275991,20.1913768 C17.6285839,21.8706813 16.0557734,22.3429856 11.075207,19.4566812 C10.3936558,19.0893333 9.60725054,18.8794202 8.8208453,18.8794202 C6.25192155,18.8794202 4.20726797,20.9260725 4.20726797,23.4450291 C4.20726797,26.0164641 6.25192155,28.0631164 8.76841831,28.0631164 C9.60725054,28.0631164 10.3936558,27.8532033 11.075207,27.4333772 C15.6887843,24.7569858 18.1528541,24.9668988 19.0965403,25.806551 C19.4635294,26.0164641 19.1489673,26.3313336 18.3625621,27.3284207 C17.1567407,28.7453338 14.640244,30.791986 12.3858823,32.8911166 C11.4421961,33.7832471 10.970353,34.8852906 10.970353,36.1972472 C10.970353,38.7686822 13.0150066,40.8153344 15.5315033,40.8153344 C16.1082005,40.8153344 16.6848976,40.7103779 17.2615948,40.5529431 C21.6654641,39.345943 25.2305011,37.2468125 27.5372898,36.144769 C28.1664139,35.7774211 27.7994248,36.3022037 28.428549,37.8240733 C28.8479652,38.9785952 30.2110675,40.7103779 32.2032941,40.8678126 C35.244061,41.1826822 36.9217255,38.5587691 36.2401742,36.0922907 C35.401342,33.1010296 32.3605752,30.9494208 29.1625272,32.2088992 C25.7547712,33.6258123 22.7140044,34.3080297 19.3586754,34.3080297 C18.7295512,34.2555514 18.7819783,34.0456384 18.9392593,33.6782906 C19.3586754,32.1564209 21.9275991,27.800725 24.915939,26.3313336 C27.9567059,24.9144205 30.5256297,24.3896379 35.8731852,27.4858554 C36.5547364,27.8532033 37.3411416,28.1155946 38.2324009,28.1155946 L38.2324009,28.1155946 L38.2324009,28.1155946 Z" id="Shape"></path>
                                </g>
                            </g>
                            <g id="iconfont-aliyunziti" transform="translate(70.000000, 10.000000)">
                                <g id="图形">
                                    <path d="M0.0508465701,0.0858812342 L9.35777621,0.0858812342 L9.35777621,9.90784935 L7.52532603,11.5448458 L9.35777621,13.0855458 L9.35777621,20.3557281 L6.07864976,23.5334245 L3.90864025,23.5334245 L3.90864025,25.2185661 L0.0508432715,27 L0.0508432715,0.0858799168 L0.0508465701,0.0858812342 Z M3.90863869,9.90785024 L5.49997899,9.90785024 L5.49997899,3.2635777 L3.90863869,3.2635777 L3.90863869,9.90784803 L3.90863869,9.90785024 Z M3.90863869,13.0855419 L3.90863869,20.3557242 L5.49997899,20.3557242 L5.49997899,13.0855419 L3.90864006,13.0855419 L3.90863869,13.0855419 Z M9.93644527,0.0858812342 L26.6696296,0.0858812342 L25.4158451,3.40801513 L25.174733,3.40801513 L25.174733,23.5334204 L21.5098278,26.9999966 L18.5200369,26.9999966 L18.5200369,23.7260073 L21.2204932,23.7260073 L21.2204932,3.40801433 L9.93644377,3.40801433 L9.93644377,0.0858799168 L9.93644527,0.0858812342 Z M10.9008945,5.95980142 L20.2560466,5.95980142 L20.2560466,20.6927536 L16.9287008,23.7741536 L10.9008966,23.7741536 L10.9008966,5.95980203 L10.9008945,5.95980142 Z M14.5657997,20.7409008 L16.5911419,20.7409008 L16.5911419,9.04120344 L14.5657997,9.04120344 L14.5657997,20.7409011 L14.5657997,20.7409008 Z M30.238089,24.0148888 L40.5576897,24.0148888 L40.5576897,21.6075437 L30.5274236,21.6075437 L30.5274236,18.6224357 L40.5576897,18.6224357 L40.5576897,15.6854747 L30.5274236,15.6854747 L30.5274236,0.085878223 L55.6030889,0.085878223 L55.6030889,12.2188977 L51.1666263,15.6854739 L45.2834894,15.6854739 L45.2834894,18.6224349 L55.8442023,18.6224349 L54.3493067,21.6075432 L45.2834893,21.6075432 L45.2834893,24.0148884 L56.3264265,24.0148884 L54.9761985,26.9999967 L30.2380902,26.9999967 L30.2380902,24.0148905 L30.238089,24.0148888 Z M40.5576906,3.0228389 L35.0603332,3.0228389 L35.0603332,6.44126899 L40.5576906,6.44126899 L40.5576906,3.02284097 L40.5576906,3.0228389 Z M40.5576906,9.33008592 L35.0603332,9.33008592 L35.0603332,12.7966629 L40.5576906,12.7966629 L40.5576906,9.33008522 L40.5576906,9.33008592 Z M51.0701791,3.0228389 L45.2834871,3.0228389 L45.2834871,6.44126899 L50.7808445,6.44126899 L49.4788407,9.33008084 L45.283489,9.33008084 L45.283489,12.7966578 L51.070181,12.7966578 L51.070181,3.02284097 L51.0701791,3.0228389 Z M59.9431092,0.0858812342 L86.4172251,0.0858812342 L84.6329942,3.64875388 L59.9431084,3.64875388 L59.9431084,0.0858799168 L59.9431092,0.0858812342 Z M86.2725547,26.9999971 L83.2827635,15.1558603 L78.5087426,15.1558603 L80.5340846,23.4371293 L65.4886854,23.4371293 L69.925148,13.3744264 L84.6329902,13.3744264 L86.3207776,9.81155373 L59.9431065,9.81155373 L59.9431065,13.3744245 L64.9582396,13.3744245 L60.1359982,23.8223037 L60.1359982,26.9999992 L80.1000856,26.9999992 L80.8716431,24.7852433 L81.4020894,26.9999992 L86.2725562,26.9999993 L86.2725547,26.9999971 Z" id="Shape"></path>
                                </g>
                            </g>
                        </g>
                    </g>
                </g>
            </g>
        </g>
    </g>
</svg>