<?xml version="1.0" encoding="UTF-8" standalone="no"?>
<svg width="163px" height="49px" viewBox="0 0 163 49" version="1.1" xmlns="http://www.w3.org/2000/svg" xmlns:xlink="http://www.w3.org/1999/xlink">
    <!-- Generator: Sketch Beta 3.6 (26304) - http://www.bohemiancoding.com/sketch -->
    <title>Group 16</title>
    <desc>Created with Sketch Beta.</desc>
    <defs></defs>
    <g id="web-site" stroke="none" stroke-width="1" fill="none" fill-rule="evenodd">
        <g id="Desktop-HD-Copy-7" transform="translate(-987.000000, -4297.000000)" fill="#B9C1C9">
            <g id="Group-6-Copy" transform="translate(0.000000, 4239.000000)">
                <g id="Group-30">
                    <g id="Group-18" transform="translate(290.000000, 58.000000)">
                        <g id="Group-16" transform="translate(697.000000, 0.000000)">
                            <g id="iconfont-mayijinfu">
                                <g id="图形">
                                    <path d="M32.6441008,44.6177461 C32.0530125,44.5067276 29.2513188,47.19947 29.2513188,47.19947 C29.030204,47.4590574 28.6993466,47.19947 28.6993466,47.19947 C26.2991367,45.2457624 22.6091807,42.1873121 20.9543506,40.8142747 C21.0380157,40.3250315 21.0863676,39.816741 21.0863676,39.2937569 C21.0863676,36.4105416 19.7520725,33.9626929 17.888623,33.04026 C18.4759084,32.5989071 18.9132486,31.9164699 19.0974205,31.1159396 C19.7911887,30.6920014 21.1738356,29.9241236 23.8788255,28.6256427 C23.8788255,28.6256427 24.1227581,28.4928559 24.2716167,28.7236002 C24.2716167,28.7236002 25.7770449,30.4340467 27.5399877,30.3453407 C27.5399877,30.3453407 27.8398781,30.3279261 27.971895,29.9954148 C28.2065919,29.4071257 26.596854,28.7159813 26.596854,28.7159813 C25.8389788,28.38347 25.9367691,27.6602173 25.9367691,27.6602173 C25.9862076,27.1960076 25.6662158,26.9396856 25.6662158,26.9396856 C25.0941423,26.4841833 23.1899468,27.6988561 23.1899468,27.6988561 C21.5829253,28.5576167 20.139431,29.3641333 19.1789124,29.9088857 C19.0794922,28.8487681 18.5427318,27.9426613 17.7815969,27.4245751 C19.0550446,27.2264833 20.4061814,26.8585985 21.7546017,26.2251401 C25.0447038,24.7982261 25.979145,21.4540665 25.979145,21.4540665 C27.3547293,16.9779537 24.5535789,13.4373348 24.5535789,13.4373348 C23.8310168,12.5176229 22.7504334,11.8760014 21.6883215,11.4302948 C24.6415902,7.28669328 28.2071352,6.03174907 28.8367964,5.83528989 C29.1013736,6.50357761 29.9700779,6.9579915 30.9707992,6.89105388 C32.1399372,6.8126879 33.0417816,6.05950369 32.9836507,5.20455254 C32.9293227,4.35177822 31.9334909,3.7232177 30.7643529,3.79995106 C29.7380975,3.86743289 28.9204615,4.45953145 28.7737759,5.18060738 C24.454702,6.5356859 21.8996574,9.14462022 20.5458042,11.0183292 C19.290828,10.6297645 18.2825008,10.5084061 18.2825008,10.5084061 C18.2825008,10.5084061 15.9800813,10.3135795 14.5789628,8.48014195 C14.5789628,8.48014195 13.4038487,10.3930339 10.5130572,11.6496108 C10.5239228,7.08152677 12.3151161,4.17273371 12.837208,3.42063792 C13.4478544,3.81246785 14.4263012,3.6573685 15.1955853,2.99887653 C16.084391,2.2375292 16.3598338,1.09469189 15.8035154,0.444363037 C15.2471969,-0.205421605 14.0747992,-0.115083037 13.1865368,0.646264295 C12.4123632,1.30856573 12.1081266,2.25820911 12.4053006,2.92105475 C9.93066135,6.39419176 9.37814585,9.81236373 9.36510714,12.1100109 C8.32907267,12.5905468 5.53607151,14.2857555 5.38178006,18.6497614 C5.38178006,18.6497614 4.98627241,25.5867839 10.6896232,27.0126095 C10.6896232,27.0126095 12.2890387,27.5268862 14.618079,27.6085175 C13.9411524,28.1815688 13.4913168,29.0876755 13.4511141,30.1178617 C12.458542,29.6356932 11.0096149,28.9445487 9.40042032,28.2125886 C9.40042032,28.2125886 7.42342534,27.1209069 6.88231871,27.6096059 C6.88231871,27.6096059 6.58025518,27.8866079 6.65631434,28.3464639 C6.65631434,28.3464639 6.80191331,29.0620977 6.06522598,29.4419551 C6.06576926,29.4419551 4.50438328,30.233778 4.77493659,30.8046525 C4.92814148,31.1290006 5.22694534,31.1290006 5.22694534,31.1290006 C6.9926045,31.1045112 8.38611704,29.3048146 8.38611704,29.3048146 C8.5213937,29.0631861 8.77401878,29.1807351 8.77401878,29.1807351 C11.4230508,30.2511927 12.8377513,30.9145826 13.5880206,31.3031472 C13.7874042,32.0013664 14.1823686,32.5967302 14.6984844,33.003798 C12.796462,33.8968437 11.4257672,36.3729912 11.4257672,39.2943011 C11.4257672,39.8706176 11.4849847,40.4278869 11.5844049,40.9622993 C9.85677531,42.3962881 6.33577929,45.3143327 4.01814791,47.2005584 C4.01814791,47.2005584 3.68729055,47.4601458 3.46454585,47.2005584 C3.46454585,47.2005584 0.661765659,44.5078161 0.0723071383,44.6188345 C0.0723071383,44.6188345 -0.10045582,44.5948894 0.145649904,45.0966494 C0.145649904,45.0966494 0.72261299,46.303159 2.83705775,48.6383566 C2.83705775,48.6383566 3.51344103,49.376303 4.27457595,48.7123689 C4.27457595,48.7123689 9.34174611,44.4484974 11.9397098,42.2689433 C12.7328983,44.4495858 14.3654539,45.9483353 16.2555241,45.9483353 C18.1847105,45.9483353 19.8428003,44.3880902 20.6164306,42.1367007 C23.1606096,44.2710855 28.4380291,48.7123689 28.4380291,48.7123689 C29.2002505,49.376303 29.8766338,48.6383566 29.8766338,48.6383566 C31.989992,46.303159 32.5664118,45.0966494 32.5664118,45.0966494 C32.8157772,44.593801 32.6441008,44.6177461 32.6441008,44.6177461 L32.6441008,44.6177461 L32.6441008,44.6177461 Z M8.1351218,17.3518247 C8.18401698,13.0237366 15.0157597,12.8757119 15.0157597,12.8757119 C15.0157597,12.8757119 22.9786109,12.0898752 23.1280129,16.71238 C23.1280129,16.71238 23.9641204,20.6970728 15.7062683,21.3365175 C7.97050804,21.9890232 8.1351218,17.3518247 8.1351218,17.3518247 L8.1351218,17.3518247 L8.1351218,17.3518247 Z M10.9178006,23.8523922 C10.6065014,23.7413737 10.5505435,23.4551202 10.6211699,23.1944444 C10.7162439,22.8456069 11.1188141,22.8700963 11.3040725,22.9217961 C13.8455352,23.6249131 17.2910153,23.9775601 20.7191105,22.1892918 C20.9581536,22.0652123 21.304766,22.0902459 21.4579709,22.3400375 C21.6041132,22.5784007 21.5242511,22.8657426 21.2623902,23.0251957 C18.8105687,24.5141494 14.7006575,25.1993076 10.9178006,23.8523922 L10.9178006,23.8523922 L10.9178006,23.8523922 Z" id="Shape"></path>
                                    <path d="M13.6244203,18.0097725 C13.6244203,18.0097725 13.6325695,18.2143948 13.9264839,18.1844633 C14.2165952,18.1567087 15.7980826,17.7387568 17.834295,17.7931776 C18.0543233,17.7703209 18.0369384,17.5662428 18.0369384,17.5662428 C17.9141572,16.3466721 16.8292275,15.4585243 15.6095645,15.5804269 C14.3915313,15.703418 13.5010958,16.7918344 13.6244203,18.0097725" id="Shape"></path>
                                </g>
                            </g>
                            <g id="iconfont-mayijinfu-(1)" transform="translate(46.000000, 6.000000)">
                                <g id="图形">
                                    <path d="M25.4006005,34.1190274 C25.4006005,34.5505322 25.2024789,34.769097 24.8167066,34.769097 L16.1557453,34.769097 L16.7412498,36.9917081 L25.037378,36.9917081 C25.9699985,36.9917081 26.6110735,36.7868035 27.0532227,36.333603 C27.5259757,35.8587068 27.7096001,35.3147054 27.7096001,34.4010724 L27.7096001,24.2924509 C27.7096001,23.3972995 27.4913445,22.7817826 27.0218126,22.3591169 C26.7246314,22.0835002 26.3855692,21.9195766 25.9635551,21.8271687 L25.9635551,12.1452307 C25.9635551,11.2500793 25.7477154,10.6361694 25.2797951,10.2094859 C24.7828807,9.75628532 24.2150944,9.58111219 23.2607294,9.58111219 L13.0421803,9.58111219 L13.0421803,11.8037232 L22.9683797,11.8037232 C23.4201934,11.8037232 23.6473081,11.9869318 23.6473081,12.3565635 L23.6473081,21.7299395 L16.9208478,21.7299395 C16.4714511,21.7299395 16.1984303,21.5644088 16.2443364,21.1730814 L16.9272911,13.792502 L14.6134599,13.792502 L13.9232566,21.3820036 C13.8394982,22.2642982 14.1431228,22.8878507 14.611043,23.3145342 C15.1111785,23.7709489 15.6717174,23.9477293 16.6276929,23.9477293 L24.7120089,23.9477293 C25.1614056,23.9477293 25.3909361,24.1357593 25.3909361,24.5061945 L25.3909361,27.6014575 L12.3560044,27.6014575 L12.3560044,29.8248722 L25.4006005,29.8248722 L25.4006005,34.1190274 L25.4006005,34.1190274 L25.4006005,34.1190274 Z M11.4274115,35.5372879 C11.5482168,36.085307 11.6746602,36.5931487 11.8091575,36.9917081 L14.197888,36.9917081 C13.6550674,35.3805962 13.1782881,32.0683754 13.0147976,30.8670727 L10.6574761,30.8670727 C10.7259332,31.3909853 10.8531819,32.326314 11.0166723,33.3411939 C10.2217702,33.6296673 8.77935088,33.7743058 7.45773694,33.8410002 L7.45773694,27.7702025 L9.34713716,27.7702025 C10.3055297,27.7702025 10.8684832,27.5934221 11.3686188,27.1402215 C11.8333179,26.7095203 12.0515735,26.0956105 12.0515735,25.2036732 L12.0515735,14.9110394 C12.0515735,14.0191023 11.8333179,13.4051924 11.3686188,12.9744912 C10.8684832,12.5212906 10.3055297,12.3445104 9.34713716,12.3445104 L7.45773694,12.3445104 L7.45773694,9.48548998 L5.13746243,9.48548998 L5.13746243,12.3445104 L3.24484003,12.3445104 C2.29128139,12.3445104 1.723494,12.5212906 1.22658061,12.9744912 C0.758659299,13.4003711 0.542820591,14.0174952 0.542820591,14.9110394 L0.542820591,25.2036732 C0.542820591,26.098021 0.758659299,26.7127346 1.22658061,27.1402215 C1.723494,27.5934221 2.29128139,27.7702025 3.24484003,27.7702025 L5.13746243,27.7702025 L5.13746243,33.9004627 L0,33.9004627 L0,36.1286985 L5.20753005,36.1286985 C6.84484985,36.1286985 10.1146566,36.1286985 11.4274115,35.5372879 L11.4274115,35.5372879 L11.4274115,35.5372879 Z M7.45773694,14.5631037 L9.05639809,14.5631037 C9.50579591,14.5631037 9.73371591,14.7519371 9.73371591,15.1223723 L9.73371591,24.9923405 C9.73371591,25.361972 9.50579591,25.5540198 9.05639809,25.5540198 L7.45773694,25.5540198 L7.45773694,14.5631037 L7.45773694,14.5631037 L7.45773694,14.5631037 Z M5.13746243,25.5540198 L3.53799489,25.5540198 C3.08859819,25.5540198 2.86148346,25.361972 2.86148346,24.9923405 L2.86148346,15.1223723 C2.86148346,14.7519371 3.08859819,14.5631037 3.53799489,14.5631037 L5.13746243,14.5631037 L5.13746243,25.5540198 L5.13746243,25.5540198 L5.13746243,25.5540198 Z M68.4154733,12.6008418 C68.8060784,12.0070205 69.1628587,11.8511325 70.2911827,11.8511325 L77.6877123,11.8511325 C78.8144257,11.8511325 79.1752324,12.0070205 79.5658375,12.6008418 C80.6675853,14.2730231 83.0039664,17.970143 84.0469226,19.4888469 L87.2345815,19.4888469 C86.1223641,17.8463968 83.1972563,13.2324298 82.0753734,11.6060506 C81.1556395,10.271359 80.0337577,9.63253911 78.4463715,9.63253911 L77.8536185,9.63253911 C77.8576448,9.55780929 77.8487857,9.48307943 77.8149609,9.41477783 L77.2930796,8.24320632 C78.93201,7.68152697 79.9789925,6.38781627 79.6705352,5.24276177 C79.3387228,4.01333483 77.5854293,3.42192424 75.7556259,3.91369498 C74.4017977,4.2785054 73.3846137,5.13428298 73.0753511,6.04952301 C72.8329351,5.58105502 72.351323,5.2612433 71.7899789,5.24597592 C71.858436,5.02339339 71.8995093,4.79277546 71.8970935,4.55171129 C71.8769595,3.44281644 71.072393,2.53400479 70.0237999,2.33713575 L69.9827265,0.506655689 C69.9778938,0.235860348 69.7531949,0.018902634 69.4785635,0.023723882 L69.4560136,0.023723882 C69.1854086,0.026938109 68.9655424,0.256752583 68.9719857,0.529154908 L69.0130591,2.37811661 C68.7247358,2.45445361 68.4613805,2.58141404 68.2318488,2.75176596 L67.0487585,1.41948502 C66.9513094,1.30698844 66.8103689,1.2451153 66.6694294,1.24832957 C66.5486241,1.25074012 66.437482,1.29493525 66.3472803,1.37127221 L66.3335895,1.38653963 C66.235334,1.47492978 66.1741255,1.5946583 66.1652664,1.72724358 C66.1588242,1.8566146 66.1990923,1.98598573 66.2876834,2.08562551 L67.5690292,3.53120659 C67.3934575,3.86387503 67.2847324,4.23832795 67.2935915,4.64331567 C67.3217793,5.91131292 68.3703735,6.91735376 69.6420539,6.89083675 C69.8514504,6.88762248 70.0463509,6.85065941 70.234807,6.79360755 C70.246083,7.20823777 70.4256799,7.578673 70.7051441,7.84705764 L69.8530609,9.48548998 C69.8280953,9.53289926 69.8192361,9.58271917 69.8127929,9.63253911 L69.5333287,9.63253911 C67.9459425,9.63253911 66.8216438,10.271359 65.9019099,11.6060506 C64.7800281,13.2324298 61.8573361,17.8463968 60.7427029,19.4888469 L63.9351947,19.4888469 C64.9733181,17.970143 67.312115,14.2730231 68.4154733,12.6008418 L68.4154733,12.6008418 L68.4154733,12.6008418 Z M76.291198,8.47944914 L76.806636,9.63253911 L75.5422031,9.63253911 L75.3964309,8.51078754 C75.6847541,8.52926908 75.9867682,8.52043004 76.291198,8.47944914 L76.291198,8.47944914 L76.291198,8.47944914 Z M73.5158898,7.7996484 C73.7365613,8.01258832 74.0224676,8.18052965 74.3518642,8.29704395 L74.5217979,9.63253911 L73.3274326,9.63253911 L73.5158898,7.7996484 L73.5158898,7.7996484 L73.5158898,7.7996484 Z M71.6361529,8.24320632 C71.6836695,8.25284893 71.7287704,8.25847374 71.7770934,8.25847374 C72.0291738,8.25284893 72.2627319,8.18052965 72.4713231,8.06722951 L72.3078327,9.63253911 L70.9209839,9.63253911 L71.6361529,8.24320632 L71.6361529,8.24320632 L71.6361529,8.24320632 Z M49.6720707,29.060699 C47.4170322,32.4757738 44.4009174,36.9917081 44.4009174,36.9917081 L47.5233404,36.9917081 C47.5233404,36.9917081 49.3491173,34.3295568 51.2860353,31.4584832 C53.2213416,34.3295568 55.0447017,36.9917081 55.0447017,36.9917081 L58.1671258,36.9917081 C58.1671258,36.9917081 55.1518163,32.4757738 52.8959714,29.060699 C53.0715431,28.7931178 53.247919,28.5311614 53.4186579,28.2756335 C55.3805416,25.3185805 57.0613516,24.1582586 58.3918247,10.5389402 L55.9306107,10.5389402 C54.6428216,21.5547662 53.8004039,22.6821427 51.7563714,25.8738315 C51.6315396,26.0739147 51.4680492,26.3246214 51.2860353,26.6074699 C51.0999939,26.3246214 50.9365036,26.0739147 50.8116707,25.8738315 C48.7676392,22.6821427 47.9252216,21.5547662 46.6350166,10.5389402 L44.1738026,10.5389402 C45.5066915,24.1582586 47.1875016,25.3185805 49.1518011,28.2756335 C49.3201242,28.5311614 49.4948895,28.7931178 49.6720707,29.060699 L49.6720707,29.060699 L49.6720707,29.060699 Z M92.8117763,31.026175 L92.8117763,27.9968027 L98.2287028,27.9968027 L98.2287028,34.1190274 C98.2287028,34.5505322 98.0329982,34.769097 97.6448089,34.769097 L94.7648019,34.769097 L94.7648019,36.9917081 L97.8670909,36.9917081 C98.7981008,36.9917081 99.4383705,36.7868035 99.8837408,36.333603 C100.356494,35.8587068 100.537702,35.3147054 100.537702,34.4010724 L100.537702,12.0552333 C100.537702,11.160082 100.317836,10.5413508 99.8523308,10.1178815 C99.3570279,9.66548451 98.7892417,9.48548998 97.8356819,9.48548998 L93.1983551,9.48548998 C92.2423795,9.48548998 91.677009,9.66548451 91.1792892,10.1178815 C90.711369,10.5461721 90.4955292,11.160082 90.4955292,12.0552333 L90.4955292,31.026175 C90.4955292,35.3918459 89.7078768,36.8334092 89.6217015,36.9917081 L91.8445258,36.9917081 C91.9403655,36.9917081 92.8117763,36.4806521 92.8117763,31.026175 L92.8117763,31.026175 L92.8117763,31.026175 Z M92.8117763,12.2657627 C92.8117763,11.8913098 93.0396963,11.7040833 93.4915099,11.7040833 L97.542527,11.7040833 C97.9943395,11.7040833 98.2287028,11.8913098 98.2287028,12.2657627 L98.2287028,17.1657924 L92.8117763,17.1657924 L92.8117763,12.2657627 L92.8117763,12.2657627 L92.8117763,12.2657627 Z M92.8117763,19.3570652 L98.2278976,19.3570652 L98.2278976,25.8063335 L92.8117763,25.8063335 L92.8117763,19.3570652 L92.8117763,19.3570652 Z M87.3304201,34.7715076 L81.8023525,34.7715076 C81.9304076,34.4380356 82.0520183,34.0266195 82.1212795,33.5187778 C82.2227572,32.7706755 82.507053,30.2170032 82.5859798,29.4697044 L80.2673158,29.4697044 C80.1859732,30.2049499 79.8976499,32.7120166 79.8026167,33.5187778 C79.7430187,34.0386728 79.6181869,34.4468746 79.4820791,34.7715076 L75.1878396,34.7715076 L75.1878396,26.6307728 L85.0592739,26.6307728 L85.0592739,24.4097688 L75.1878396,24.4097688 L75.1878396,19.4888469 L81.3626202,19.4888469 L81.3626202,17.2614145 L66.61708,17.2614145 L66.61708,19.4888469 L72.7894448,19.4888469 L72.7894448,24.4097688 L62.9180105,24.4097688 L62.9180105,26.6307728 L72.7894448,26.6307728 L72.7894448,34.7715076 L68.500038,34.7715076 C68.3590975,34.4468746 68.2390974,34.0386728 68.1754731,33.5187778 C68.0820503,32.7120166 67.793727,30.2049499 67.7115792,29.4697044 L65.3929163,29.4697044 C65.4726473,30.2170032 65.7545272,32.7706755 65.859226,33.5187778 C65.9292925,34.0266195 66.0476821,34.4380356 66.1765424,34.7715076 L60.6468632,34.7715076 L60.6468632,36.9917081 L87.3304201,36.9917081 L87.3304201,34.7715076 L87.3304201,34.7715076 L87.3304201,34.7715076 Z M53.0892613,17.2790926 L51.672613,9.48548998 L49.2581104,9.48548998 L50.6820062,17.2790926 L53.0892613,17.2790926 L53.0892613,17.2790926 L53.0892613,17.2790926 Z M112.450752,31.1402787 C115.221229,27.027725 116.302037,24.2924509 116.538816,23.4712258 C116.881904,22.2851905 116.266601,20.8074676 114.583375,20.8074676 L104.418786,20.8074676 L104.418786,12.2657627 C104.418786,11.8913098 104.645901,11.7040833 105.097713,11.7040833 L112.950083,11.7040833 C113.400285,11.7040833 113.636258,11.8913098 113.636258,12.2657627 L113.636258,15.8407434 C113.636258,16.2738552 113.441359,16.4916165 113.050754,16.4916165 L108.136379,16.4916165 L108.136379,18.7182453 L113.273036,18.7182453 C114.206462,18.7182453 114.844316,18.5101265 115.291296,18.0593367 C115.761633,17.5820298 115.946063,17.0372249 115.946063,16.1227884 L115.946063,12.0552333 C115.946063,11.160082 115.727808,10.5413508 115.258276,10.1178815 C114.762973,9.66548451 114.197603,9.48548998 113.241627,9.48548998 L104.804558,9.48548998 C103.851,9.48548998 103.283212,9.66548451 102.786299,10.1178815 C102.327237,10.5357259 102.113814,11.1367792 102.104149,11.9981816 C102.102539,12.0038064 102.097706,12.0094312 102.097706,12.0158596 L102.097706,36.9917081 L104.418786,36.9917081 L104.418786,22.8757975 L113.477601,22.8757975 C113.786058,22.8757975 113.979347,23.1610567 113.863373,23.5266707 C113.379345,25.062249 112.292094,27.0333498 111.029272,29.0044507 C109.987121,27.3603935 109.032758,25.6745518 108.393292,24.1502232 L105.749259,24.1502232 C106.321878,25.5009856 107.543626,28.2049214 109.523228,31.2503646 C107.72564,33.8241257 105.906306,36.0989673 105.136372,36.9917081 L108.022822,36.9917081 C109.121348,35.6803193 110.086988,34.4468746 110.93585,33.291374 C111.846724,34.5312471 112.873572,35.7831734 114.026864,36.9917081 L116.990629,36.9917081 C116.322977,36.2869973 114.392502,33.9334081 112.450752,31.1402787 L112.450752,31.1402787 L112.450752,31.1402787 Z M42.9448062,30.8670727 L40.58829,30.8670727 C40.6607734,31.4383946 40.8041298,32.4918447 40.9941964,33.608775 C40.2564764,33.7268965 39.3842603,33.796805 38.5579492,33.8410002 L38.5579492,27.7702025 L40.4521822,27.7702025 C41.405742,27.7702025 41.9735282,27.5934221 42.471248,27.1402215 C42.9359471,26.7095203 43.1566186,26.0956105 43.1566186,25.2036732 L43.1566186,14.9110394 C43.1566186,14.0191023 42.9359471,13.4051924 42.471248,12.9744912 C41.9735282,12.5212906 41.405742,12.3445104 40.4521822,12.3445104 L38.5579492,12.3445104 L38.5579492,9.48548998 L36.2392853,9.48548998 L36.2392853,12.3445104 L34.3474693,12.3445104 C33.3914937,12.3445104 32.8261232,12.5212906 32.3267929,12.9744912 C31.8637043,13.4003711 31.6430329,14.0174952 31.6430329,14.9110394 L31.6430329,25.2036732 C31.6430329,26.098021 31.8637043,26.7127346 32.3267929,27.1402215 C32.8261232,27.5934221 33.3914937,27.7702025 34.3474693,27.7702025 L36.2392853,27.7702025 L36.2392853,33.9004627 L31.105045,33.9004627 L31.105045,36.1286985 L36.3077423,36.1286985 C37.5882818,36.1286985 39.8634555,36.1286985 41.4282918,35.8450465 C41.5241315,36.2749441 41.6304398,36.6718964 41.7367491,36.9917081 L44.1287018,36.9917081 C43.5834654,35.3805962 43.1082966,32.0683754 42.9448062,30.8670727 L42.9448062,30.8670727 L42.9448062,30.8670727 Z M38.5579492,14.5631037 L40.1590273,14.5631037 C40.6108398,14.5631037 40.8379546,14.7519371 40.8379546,15.1223723 L40.8379546,24.9923405 C40.8379546,25.361972 40.6108398,25.5540198 40.1590273,25.5540198 L38.5579492,25.5540198 L38.5579492,14.5631037 L38.5579492,14.5631037 L38.5579492,14.5631037 Z M36.2392853,25.5540198 L34.6382083,25.5540198 C34.1888105,25.5540198 33.9616958,25.361972 33.9616958,24.9923405 L33.9616958,15.1223723 C33.9616958,14.7519371 34.1888105,14.5631037 34.6382083,14.5631037 L36.2392853,14.5631037 L36.2392853,25.5540198 L36.2392853,25.5540198 L36.2392853,25.5540198 Z" id="Shape"></path>
                                </g>
                            </g>
                        </g>
                    </g>
                </g>
            </g>
        </g>
    </g>
</svg>