<?xml version="1.0" encoding="UTF-8" standalone="no"?>
<svg width="222px" height="143px" viewBox="0 0 222 143" version="1.1" xmlns="http://www.w3.org/2000/svg" xmlns:xlink="http://www.w3.org/1999/xlink">
    <!-- Generator: Sketch Beta 3.6 (26304) - http://www.bohemiancoding.com/sketch -->
    <title>Group 45</title>
    <desc>Created with Sketch Beta.</desc>
    <defs></defs>
    <g id="web-site" stroke="none" stroke-width="1" fill="none" fill-rule="evenodd" fill-opacity="0.29517663">
        <g id="Desktop-HD-Copy-7" transform="translate(-1218.000000, -3666.000000)" stroke="#162F45" fill="#152A3D">
            <g id="Group-35" transform="translate(0.000000, 2951.000000)">
                <g id="Path-138-Copy-+-Path-138-Mask">
                    <g id="Group-25" transform="translate(-1.000000, -15.000000)">
                        <g id="Group-45" transform="translate(1220.000000, 727.000000)">
                            <polygon id="Polygon-25-Copy-14" transform="translate(130.500000, 116.500000) rotate(-270.000000) translate(-130.500000, -116.500000) " points="130.5 84 158.645826 100.25 158.645826 132.75 130.5 149 102.354174 132.75 102.354174 100.25 "></polygon>
                            <polygon id="Polygon-25-Copy-15" transform="translate(179.500000, 88.500000) rotate(-270.000000) translate(-179.500000, -88.500000) " points="179.5 56 207.645826 72.25 207.645826 104.75 179.5 121 151.354174 104.75 151.354174 72.25 "></polygon>
                            <polygon id="Polygon-25-Copy-21" transform="translate(228.500000, 60.500000) rotate(-270.000000) translate(-228.500000, -60.500000) " points="228.5 28 256.645826 44.25 256.645826 76.75 228.5 93 200.354174 76.75 200.354174 44.25 "></polygon>
                            <polygon id="Polygon-25-Copy-22" transform="translate(81.500000, 88.500000) rotate(-270.000000) translate(-81.500000, -88.500000) " points="81.5 56 109.645826 72.25 109.645826 104.75 81.5 121 53.3541744 104.75 53.3541744 72.25 "></polygon>
                            <polygon id="Polygon-25-Copy-23" transform="translate(81.500000, 32.500000) rotate(-270.000000) translate(-81.500000, -32.500000) " points="81.5 0 109.645826 16.25 109.645826 48.75 81.5 65 53.3541744 48.75 53.3541744 16.25 "></polygon>
                            <polygon id="Polygon-25-Copy-24" transform="translate(32.500000, 116.500000) rotate(-270.000000) translate(-32.500000, -116.500000) " points="32.5 84 60.6458256 100.25 60.6458256 132.75 32.5 149 4.35417438 132.75 4.35417438 100.25 "></polygon>
                            <polygon id="Polygon-25-Copy-16" transform="translate(179.500000, 144.145826) rotate(-270.000000) translate(-179.500000, -144.145826) " points="179.5 111.645826 207.645826 127.895826 207.645826 160.395826 179.5 176.645826 151.354174 160.395826 151.354174 127.895826 "></polygon>
                            <polygon id="Polygon-25-Copy-17" transform="translate(228.500000, 116.500000) rotate(-270.000000) translate(-228.500000, -116.500000) " points="228.5 84 256.645826 100.25 256.645826 132.75 228.5 149 200.354174 132.75 200.354174 100.25 "></polygon>
                        </g>
                    </g>
                </g>
            </g>
        </g>
    </g>
</svg>