<?xml version="1.0" standalone="no"?><!DOCTYPE svg PUBLIC "-//W3C//DTD SVG 1.1//EN" "http://www.w3.org/Graphics/SVG/1.1/DTD/svg11.dtd" ><svg xmlns="http://www.w3.org/2000/svg"><metadata></metadata><defs><font id="fonteditor" horiz-adv-x="1000"><font-face font-family="`nÑOS CN Regular" font-weight="400" font-stretch="normal" units-per-em="1000" panose-1="2 11 5 0 0 0 0 0 0 0" ascent="880" descent="-120" x-height="0" bbox="20 -120 973 880" underline-thickness="0" underline-position="0" unicode-range="U+0030-ff1a" /><missing-glyph horiz-adv-x="1000" d="M100 880 L900 880 L900 -120 L100 -120 L100 880 ZM818 830 L182 830 L500 421 L818 830 ZM850 -29 L850 789 L532 380 L850 -29 ZM818 -70 L500 339 L182 -70 L818 -70 ZM150 -29 L468 380 L150 789 L150 -29 Z" /><glyph glyph-name="zero" unicode="0" d="M278 -13 Q171 -13 111 82 Q49 182 49 369 Q49 556 111 654 Q170 747 278 747 Q385 747 444 653 Q506 555 506 369 Q506 182 444 82 Q385 -13 278 -13 ZM278 60 Q417 60 417 369 Q417 673 278 673 Q138 673 138 369 Q138 60 278 60 Z" /><glyph glyph-name="one" unicode="1" d="M88 76 L251 76 L251 623 L121 623 L121 681 Q212 698 273 733 L343 733 L343 76 L490 76 L490 0 L88 0 L88 76 Z" /><glyph glyph-name="two" unicode="2" d="M44 54 Q380 348 380 527 Q380 593 347 631 Q311 672 245 672 Q164 672 93 587 L40 639 Q140 747 256 747 Q354 747 412 688 Q469 629 469 530 Q469 344 182 72 L212 74 L242 77 Q278 79 302 79 L505 79 L505 0 L44 0 L44 54 Z" /><glyph glyph-name="three" unicode="3" d="M264 -13 Q121 -13 29 87 L75 147 Q155 63 257 63 Q323 63 364 100 Q406 137 406 199 Q406 346 178 346 L178 416 Q381 416 381 556 Q381 609 348 641 Q314 672 257 674 Q175 671 105 601 L56 659 Q151 747 261 747 Q356 747 414 699 Q474 649 474 563 Q474 435 343 386 L343 382 Q411 366 454 319 Q499 268 499 196 Q499 100 430 42 Q365 -13 264 -13 Z" /><glyph glyph-name="four" unicode="4" d="M339 275 L339 500 Q339 523 341 566 L343 601 L344 618 L345 633 L341 633 Q317 585 282 525 L115 275 L339 275 ZM523 202 L426 202 L426 0 L339 0 L339 202 L20 202 L20 262 L325 733 L426 733 L426 275 L523 275 L523 202 Z" /><glyph glyph-name="five" unicode="5" d="M261 -13 Q125 -13 28 84 L73 144 Q154 63 253 63 Q319 63 363 109 Q409 158 409 236 Q409 314 368 359 Q327 403 257 403 Q200 403 135 360 L86 390 L109 733 L466 733 L466 655 L189 655 L171 443 Q223 472 280 472 Q377 472 436 416 Q501 354 501 239 Q501 123 428 53 Q359 -13 261 -13 Z" /><glyph glyph-name="six" unicode="6" d="M301 58 Q354 58 389 104 Q425 151 425 225 Q425 387 293 387 Q209 387 143 293 Q160 58 301 58 ZM448 615 Q402 671 330 671 Q248 671 200 604 Q144 526 141 366 Q214 455 308 455 Q403 455 456 397 Q511 337 511 225 Q511 121 449 53 Q389 -13 301 -13 Q191 -13 126 78 Q56 174 56 350 Q56 552 138 656 Q210 747 327 747 Q428 747 498 672 L448 615 Z" /><glyph glyph-name="seven" unicode="7" d="M198 0 Q207 212 252 357 Q298 507 404 655 L49 655 L49 733 L508 733 L508 678 Q386 521 340 364 Q302 233 293 0 L198 0 Z" /><glyph glyph-name="eight" unicode="8" d="M279 -13 Q178 -13 111 42 Q45 97 45 182 Q45 250 87 306 Q123 353 180 384 L180 389 Q81 457 81 558 Q81 641 138 693 Q195 744 282 744 Q374 744 429 690 Q483 637 483 551 Q483 498 451 446 Q424 404 385 374 L385 369 Q509 297 509 177 Q509 96 446 42 Q381 -13 279 -13 ZM329 398 Q405 465 405 546 Q405 602 372 639 Q337 677 280 677 Q229 677 197 644 Q164 611 164 558 Q164 499 214 458 Q249 430 329 398 ZM281 55 Q344 55 383 90 Q422 124 422 179 Q422 245 364 289 Q328 316 228 356 Q128 292 128 190 Q128 132 172 93 Q215 55 281 55 Z" /><glyph glyph-name="nine" unicode="9" d="M261 346 Q345 346 414 444 Q399 675 254 675 Q201 675 166 630 Q130 583 130 509 Q130 433 163 390 Q197 346 261 346 ZM108 119 Q158 63 231 63 Q309 63 356 131 Q410 209 415 369 Q342 278 246 278 Q152 278 99 337 Q44 397 44 509 Q44 613 106 681 Q166 747 254 747 Q364 747 430 660 Q500 567 500 398 Q500 189 419 81 Q348 -13 234 -13 Q130 -13 58 62 L108 119 Z" /><glyph glyph-name="colon" unicode=":" d="M139 390 Q112 390 93 410 Q73 429 73 459 Q73 490 93 510 Q111 530 139 530 Q167 530 186 510 Q205 490 205 459 Q205 429 186 410 Q166 390 139 390 ZM139 -13 Q111 -13 93 6 Q73 26 73 56 Q73 86 93 107 Q112 127 139 127 Q166 127 186 107 Q205 86 205 56 Q205 26 186 6 Q167 -13 139 -13 Z" /><glyph glyph-name="uni3002" unicode="&#x3002;" d="M194 244 Q258 244 302 200 Q347 155 347 92 Q347 28 302 -16 Q258 -61 194 -61 Q132 -61 87 -16 Q42 29 42 92 Q42 155 87 200 Q132 244 194 244 ZM194 -10 Q237 -10 266 20 Q296 49 296 92 Q296 134 266 163 Q237 193 194 193 Q153 193 123 163 Q93 133 93 92 Q93 50 123 20 Q153 -10 194 -10 Z" /><glyph glyph-name="uni4EA7" unicode="&#x4ea7;" d="M899 645 L113 645 L113 716 L487 716 Q463 770 426 817 L499 838 Q553 771 574 718 L569 716 L899 716 L899 645 ZM349 466 Q325 528 265 610 L329 636 Q387 564 417 496 L349 466 ZM925 391 L204 391 L204 325 Q204 215 184 121 Q158 -4 101 -84 Q91 -73 71 -56 Q51 -38 40 -32 Q92 40 113 148 Q128 224 128 327 L128 463 L606 463 Q656 546 687 631 L767 605 Q720 522 681 463 L925 463 L925 391 Z" /><glyph glyph-name="uni5168" unicode="&#x5168;" d="M804 470 Q629 588 500 736 Q379 586 202 470 L804 470 ZM538 403 L538 248 L807 248 L807 182 L538 182 L538 19 L925 19 L925 -49 L80 -49 L80 19 L462 19 L462 182 L205 182 L205 248 L462 248 L462 403 L199 403 L199 468 Q152 436 82 400 Q66 428 30 461 Q337 602 493 847 L559 817 L541 790 Q705 600 973 459 Q938 429 921 396 L863 432 Q831 452 807 468 L807 403 L538 403 Z" /><glyph glyph-name="uni516C" unicode="&#x516c;" d="M405 785 Q302 535 124 374 Q112 385 91 402 Q69 418 55 427 Q230 564 326 807 L405 785 ZM680 306 Q844 107 918 -30 L846 -70 Q827 -33 780 42 Q199 2 164 -11 Q161 3 152 26 Q143 53 135 67 Q164 74 226 150 Q264 194 331 297 Q412 423 466 534 L546 498 Q415 257 268 83 L733 111 Q665 206 611 274 L680 306 ZM664 814 Q774 587 960 437 Q924 408 898 374 Q717 541 591 786 L664 814 Z" /><glyph glyph-name="uni5206" unicode="&#x5206;" d="M809 461 Q808 435 807 425 Q788 17 746 -30 Q718 -62 668 -65 Q616 -70 511 -63 Q509 -22 487 11 Q530 7 577 5 Q595 5 612 4 L636 4 Q665 4 679 17 Q714 52 730 388 L459 388 Q435 216 371 115 Q288 -17 115 -80 Q107 -65 94 -47 Q79 -27 68 -17 Q229 37 304 152 Q361 239 381 388 L189 388 L189 457 Q159 425 111 384 Q100 396 81 413 Q61 431 47 441 Q233 575 325 817 L404 795 Q328 606 193 461 L809 461 ZM671 819 Q775 592 957 456 Q924 431 897 393 Q720 548 604 791 L671 819 Z" /><glyph glyph-name="uni52A8" unicode="&#x52a8;" d="M477 688 L93 688 L93 755 L477 755 L477 688 ZM446 67 L442 81 L438 97 Q432 118 428 132 Q124 65 93 46 L93 50 Q92 49 92 47 Q90 58 82 80 Q75 101 69 116 Q86 120 114 184 Q120 198 129 223 Q140 253 150 286 Q179 373 195 450 L57 450 L57 518 L494 518 L494 450 L272 450 Q232 288 170 145 L407 195 Q375 287 349 347 L410 364 Q481 202 512 88 L446 67 ZM942 607 Q941 580 941 570 Q924 30 882 -24 Q856 -56 810 -62 Q766 -66 672 -61 Q668 -19 649 12 Q685 9 727 8 Q742 7 757 7 L779 7 Q804 6 817 22 Q853 62 868 536 L719 536 Q707 326 668 190 Q618 21 517 -76 Q492 -41 459 -22 Q625 130 646 536 L507 536 L507 607 L649 607 Q651 654 652 713 L652 820 L725 820 Q725 712 722 607 L942 607 Z" /><glyph glyph-name="uni5355" unicode="&#x5355;" d="M460 329 L460 436 L224 436 L224 329 L460 329 ZM224 496 L460 496 L460 601 L224 601 L224 496 ZM783 601 L535 601 L535 496 L783 496 L783 601 ZM783 436 L535 436 L535 329 L783 329 L783 436 ZM944 102 L535 102 L535 -76 L460 -76 L460 102 L57 102 L57 171 L460 171 L460 266 L151 266 L151 664 L335 664 Q294 738 238 802 L300 832 Q376 751 408 685 L367 664 L608 664 Q665 742 708 832 L787 805 Q746 738 691 664 L858 664 L858 266 L535 266 L535 171 L944 171 L944 102 Z" /><glyph glyph-name="uni5370" unicode="&#x5370;" d="M453 213 Q451 175 457 144 Q132 60 96 40 Q92 56 83 78 Q72 103 63 117 Q81 126 91 139 Q106 157 106 183 L106 720 Q288 762 396 816 L455 757 Q358 715 181 672 L181 486 L456 486 L456 414 L181 414 L181 147 L453 213 ZM910 174 Q910 109 870 92 Q837 77 713 77 Q710 93 702 117 Q693 141 684 156 Q722 154 767 154 L816 154 Q837 155 837 175 L837 693 L607 693 L607 -75 L534 -75 L534 766 L910 766 L910 174 Z" /><glyph glyph-name="uni53F8" unicode="&#x53f8;" d="M234 357 L234 171 L555 171 L555 357 L234 357 ZM234 105 L234 32 L161 32 L161 423 L628 423 L628 105 L234 105 ZM696 530 L98 530 L98 597 L696 597 L696 530 ZM885 34 Q885 -39 840 -56 Q802 -70 654 -70 Q652 -53 644 -30 Q637 -5 628 10 Q677 9 725 8 Q770 8 786 9 Q810 10 810 34 L810 701 L91 701 L91 772 L885 772 L885 34 Z" /><glyph glyph-name="uni5956" unicode="&#x5956;" d="M942 733 Q886 564 742 469 Q620 387 418 351 Q404 387 378 413 Q528 435 635 484 Q591 540 515 605 L569 637 Q645 577 695 516 Q801 585 848 688 L573 688 Q505 622 436 583 Q428 596 416 611 Q402 628 392 637 Q540 717 596 840 L668 817 Q653 787 627 753 L884 753 L898 755 L942 733 ZM169 598 Q144 668 77 755 L134 784 Q202 702 229 631 L169 598 ZM281 514 Q161 449 82 408 L50 472 Q133 510 281 584 L281 837 L353 837 L353 349 L281 349 L281 514 ZM560 207 Q652 29 958 -5 Q946 -16 932 -36 Q919 -55 913 -70 Q604 -24 499 179 Q456 79 365 20 Q263 -46 82 -78 Q77 -64 67 -45 Q56 -26 47 -15 Q218 12 310 69 Q392 120 429 207 L63 207 L63 274 L451 274 Q458 301 465 350 L542 350 Q535 304 528 274 L934 274 L934 207 L560 207 Z" /><glyph glyph-name="uni5B89" unicode="&#x5b89;" d="M170 521 L96 521 L96 721 L462 721 Q439 773 415 820 L491 838 Q526 774 549 721 L904 721 L904 521 L827 521 L827 652 L170 652 L170 521 ZM389 378 Q346 307 310 256 Q404 226 525 179 Q612 262 656 378 L389 378 ZM741 378 Q690 242 598 150 Q801 64 910 -6 L849 -70 Q741 4 535 94 Q392 -17 132 -74 Q126 -60 112 -39 Q98 -19 85 -6 Q323 35 458 127 Q305 188 194 223 L195 224 Q245 287 301 378 L71 378 L71 449 L343 449 Q398 549 422 610 L502 593 Q471 524 430 449 L931 449 L931 378 L741 378 Z" /><glyph glyph-name="uni6210" unicode="&#x6210;" d="M714 832 Q831 773 893 718 L847 667 Q783 726 670 787 L714 832 ZM887 498 Q822 302 711 160 Q770 5 845 5 Q866 5 876 48 Q887 89 892 190 Q922 160 956 150 Q946 23 921 -23 Q896 -69 839 -69 Q729 -69 656 95 Q565 -4 450 -71 Q441 -58 425 -41 Q408 -22 396 -12 Q530 60 626 173 Q574 337 553 594 L208 594 L208 464 L463 464 L463 432 Q456 129 431 98 Q412 73 371 69 Q331 66 252 69 Q250 108 231 139 Q262 136 295 135 Q308 134 320 134 L337 134 Q360 134 367 145 Q385 164 390 395 L208 395 L208 387 Q208 253 189 148 Q163 3 103 -84 Q93 -73 74 -57 Q54 -41 41 -34 Q96 48 117 174 Q132 262 132 388 L132 667 L549 667 Q545 722 543 835 L620 835 Q620 739 624 667 L947 667 L947 594 L629 594 Q645 385 684 247 Q766 367 812 517 L887 498 Z" /><glyph glyph-name="uni2F47" unicode="&#x2f47;&#x65e5;" d="M751 73 L751 352 L255 352 L255 73 L751 73 ZM255 695 L255 425 L751 425 L751 695 L255 695 ZM829 768 L829 -61 L751 -61 L751 0 L255 0 L255 -65 L180 -65 L180 768 L829 768 Z" /><glyph glyph-name="uni65F6" unicode="&#x65f6;" d="M155 686 L155 468 L325 468 L325 686 L155 686 ZM325 175 L325 401 L155 401 L155 175 L325 175 ZM395 107 L155 107 L155 28 L85 28 L85 753 L395 753 L395 107 ZM958 564 L837 564 L837 34 Q837 -37 787 -53 Q748 -68 589 -66 Q586 -49 579 -29 Q570 -6 562 8 Q616 7 669 6 Q717 6 735 7 Q763 8 763 34 L763 564 L440 564 L440 637 L763 637 L763 831 L837 831 L837 637 L958 637 L958 564 ZM626 208 Q575 305 474 452 L535 484 Q586 410 621 359 Q669 286 691 246 L626 208 Z" /><glyph glyph-name="uni2F49" unicode="&#x2f49;&#x6708;" d="M741 306 L741 474 L284 474 Q284 387 273 306 L741 306 ZM284 711 L284 545 L741 545 L741 711 L284 711 ZM818 32 Q818 -41 766 -58 Q725 -72 555 -72 Q545 -31 523 5 Q576 3 639 3 L710 3 Q741 4 741 33 L741 233 L261 233 Q217 34 89 -78 Q82 -67 63 -49 Q47 -34 34 -24 Q140 70 181 220 Q209 323 209 478 L209 784 L818 784 L818 32 Z" /><glyph glyph-name="uni6709" unicode="&#x6709;" d="M747 455 L330 455 L330 354 L747 354 L747 455 ZM747 185 L747 289 L330 289 L330 185 L747 185 ZM399 638 Q363 564 338 522 L820 522 L820 17 Q820 -46 778 -62 Q742 -75 604 -75 Q600 -43 580 -2 Q622 -4 670 -4 L724 -4 Q747 -3 747 17 L747 121 L330 121 L330 -76 L257 -76 L257 406 Q182 312 90 248 Q72 278 43 305 Q212 419 318 638 L67 638 L67 708 L349 708 Q376 777 393 837 L467 819 L449 763 Q438 732 428 708 L937 708 L937 638 L399 638 Z" /><glyph glyph-name="uni6BCF" unicode="&#x6bcf;" d="M267 669 Q190 545 109 464 Q96 474 77 486 Q57 500 43 508 Q187 633 273 842 L346 821 L326 779 Q315 754 305 736 L921 736 L921 669 L267 669 ZM728 119 Q734 183 740 281 L261 281 Q251 211 236 119 L545 119 Q475 184 366 240 L408 281 Q534 222 598 156 L564 119 L728 119 ZM291 502 L280 424 L269 345 L569 345 Q497 411 391 457 L433 499 Q548 450 615 389 L572 345 L743 345 Q746 423 749 502 L291 502 ZM813 279 Q805 156 801 119 L921 119 L921 53 L793 53 Q782 -13 764 -40 Q739 -71 694 -76 Q649 -79 566 -74 Q564 -44 547 -15 Q583 -18 617 -19 Q647 -20 663 -19 Q688 -19 700 -5 Q711 8 720 53 L149 53 Q159 108 167 157 Q178 221 187 279 L46 279 L46 347 L197 347 L205 405 L212 461 Q221 526 225 568 L823 568 Q822 541 822 532 Q821 490 819 434 L818 411 L817 389 Q816 363 815 347 L955 347 L955 279 L813 279 Z" /><glyph glyph-name="uni6D3B" unicode="&#x6d3b;" d="M279 661 Q250 681 194 715 Q145 744 94 771 L135 824 Q248 770 322 721 L279 661 ZM229 390 Q157 439 45 498 L86 552 Q135 527 184 501 Q240 470 271 451 L229 390 ZM69 -13 Q155 107 258 307 L312 258 Q228 88 131 -63 L69 -13 ZM817 241 L461 241 L461 35 L817 35 L817 241 ZM679 474 L679 310 L888 310 L888 -71 L817 -71 L817 -34 L461 -34 L461 -76 L393 -76 L393 310 L608 310 L608 474 L320 474 L320 546 L608 546 L608 708 Q506 693 388 681 Q386 693 380 713 Q374 729 368 744 Q702 779 852 833 L911 775 Q816 743 679 719 L679 546 L953 546 L953 474 L679 474 Z" /><glyph glyph-name="uni2F63" unicode="&#x2f63;&#x751f;" d="M945 27 L945 -45 L59 -45 L59 27 L464 27 L464 281 L167 281 L167 353 L464 353 L464 571 L229 571 Q180 474 124 408 Q113 417 93 431 Q72 445 57 452 Q176 580 242 820 L317 804 Q290 711 261 644 L464 644 L464 836 L540 836 L540 644 L898 644 L898 571 L540 571 L540 353 L861 353 L861 281 L540 281 L540 27 L945 27 Z" /><glyph glyph-name="uni2F6C" unicode="&#x2f6c;&#x76ee;" d="M757 70 L757 234 L234 234 L234 70 L757 70 ZM234 469 L234 305 L757 305 L757 469 L234 469 ZM234 702 L234 540 L757 540 L757 702 L234 702 ZM834 774 L834 -71 L757 -71 L757 -3 L234 -3 L234 -71 L161 -71 L161 774 L834 774 Z" /><glyph glyph-name="uni7B2C" unicode="&#x7b2c;" d="M218 694 Q172 617 112 560 Q102 568 83 579 Q64 590 50 596 Q159 690 214 841 L283 825 Q270 792 251 751 L507 751 L507 694 L347 694 Q377 637 388 597 L322 575 Q307 634 273 694 L218 694 ZM233 338 L226 291 Q221 262 218 245 L458 245 L458 338 L233 338 ZM531 401 L793 401 L793 493 L531 493 L531 401 ZM899 245 Q898 225 897 214 Q878 22 844 -9 Q823 -32 782 -34 Q739 -37 656 -34 Q654 3 636 35 Q668 32 704 31 Q717 30 731 30 L749 30 Q775 30 785 38 Q806 60 819 181 L531 181 L531 -77 L458 -77 L458 153 Q321 -1 122 -78 Q113 -63 100 -47 Q86 -29 74 -19 Q267 44 399 181 L135 181 Q156 279 170 401 L458 401 L458 493 L135 493 L135 556 L866 556 L866 338 L531 338 L531 245 L899 245 ZM944 751 L944 694 L765 694 Q806 644 826 600 L761 574 Q737 629 684 694 L616 694 Q578 618 530 567 Q518 575 499 587 Q478 599 465 605 Q553 690 598 841 L669 825 L643 751 L944 751 Z" /><glyph glyph-name="uni7B54" unicode="&#x7b54;" d="M600 678 Q574 631 536 590 Q525 599 507 611 Q488 624 475 631 Q558 711 595 840 L665 824 Q647 771 634 742 L937 742 L937 678 L752 678 Q794 620 811 579 L742 554 Q724 604 670 678 L600 678 ZM202 679 Q154 599 103 548 Q94 556 74 569 Q55 582 42 590 Q147 687 202 840 L273 821 Q257 780 238 743 L491 743 L491 679 L330 679 Q366 618 379 575 L313 553 Q296 608 254 679 L202 679 ZM286 172 L286 29 L718 29 L718 172 L286 172 ZM214 237 L791 237 L791 -72 L718 -72 L718 -37 L286 -37 L286 -77 L214 -77 L214 237 ZM679 380 Q572 440 496 502 Q430 435 342 380 L679 380 ZM557 572 Q551 563 537 547 Q713 412 968 337 Q955 327 940 306 Q926 289 916 272 Q825 302 709 363 L709 317 L299 317 L299 353 Q212 304 92 258 Q84 272 70 290 Q56 309 45 318 Q364 428 487 600 L557 572 Z" /><glyph glyph-name="uni2F84" unicode="&#x2f84;&#x81f3;" d="M843 391 Q817 425 779 463 Q184 434 149 422 Q146 437 139 458 Q131 482 125 496 Q150 500 194 542 Q218 562 257 605 Q306 658 344 711 L80 711 L80 781 L913 781 L913 711 L441 711 Q347 588 255 505 L717 524 Q647 587 593 629 L652 667 Q825 538 906 436 L843 391 ZM945 32 L945 -38 L58 -38 L58 32 L461 32 L461 216 L145 216 L145 285 L461 285 L461 415 L536 415 L536 285 L861 285 L861 216 L536 216 L536 32 L945 32 Z" /><glyph glyph-name="uni9009" unicode="&#x9009;" d="M575 423 Q559 293 513 220 Q458 132 340 86 Q323 121 295 145 Q400 182 448 255 Q488 315 501 423 L322 423 L322 488 L602 488 L602 634 L455 634 Q421 569 390 533 Q381 541 361 553 Q341 565 328 571 Q406 658 447 807 L518 791 Q504 743 485 699 L602 699 L602 833 L676 833 L676 699 L906 699 L906 634 L676 634 L676 488 L947 488 L947 423 L750 423 L750 192 Q750 174 755 169 Q760 164 779 164 L859 164 Q877 164 882 184 Q888 206 889 282 Q914 263 956 253 Q950 159 931 127 Q913 95 866 95 L769 95 Q714 95 695 116 Q677 135 677 192 L677 423 L575 423 ZM218 596 Q169 676 63 763 L120 803 Q231 717 279 642 L218 596 ZM253 103 Q269 101 294 84 L306 76 L319 67 Q335 56 350 48 Q422 5 600 5 Q801 5 963 23 Q955 6 949 -15 Q942 -39 941 -54 Q880 -58 778 -61 Q669 -65 599 -65 Q421 -65 336 -16 Q325 -9 308 2 L296 11 L284 19 Q258 36 245 36 Q199 36 98 -76 L49 -13 Q122 57 181 85 L181 386 L58 386 L58 456 L253 456 L253 103 Z" /><glyph glyph-name="uni9053" unicode="&#x9053;" d="M787 502 L455 502 L455 420 L787 420 L787 502 ZM787 368 L455 368 L455 284 L787 284 L787 368 ZM787 232 L455 232 L455 148 L787 148 L787 232 ZM553 559 Q561 584 565 600 Q572 624 575 643 L313 643 L313 705 L482 705 Q462 752 415 815 L477 841 Q529 777 549 729 L497 705 L681 705 Q728 769 758 836 L830 815 L794 759 Q773 727 757 705 L944 705 L944 643 L658 643 Q640 598 622 559 L860 559 L860 92 L385 92 L385 559 L553 559 ZM210 595 Q166 666 69 763 L125 798 Q224 707 271 636 L210 595 ZM264 102 Q275 97 297 82 L306 76 L317 69 Q329 62 340 55 Q418 13 598 13 Q801 13 958 31 Q951 14 945 -5 Q938 -28 937 -43 Q878 -46 776 -49 Q663 -53 597 -53 Q410 -53 325 -4 Q313 3 296 15 L282 24 L270 32 Q243 50 228 50 Q188 50 91 -64 L46 -4 Q132 82 192 105 L192 412 L54 412 L54 482 L264 482 L264 102 Z" /><glyph glyph-name="uni90FD" unicode="&#x90fd;" d="M345 535 Q398 600 432 655 L315 655 L315 535 L345 535 ZM444 311 L220 311 L220 214 L444 214 L444 311 ZM444 49 L444 154 L220 154 L220 49 L444 49 ZM576 782 Q521 654 431 535 L560 535 L560 469 L377 469 Q325 410 282 372 L515 372 L515 -58 L444 -58 L444 -13 L220 -13 L220 -72 L151 -72 L151 271 Q118 249 72 223 Q65 234 50 254 Q36 273 25 284 Q171 356 284 469 L47 469 L47 535 L245 535 L245 655 L92 655 L92 721 L245 721 L245 828 L315 828 L315 721 L439 721 L439 666 Q473 719 509 801 L576 782 ZM960 748 Q891 594 815 448 Q947 331 947 206 Q949 109 896 76 Q871 58 829 53 Q789 49 736 52 Q734 93 714 125 Q768 120 799 123 Q827 125 846 135 Q877 152 875 213 Q875 325 739 438 Q804 566 861 709 L675 709 L675 -77 L602 -77 L602 780 L895 780 L907 783 L960 748 Z" /><glyph glyph-name="uni949E" unicode="&#x949e;" d="M884 387 Q854 516 774 659 L836 681 Q919 540 952 411 L884 387 ZM708 222 L636 222 L636 836 L708 836 L708 222 ZM566 651 Q534 447 483 334 Q473 341 453 350 Q434 360 420 365 Q473 476 497 664 L566 651 ZM174 652 Q128 577 77 523 Q72 536 60 559 Q48 581 38 594 Q134 687 183 834 L249 814 Q227 754 212 723 L426 723 L426 652 L174 652 ZM424 140 Q430 102 440 78 Q213 -53 195 -72 Q190 -60 177 -42 Q166 -26 156 -15 Q165 -9 172 -2 Q182 7 190 17 Q209 44 209 74 L209 276 L63 276 L63 344 L209 344 L209 479 L114 479 L114 546 L403 546 L403 479 L282 479 L282 344 L428 344 L428 276 L282 276 L282 64 L424 140 ZM908 331 Q800 21 424 -77 Q408 -40 382 -12 Q741 69 839 351 L908 331 Z" /><glyph glyph-name="uni95F4" unicode="&#x95f4;" d="M95 612 L170 612 L170 -77 L95 -77 L95 612 ZM167 823 Q255 745 290 682 L230 642 Q192 707 110 788 L167 823 ZM380 162 L618 162 L618 296 L380 296 L380 162 ZM380 358 L618 358 L618 491 L380 491 L380 358 ZM313 553 L688 553 L688 100 L313 100 L313 553 ZM909 14 Q909 -43 874 -59 Q846 -73 745 -73 Q738 -36 721 -3 Q747 -4 780 -4 L816 -4 Q833 -4 833 14 L833 710 L353 710 L353 780 L909 780 L909 14 Z" /><glyph glyph-name="uni9650" unicode="&#x9650;" d="M394 770 L382 739 L371 707 L346 640 Q316 564 294 512 Q384 408 384 294 Q384 206 345 179 Q325 163 292 160 Q267 156 226 158 Q224 195 207 224 Q246 221 265 223 Q286 225 296 232 Q317 247 317 301 Q317 404 227 504 Q272 615 306 728 L161 728 L161 -75 L95 -75 L95 796 L334 796 L345 799 L394 770 ZM515 421 L808 421 L808 545 L515 545 L515 421 ZM515 727 L515 607 L808 607 L808 727 L515 727 ZM940 272 Q869 214 768 153 Q845 42 961 -6 Q950 -16 934 -36 Q920 -53 910 -69 Q692 34 611 356 L515 356 L515 27 L691 70 Q691 51 692 34 Q693 13 695 2 Q464 -61 439 -77 Q435 -64 425 -46 Q415 -26 406 -16 Q421 -9 431 7 Q443 26 443 54 L443 793 L880 793 L880 356 L676 356 Q700 268 735 206 Q828 268 891 324 L940 272 Z" /><glyph glyph-name="uni9898" unicode="&#x9898;" d="M649 634 Q656 652 665 681 L672 705 L679 730 L499 730 L499 791 L952 791 L952 730 L755 730 Q747 711 735 679 L726 656 Q721 643 717 634 L904 634 L904 219 L838 219 L838 578 L602 578 L602 216 L539 216 L539 634 L649 634 ZM905 35 Q843 105 728 187 L772 226 Q887 145 950 81 L905 35 ZM757 529 Q750 297 708 203 Q653 83 494 30 Q489 42 479 56 Q468 71 458 78 Q604 125 652 232 Q688 314 693 529 L757 529 ZM381 740 L178 740 L178 665 L381 665 L381 740 ZM381 613 L178 613 L178 538 L381 538 L381 613 ZM451 483 L111 483 L111 795 L451 795 L451 483 ZM318 46 Q408 9 615 7 L782 7 Q923 8 960 9 Q939 -22 932 -55 L614 -55 Q438 -55 344 -26 Q228 8 166 101 Q143 -6 90 -75 Q82 -68 65 -56 Q49 -44 37 -37 Q117 56 127 303 L190 298 Q187 239 179 178 Q207 121 254 83 L254 351 L52 351 L52 409 L501 409 L501 351 L318 351 L318 245 L483 245 L483 188 L318 188 L318 46 Z" /><glyph glyph-name="uniFF0C" unicode="&#xff0c;" d="M135 -54 Q254 -5 261 93 Q255 92 244 92 Q212 92 191 110 Q169 129 169 163 Q169 197 192 217 Q213 235 245 235 Q330 235 330 120 Q330 40 283 -20 Q237 -79 157 -107 L135 -54 Z" /><glyph glyph-name="uniFF1A" unicode="&#xff1a;" d="M250 486 Q219 486 198 506 Q175 527 175 560 Q175 594 198 615 Q219 636 250 636 Q281 636 303 615 Q326 593 326 560 Q326 527 303 506 Q281 486 250 486 ZM250 -4 Q219 -4 198 17 Q175 38 175 71 Q175 104 198 126 Q219 146 250 146 Q281 146 303 126 Q326 104 326 71 Q326 38 303 17 Q281 -4 250 -4 Z" /></font>
</defs>
</svg>
